<?xml version="1.0" standalone="no"?>
<!DOCTYPE svg PUBLIC "-//W3C//DTD SVG 1.1//EN" "http://www.w3.org/Graphics/SVG/1.1/DTD/svg11.dtd" >
<svg>
<metadata>
Created by FontForge 20090914 at Wed Oct 11 14:00:37 2017
 By www-data
Copyright &#194;&#169; 1981, 2002 Heidelberger Druckmaschinen AG. All rights reserved.
</metadata>
<defs>
<font id="DINCondensed-Bold" horiz-adv-x="370" >
  <font-face 
    font-family="DIN Condensed"
    font-weight="700"
    font-stretch="condensed"
    units-per-em="1000"
    panose-1="0 0 5 0 0 0 0 0 0 0"
    ascent="712"
    descent="-288"
    x-height="507"
    cap-height="712"
    bbox="-716 -312 1000 1023"
    underline-thickness="50"
    underline-position="-75"
    unicode-range="U+0020-U+FB02"
  />
<missing-glyph horiz-adv-x="500" 
d="M0 0v700h500v-700h-500zM250 395l170 255h-340zM280 350l170 -255v510zM80 50h340l-170 255zM50 605v-510l170 255z" />
    <glyph glyph-name=".notdef" horiz-adv-x="500" 
d="M0 0v700h500v-700h-500zM250 395l170 255h-340zM280 350l170 -255v510zM80 50h340l-170 255zM50 605v-510l170 255z" />
    <glyph glyph-name="space" unicode=" " horiz-adv-x="186" 
 />
    <glyph glyph-name="exclam" unicode="!" horiz-adv-x="240" 
d="M95 176l-39 536h128l-39 -536h-50zM69 0v102h102v-102h-102z" />
    <glyph glyph-name="quotedbl" unicode="&#x22;" horiz-adv-x="278" 
d="M33 536v176h80v-176h-80zM165 536v176h80v-176h-80z" />
    <glyph glyph-name="numbersign" unicode="#" horiz-adv-x="372" 
d="M180 0l29 215h-84l-29 -215h-68l29 215h-51v60h59l22 162h-50v60h58l29 215h68l-29 -215h84l29 215h68l-29 -215h51v-60h-59l-22 -162h50v-60h-58l-29 -215h-68zM217 275l22 162h-84l-22 -162h84z" />
    <glyph glyph-name="dollar" unicode="$" horiz-adv-x="372" 
d="M161 616c-17.333 -6.66699 -28.833 -18.334 -34.5 -35.001s-8.5 -35.667 -8.5 -57c0 -24 2.33301 -42.167 7 -54.5s16.667 -23.166 36 -32.499v179zM212 96c21.333 5.33301 34.5 16.834 39.5 34.501s7.5 41.5 7.5 71.5c0 16.667 -0.5 30.667 -1.5 42
s-3.16699 20.666 -6.5 27.999c-7.33301 14 -20.333 24.667 -39 32v-208zM161 -89.999l0.000976562 84.002c-22 2.66699 -42.167 8.66699 -60.5 18s-34.166 21.333 -47.499 36c-28 30 -42 67.667 -42 113v40h102v-36c0 -15.333 3.66699 -29.666 11 -42.999
s19.666 -22 36.999 -26v230l-34 14c-44 18 -73.5 41.833 -88.5 71.5s-22.5 66.834 -22.5 111.501c0 50.667 12 94.167 36 130.5s60.333 57.833 109 64.5v75h51v-75c22.667 -2.66699 43.167 -8.83398 61.5 -18.501s34.166 -22.167 47.499 -37.5s23.333 -32 30 -50
s10 -36.333 10 -55v-50h-102v23c0 21.333 -3.5 39.666 -10.5 54.999s-19.167 25.666 -36.5 30.999v-201l42 -17c22.667 -8.66699 41 -18.834 55 -30.501s25 -25.167 33 -40.5c7.33301 -16 12.333 -34.167 15 -54.5s4 -43.5 4 -69.5c0 -28.667 -2.5 -55.167 -7.5 -79.5
s-13.167 -45.5 -24.5 -63.5c-12 -18.667 -27.5 -33.667 -46.5 -45s-42.5 -18.333 -70.5 -21v-84h-51z" />
    <glyph glyph-name="percent" unicode="%" horiz-adv-x="352" 
d="M94 555c6.66699 0 12.5 2.5 17.5 7.5s7.5 11.167 7.5 18.5v51c0 7.33301 -2.5 13.5 -7.5 18.5s-10.833 7.5 -17.5 7.5s-12.5 -2.5 -17.5 -7.5s-7.5 -11.167 -7.5 -18.5v-51c0 -7.33301 2.5 -13.5 7.5 -18.5s10.833 -7.5 17.5 -7.5zM94 495c-26 0 -46.667 7 -62 21
s-23 32.333 -23 55v65c0 25.333 7.66699 45.333 23 60s36 22 62 22s46.667 -7.33301 62 -22s23 -34.667 23 -60v-65c0 -22.667 -7.66699 -41 -23 -55s-36 -21 -62 -21zM233 80c0 -7.33301 2.5 -13.5 7.5 -18.5s10.833 -7.5 17.5 -7.5s12.5 2.5 17.5 7.5s7.5 11.167 7.5 18.5
v51c0 7.33301 -2.5 13.5 -7.5 18.5s-10.833 7.5 -17.5 7.5s-12.5 -2.5 -17.5 -7.5s-7.5 -11.167 -7.5 -18.5v-51zM258 -6c-26 0 -46.667 7 -62 21s-23 32.333 -23 55v65c0 25.333 7.66699 45.333 23 60s36 22 62 22s46.667 -7.33301 62 -22s23 -34.667 23 -60v-65
c0 -22.667 -7.66699 -41 -23 -55s-36 -21 -62 -21zM21 0l244 712h66l-244 -712h-66z" />
    <glyph glyph-name="ampersand" unicode="&#x26;" horiz-adv-x="481" 
d="M353 0l-33.999 54.002c-20 -20 -40.667 -35 -62 -45s-46 -15 -74 -15c-20 0 -39 4 -57 12s-33.667 19.333 -47 34c-13.333 14 -23.833 31.167 -31.5 51.5s-11.5 42.833 -11.5 67.5c0 39.333 9.33301 73.666 28 102.999s42 56.666 70 81.999
c-18 25.333 -32.833 51.5 -44.5 78.5s-17.5 55.5 -17.5 85.5c0 18.667 3 36.5 9 53.5s14.667 31.833 26 44.5c11.333 12 25.666 21.667 42.999 29s37.666 11 60.999 11c22 0 41.333 -3.5 58 -10.5s30.667 -16.167 42 -27.5c23.333 -24.667 35 -55 35 -91
c0 -34 -10.333 -66 -31 -96s-45 -57.667 -73 -83c6.66699 -9.33301 13.5 -20 20.5 -32s14.833 -24.667 23.5 -38c16.667 -28.667 33.334 -55 50.001 -79l55 75l63 -44l-76 -98l77 -122h-102zM126.001 164.002c0 -24.667 7.16602 -45.833 21.499 -63.5s32.5 -26.5 54.5 -26.5
c15.333 0 30 4.83301 44 14.5s24.667 19.167 32 28.5l-98 156c-15.333 -15.333 -28.166 -31.833 -38.499 -49.5s-15.5 -37.5 -15.5 -59.5zM162 506.003c0 -15.333 3.66699 -31.835 11 -49.502s16.666 -35.5 27.999 -53.5l20 20.5c7.33301 7.66699 14 16.167 20 25.5
s11 19.5 15 30.5s6 22.833 6 35.5s-4.33301 24.334 -13 35.001s-20.667 16 -36 16s-27.666 -6.16699 -36.999 -18.5s-14 -26.166 -14 -41.499z" />
    <glyph glyph-name="quotesingle" unicode="'" horiz-adv-x="186" 
d="M53 536v176h80v-176h-80z" />
    <glyph glyph-name="parenleft" unicode="(" horiz-adv-x="222" 
d="M203 712c-19.333 -68.667 -32.667 -139.667 -40 -213s-11 -147 -11 -221c0 -68.667 4.5 -134.167 13.5 -196.5s21.5 -122.833 37.5 -181.5h-34c-20 28.667 -37.5 59.834 -52.5 93.501s-27.167 68.5 -36.5 104.5c-10 36 -17.5 71.667 -22.5 107s-7.5 69 -7.5 101
c0 34 2.66699 69 8 105s13.333 72 24 108c20 71.333 49 135.666 87 192.999h34z" />
    <glyph glyph-name="parenright" unicode=")" horiz-adv-x="222" 
d="M19 -100c19.333 68.667 32.666 139.667 39.999 213s11 147 11 221c0 68.667 -4.5 134.167 -13.5 196.5s-21.5 122.833 -37.5 181.5h34c20 -30 37.5 -61.5 52.5 -94.5s27.5 -67.5 37.5 -103.5c9.33301 -36 16.5 -71.667 21.5 -107s7.5 -69 7.5 -101
c0 -34 -2.66699 -69 -8 -105s-13 -72 -23 -108c-21.333 -72 -50.666 -136.333 -87.999 -193h-34z" />
    <glyph glyph-name="asterisk" unicode="*" 
d="M31 604l28 52l98 -60l-4 116h64l-4 -116l98 60l28 -52l-100 -56l100 -55l-28 -53l-98 60l4 -116h-64l4 116l-98 -60l-28 53l100 55z" />
    <glyph glyph-name="plus" unicode="+" horiz-adv-x="600" 
d="M260 293v213h80v-213h213v-80h-213v-213h-80v213h-213v80h213z" />
    <glyph glyph-name="comma" unicode="," horiz-adv-x="186" 
d="M42 -74v176h102v-102z" />
    <glyph glyph-name="hyphen" unicode="-" horiz-adv-x="389" 
d="M44 226v102h301v-102h-301z" />
    <glyph glyph-name="period" unicode="." horiz-adv-x="186" 
d="M42 0v102h102v-102h-102z" />
    <glyph glyph-name="slash" unicode="/" horiz-adv-x="222" 
d="M5 -6l132 724h80l-132 -724h-80z" />
    <glyph glyph-name="zero" unicode="0" horiz-adv-x="372" 
d="M34 565c0 24 4.16699 45.333 12.5 64s19.5 34.667 33.5 48s30.167 23.5 48.5 30.5s37.5 10.5 57.5 10.5s39.167 -3.5 57.5 -10.5s34.5 -17.167 48.5 -30.5s25.167 -29.333 33.5 -48s12.5 -40 12.5 -64v-418c0 -24 -4.16699 -45.333 -12.5 -64s-19.5 -34.667 -33.5 -48
s-30.167 -23.5 -48.5 -30.5s-37.5 -10.5 -57.5 -10.5s-39.167 3.5 -57.5 10.5s-34.5 17.167 -48.5 30.5s-25.167 29.333 -33.5 48s-12.5 40 -12.5 64v418zM136 147c0 -14.667 4.66699 -26.834 14 -36.501s21.333 -14.5 36 -14.5s26.667 4.83301 36 14.5s14 21.834 14 36.501
v418c0 14.667 -4.66699 26.834 -14 36.501s-21.333 14.5 -36 14.5s-26.667 -4.83301 -36 -14.5s-14 -21.834 -14 -36.501v-418z" />
    <glyph glyph-name="one" unicode="1" horiz-adv-x="372" 
d="M155 0v604l-102 -75v108l102 75h102v-712h-102z" />
    <glyph glyph-name="two" unicode="2" horiz-adv-x="372" 
d="M34 0l0.000976562 96.0029l184 347c9.33301 17.333 14.666 32.5 15.999 45.5s2 29.167 2 48.5c0 8.66699 -0.166992 17.834 -0.5 27.501s-2.16602 18.167 -5.49902 25.5s-8.33301 13.5 -15 18.5s-16.334 7.5 -29.001 7.5c-15.333 0 -27.5 -4.33301 -36.5 -13
s-13.5 -21.334 -13.5 -38.001v-58h-102v56c0 21.333 4 41.333 12 60s19 35 33 49c13.333 14 29.333 25.167 48 33.5s38.667 12.5 60 12.5c26.667 0 49.5 -4.83301 68.5 -14.5s34.833 -22.834 47.5 -39.501c12 -16.667 20.833 -35.667 26.5 -57s8.5 -44 8.5 -68
c0 -17.333 -0.333008 -31.833 -1 -43.5s-2 -22.834 -4 -33.501s-5.33301 -21.334 -10 -32.001s-11 -23.667 -19 -39l-150 -289h184v-102h-304z" />
    <glyph glyph-name="three" unicode="3" horiz-adv-x="372" 
d="M155 412c30.667 0 51.835 3.66602 63.502 10.999s17.5 24.333 17.5 51v92c0 14.667 -4.5 26.667 -13.5 36s-21.167 14 -36.5 14c-18 0 -30.833 -5.66699 -38.5 -17s-11.5 -22.333 -11.5 -33v-58h-102v59c0 20.667 4 40.334 12 59.001s19 34.667 33 48s30.333 24 49 32
s38.667 12 60 12c28 0 51.167 -5.5 69.5 -16.5s32.166 -22.167 41.499 -33.5c6.66699 -8 12.5 -16 17.5 -24s9.16699 -17.667 12.5 -29c6 -22 9 -54.667 9 -98c0 -24.667 -0.5 -44.667 -1.5 -60s-3.5 -28 -7.5 -38c-4.66699 -10.667 -11.167 -19.667 -19.5 -27
s-19.833 -15.333 -34.5 -24c16 -10 28.167 -19.333 36.5 -28s14.5 -18.667 18.5 -30c4 -12 6.33301 -26.167 7 -42.5s1 -37.166 1 -62.499c0 -23.333 -0.5 -42.666 -1.5 -57.999s-2.5 -28 -4.5 -38c-2 -10.667 -4.66699 -19.667 -8 -27s-7.66602 -15 -12.999 -23
c-12.667 -18.667 -28.834 -34.167 -48.501 -46.5s-45.5 -18.5 -77.5 -18.5c-16 0 -33 2.66699 -51 8s-34.333 14 -49 26s-26.834 27.667 -36.501 47s-14.5 43 -14.5 71v58h102v-53c0 -16 4.5 -29.167 13.5 -39.5s21.167 -15.5 36.5 -15.5s27.5 5.16699 36.5 15.5
s13.5 24.166 13.5 41.499v102c0 28 -5.33301 46.333 -16 55c-6 5.33301 -14.167 8.66602 -24.5 9.99902s-23.833 2 -40.5 2v90z" />
    <glyph glyph-name="four" unicode="4" horiz-adv-x="372" 
d="M212 0v106h-203v96l147 510h108l-153 -510h101v203h102v-203h49v-96h-49v-106h-102z" />
    <glyph glyph-name="five" unicode="5" horiz-adv-x="372" 
d="M338 712v-95.999h-202v-192c9.33301 9.33301 21.333 17.166 36 23.499s31 9.5 49 9.5c34.667 0 62.834 -10.5 84.501 -31.5s32.5 -52.5 32.5 -94.5v-184c0 -24 -4.16699 -45.333 -12.5 -64s-19.5 -34.667 -33.5 -48s-30.167 -23.5 -48.5 -30.5s-37.5 -10.5 -57.5 -10.5
s-39.167 3.5 -57.5 10.5s-34.5 17.167 -48.5 30.5s-25.167 29.333 -33.5 48s-12.5 40 -12.5 64v30h102v-26c0 -17.333 4.83301 -30.833 14.5 -40.5s22.167 -14.5 37.5 -14.5s27.166 4.66699 35.499 14s12.5 22.333 12.5 39v167c0 14 -4.5 26 -13.5 36s-20.5 15 -34.5 15
c-8.66699 0 -16 -1.5 -22 -4.5s-11 -6.5 -15 -10.5s-7 -8.33301 -9 -13c-3.33301 -6 -5.33301 -9.66699 -6 -11h-90v384h292z" />
    <glyph glyph-name="six" unicode="6" horiz-adv-x="372" 
d="M301 712l-116.002 -299l2 -2c3.33301 2.66699 8.5 4.83398 15.5 6.50098s16.167 2.5 27.5 2.5c18 0 34.667 -4.33301 50 -13s27.333 -19.667 36 -33c4.66699 -7.33301 8.33398 -14.666 11.001 -21.999s5 -17 7 -29c1.33301 -12 2.33301 -27.167 3 -45.5s1 -41.5 1 -69.5
c0 -23.333 -0.333008 -42.5 -1 -57.5s-1.66699 -27.5 -3 -37.5c-2 -10.667 -4.5 -19.667 -7.5 -27s-6.83301 -15 -11.5 -23c-13.333 -22 -31.166 -39 -53.499 -51s-47.5 -18 -75.5 -18s-53 6.16699 -75 18.5s-39.667 29.166 -53 50.499c-5.33301 8 -9.5 15.667 -12.5 23
s-5.16699 16.333 -6.5 27c-2 10 -3.33301 22.5 -4 37.5s-1 34.167 -1 57.5c0 22 0.333008 40.167 1 54.5s1.66699 26.833 3 37.5c1.33301 10 3.33301 19.167 6 27.5s5.66699 17.166 9 26.499l134 358h114zM235.998 279c0 15.333 -5 27.666 -15 36.999s-21.667 14 -35 14
s-25 -4.66699 -35 -14s-15 -21.666 -15 -36.999v-132c0 -15.333 5 -27.666 15 -36.999s21.667 -14 35 -14s25 4.66699 35 14s15 21.666 15 36.999v132z" />
    <glyph glyph-name="seven" unicode="7" horiz-adv-x="372" 
d="M57 0l179 616h-112v-82h-90v178h304v-102l-173 -610h-108z" />
    <glyph glyph-name="eight" unicode="8" horiz-adv-x="372" 
d="M236 566c0 14 -5 25.833 -15 35.5s-21.667 14.5 -35 14.5s-25 -4.83301 -35 -14.5s-15 -21.5 -15 -35.5v-104c0 -14 5 -25.833 15 -35.5s21.667 -14.5 35 -14.5s25 4.83301 35 14.5s15 21.5 15 35.5v104zM34 526c0 19.333 0.667969 35.833 2.00098 49.5
s3.66602 25.5 6.99902 35.5s7.16602 19 11.499 27s9.83301 16.333 16.5 25c13.333 17.333 30 30.833 50 40.5s41.667 14.5 65 14.5s45 -4.83301 65 -14.5s36.667 -23.167 50 -40.5c6.66699 -8.66699 12.334 -17 17.001 -25s8.66699 -17 12 -27s5.5 -21.833 6.5 -35.5
s1.5 -30.167 1.5 -49.5c0 -21.333 -0.333008 -39.333 -1 -54s-2.66699 -27.667 -6 -39s-8.5 -21.5 -15.5 -30.5s-16.5 -18.5 -28.5 -28.5c12 -9.33301 21.5 -18.666 28.5 -27.999s12.167 -20.333 15.5 -33s5.33301 -28.167 6 -46.5s1 -40.833 1 -67.5
c0 -22 -0.5 -40.167 -1.5 -54.5s-2.5 -26.833 -4.5 -37.5s-4.83301 -19.667 -8.5 -27s-8.16699 -15 -13.5 -23c-11.333 -17.333 -27.333 -32.166 -48 -44.499s-46 -18.5 -76 -18.5s-55.333 6.16699 -76 18.5s-36.667 27.166 -48 44.499c-5.33301 8 -9.83301 15.667 -13.5 23
s-6.5 16.333 -8.5 27s-3.5 23.167 -4.5 37.5s-1.5 32.5 -1.5 54.5c0 26.667 0.333008 49.167 1 67.5s2.66699 33.833 6 46.5s8.5 23.667 15.5 33s16.5 18.666 28.5 27.999c-12 10 -21.5 19.5 -28.5 28.5s-12.167 19.167 -15.5 30.5s-5.33301 24.333 -6 39s-1 32.667 -1 54z
M236.001 286c0 14 -5 25.833 -15 35.5s-21.667 14.5 -35 14.5s-25 -4.83301 -35 -14.5s-15 -21.5 -15 -35.5v-140c0 -14 5 -25.833 15 -35.5s21.667 -14.5 35 -14.5s25 4.83301 35 14.5s15 21.5 15 35.5v140z" />
    <glyph glyph-name="nine" unicode="9" horiz-adv-x="372" 
d="M71 0l116.001 298.998l-2 2c-3.33301 -2.66699 -8.5 -4.83398 -15.5 -6.50098s-16.167 -2.5 -27.5 -2.5c-18 0 -34.667 4.33301 -50 13s-27.333 19.667 -36 33c-4.66699 6.66699 -8.33398 13.834 -11.001 21.501s-4.66699 17.5 -6 29.5c-2 12 -3.33301 27.167 -4 45.5
s-1 41.5 -1 69.5c0 23.333 0.333008 42.5 1 57.5s2 27.833 4 38.5c1.33301 10 3.5 18.667 6.5 26s6.83301 15 11.5 23c13.333 22 31.166 39 53.499 51s47.5 18 75.5 18s53 -6.16699 75 -18.5s39.667 -29.166 53 -50.499c4.66699 -8 8.66699 -15.667 12 -23s6 -16 8 -26
c1.33301 -10.667 2.33301 -23.5 3 -38.5s1 -34.167 1 -57.5c0 -22 -0.333008 -40.167 -1 -54.5s-1.66699 -26.5 -3 -36.5c-2 -10.667 -4.16699 -20.167 -6.5 -28.5s-5.16602 -17.166 -8.49902 -26.499l-134 -358h-114zM136.001 432.998c0 -15.333 5 -27.666 15 -36.999
s21.667 -14 35 -14s25 4.66699 35 14s15 21.666 15 36.999v132c0 15.333 -5 27.666 -15 36.999s-21.667 14 -35 14s-25 -4.66699 -35 -14s-15 -21.666 -15 -36.999v-132z" />
    <glyph glyph-name="colon" unicode=":" horiz-adv-x="186" 
d="M42 0v102h102v-102h-102zM42 227v102h102v-102h-102z" />
    <glyph glyph-name="semicolon" unicode=";" horiz-adv-x="186" 
d="M42 -74v176h102v-102zM42 227v102h102v-102h-102z" />
    <glyph glyph-name="less" unicode="&#x3c;" horiz-adv-x="600" 
d="M553 514v-80l-397 -181l397 -181v-80l-506 231v60z" />
    <glyph glyph-name="equal" unicode="=" horiz-adv-x="600" 
d="M47 313v80h506v-80h-506zM47 113v80h506v-80h-506z" />
    <glyph glyph-name="greater" unicode="&#x3e;" horiz-adv-x="600" 
d="M47 -8v80l397 181l-397 181v80l506 -231v-60z" />
    <glyph glyph-name="question" unicode="?" 
d="M32 507v59c0 20.667 4 40.334 12 59.001s19 35 33 49c14 13.333 30.333 24 49 32s38.667 12 60 12c24.667 0 47.167 -5 67.5 -15s37.166 -24 50.499 -42c6.66699 -9.33301 12.167 -17.833 16.5 -25.5s7.83301 -16.167 10.5 -25.5c4.66699 -16.667 7 -40.334 7 -71.001
c0 -17.333 -0.166992 -31.833 -0.5 -43.5s-1.16602 -21.834 -2.49902 -30.501s-3 -16.167 -5 -22.5s-4.66699 -12.166 -8 -17.499l-69 -118c-4.66699 -8 -8.66699 -16.167 -12 -24.5s-5 -17.166 -5 -26.499v-80h-102v93c0 14.667 2.33301 28.667 7 42s10.667 26.333 18 39
l64 104c5.33301 8.66699 8.83301 18 10.5 28s2.5 20 2.5 30v53c0 14 -4.83301 26 -14.5 36s-21.5 15 -35.5 15c-12 0 -23.667 -4.33301 -35 -13s-17 -21.334 -17 -38.001v-58h-102zM134 0v102h102v-102h-102z" />
    <glyph glyph-name="at" unicode="@" horiz-adv-x="800" 
d="M513 410c0 23.333 -6.33398 43 -19.001 59s-31 24 -55 24c-22 0 -42.333 -6.16699 -61 -18.5s-34.667 -28.166 -48 -47.499c-14 -19.333 -25 -40.5 -33 -63.5s-12 -44.833 -12 -65.5c0 -28 7.5 -49.5 22.5 -64.5s35.167 -22.5 60.5 -22.5
c18.667 0 36.834 6.66699 54.501 20s33.167 30 46.5 50c13.333 19.333 24 40.666 32 63.999s12 45 12 65zM638.999 548l-87 -274.995c-3.33301 -9.33301 -5.83301 -18 -7.5 -26s-2.5 -14.333 -2.5 -19c0 -8.66699 1.66699 -15.667 5 -21s9.33301 -8 18 -8
c16 0 32 6.66699 48 20s30.667 30.666 44 51.999s24 44.5 32 69.5s12 49.5 12 73.5c0 34.667 -7.33301 66.667 -22 96s-34.334 54.666 -59.001 75.999s-53 37.666 -85 48.999s-66 17 -102 17c-42 0 -81.167 -8.16699 -117.5 -24.5s-68.5 -38.5 -96.5 -66.5
s-49.667 -60 -65 -96s-23 -73.333 -23 -112c0 -40.667 7.83301 -78.834 23.5 -114.501s37.5 -66.5 65.5 -92.5c28 -26.667 60.333 -47.667 97 -63s77 -23 121 -23c24 0 48 2.83301 72 8.5s46.667 13.167 68 22.5s40.833 20.5 58.5 33.5s32.5 26.5 44.5 40.5h77
c-16 -26.667 -35.833 -50.667 -59.5 -72s-49.5 -39.333 -77.5 -54c-28.667 -14.667 -59.167 -25.834 -91.5 -33.501s-65.5 -11.5 -99.5 -11.5c-52 0 -100.833 9.16699 -146.5 27.5s-85.5 43.833 -119.5 76.5c-34 32 -60.833 70.333 -80.5 115s-29.5 93 -29.5 145
c0 50 10 96.833 30 140.5s47.333 81.834 82 114.501c34 32.667 73.833 58.334 119.5 77.001s94.5 28 146.5 28c46.667 0 91 -7.33301 133 -22s79 -35.334 111 -62.001s57 -58.167 75 -94.5s27 -76.5 27 -120.5c0 -42 -7.83301 -80.167 -23.5 -114.5
s-35.167 -63.5 -58.5 -87.5c-23.333 -24.667 -48.166 -43.834 -74.499 -57.501s-50.166 -20.5 -71.499 -20.5c-22.667 0 -40.667 5.16699 -54 15.5s-21.333 26.166 -24 47.499h-2c-7.33301 -8 -14.833 -15.667 -22.5 -23s-16.167 -14 -25.5 -20
c-10 -6 -21 -10.833 -33 -14.5s-25.667 -5.5 -41 -5.5c-21.333 0 -40.833 4 -58.5 12s-32.834 19 -45.501 33c-26 29.333 -39 65 -39 107c0 32.667 5.66699 65.334 17 98.001s27.333 62 48 88c20 26 44.167 47.167 72.5 63.5s60.5 24.5 96.5 24.5
c23.333 0 45.833 -6 67.5 -18s37.5 -32 47.5 -60h2l20 61h63z" />
    <glyph glyph-name="A" unicode="A" horiz-adv-x="407" 
d="M254 249l-50 258h-2l-50 -258h102zM2 0l159 712h85l159 -712h-102l-30 153h-139l-30 -153h-102z" />
    <glyph glyph-name="B" unicode="B" horiz-adv-x="426" 
d="M48 0l-0.000976562 712h149c32.667 0 60.5 -5 83.5 -15s41.833 -23.333 56.5 -40s25.167 -35.834 31.5 -57.501s9.5 -44.167 9.5 -67.5v-26c0 -19.333 -1.5 -35.666 -4.5 -48.999s-7.5 -25 -13.5 -35c-11.333 -18.667 -28.666 -34.667 -51.999 -48
c24 -11.333 41.667 -28 53 -50s17 -52 17 -90v-40c0 -62.667 -15.167 -110.667 -45.5 -144s-78.833 -50 -145.5 -50h-139zM149.999 330l-0.000976562 -227.999h44c20.667 0 36.834 3 48.501 9s20.5 14.333 26.5 25s9.66699 23.334 11 38.001s2 30.667 2 48
c0 18 -1 33.667 -3 47s-6 24.666 -12 33.999c-6.66699 9.33301 -15.667 16.166 -27 20.499s-26.333 6.5 -45 6.5h-45zM149.998 616.001v-196h46c34 0 56.833 8.5 68.5 25.5s17.5 41.833 17.5 74.5c0 32 -6.5 56 -19.5 72s-36.5 24 -70.5 24h-42z" />
    <glyph glyph-name="C" unicode="C" horiz-adv-x="407" 
d="M372 203l-0.00195312 -43.9971c0 -22 -4.16699 -42.833 -12.5 -62.5s-19.833 -37.167 -34.5 -52.5s-31.834 -27.5 -51.501 -36.5s-40.834 -13.5 -63.501 -13.5c-19.333 0 -39 2.66699 -59 8s-38 14.666 -54 27.999s-29.167 30.5 -39.5 51.5s-15.5 47.833 -15.5 80.5v392
c0 23.333 4 45 12 65s19.333 37.333 34 52s32.167 26.167 52.5 34.5s42.833 12.5 67.5 12.5c48 0 87 -15.667 117 -47c14.667 -15.333 26.167 -33.5 34.5 -54.5s12.5 -43.833 12.5 -68.5v-40h-102v34c0 20 -5.66699 37.333 -17 52s-26.666 22 -45.999 22
c-25.333 0 -42.166 -7.83301 -50.499 -23.5s-12.5 -35.5 -12.5 -59.5v-364c0 -20.667 4.5 -38 13.5 -52s25.167 -21 48.5 -21c6.66699 0 13.834 1.16699 21.501 3.5s14.834 6.16602 21.501 11.499c6 5.33301 11 12.666 15 21.999s6 21 6 35v35h102z" />
    <glyph glyph-name="D" unicode="D" horiz-adv-x="426" 
d="M48 0v712.001h151c58.667 0 103.167 -16 133.5 -48s45.5 -77.333 45.5 -136v-333c0 -66.667 -16.167 -115.834 -48.5 -147.501s-78.833 -47.5 -139.5 -47.5h-142zM150 616.001v-520h47c28.667 0 49 7.16699 61 21.5s18 36.833 18 67.5v343c0 28 -5.66699 49.667 -17 65
s-32 23 -62 23h-47z" />
    <glyph glyph-name="E" unicode="E" 
d="M48 0v712h304v-96h-202v-209h176v-96h-176v-209h202v-102h-304z" />
    <glyph glyph-name="F" unicode="F" 
d="M48 0v712h304v-96h-202v-216h176v-96h-176v-304h-102z" />
    <glyph glyph-name="G" unicode="G" horiz-adv-x="426" 
d="M42 544c0 28.667 5 54 15 76s23.333 40.333 40 55c16 14 34.167 24.667 54.5 32s40.833 11 61.5 11s41.167 -3.66699 61.5 -11s38.833 -18 55.5 -32c16 -14.667 29 -33 39 -55s15 -47.333 15 -76v-36h-102v36c0 24.667 -6.83301 42.834 -20.5 54.501
s-29.834 17.5 -48.501 17.5s-34.834 -5.83301 -48.501 -17.5s-20.5 -29.834 -20.5 -54.501v-376c0 -24.667 6.83301 -42.834 20.5 -54.501s29.834 -17.5 48.501 -17.5s34.834 5.83301 48.501 17.5s20.5 29.834 20.5 54.501v134h-81v90h183v-224c0 -30 -5 -55.667 -15 -77
s-23 -39 -39 -53c-16.667 -14.667 -35.167 -25.667 -55.5 -33s-40.833 -11 -61.5 -11s-41.167 3.66699 -61.5 11s-38.5 18.333 -54.5 33c-16.667 14 -30 31.667 -40 53s-15 47 -15 77v376z" />
    <glyph glyph-name="H" unicode="H" horiz-adv-x="426" 
d="M48 0v712h102v-305h126v305h102v-712h-102v317h-126v-317h-102z" />
    <glyph glyph-name="I" unicode="I" horiz-adv-x="204" 
d="M51 0v712h102v-712h-102z" />
    <glyph glyph-name="J" unicode="J" horiz-adv-x="333" 
d="M285 712l0.000976562 -543.999c0 -48.667 -15.333 -89.334 -46 -122.001c-15.333 -16 -33.5 -28.667 -54.5 -38s-45.5 -14 -73.5 -14c-32.667 0 -59.834 7.16699 -81.501 21.5s-38.834 28.5 -51.501 42.5l80 64c7.33301 -7.33301 15.833 -13.5 25.5 -18.5
s19.834 -7.5 30.501 -7.5c6 0 13 1.16699 21 3.5s15.667 6.83301 23 13.5c7.33301 6 13.333 14.5 18 25.5s7 25.5 7 43.5v530h102z" />
    <glyph glyph-name="K" unicode="K" horiz-adv-x="426" 
d="M48 0v712h102v-325h2l149 325h102l-139 -285l165 -427h-108l-116 316l-55 -103v-213h-102z" />
    <glyph glyph-name="L" unicode="L" 
d="M48 0v712h102v-610h202v-102h-304z" />
    <glyph glyph-name="M" unicode="M" horiz-adv-x="556" 
d="M48 0v712h98l131 -377h2l130 377h99v-712h-102v433h-2l-101 -306h-51l-100 306h-2v-433h-102z" />
    <glyph glyph-name="N" unicode="N" horiz-adv-x="444" 
d="M44 0v712h98l154 -429h2v429h102v-712h-96l-156 428h-2v-428h-102z" />
    <glyph glyph-name="O" unicode="O" horiz-adv-x="426" 
d="M42 544c0 28.667 5 54 15 76s23.333 40.333 40 55c16 14 34.167 24.667 54.5 32s40.833 11 61.5 11s41.167 -3.66699 61.5 -11s38.833 -18 55.5 -32c16 -14.667 29 -33 39 -55s15 -47.333 15 -76v-376c0 -30 -5 -55.667 -15 -77s-23 -39 -39 -53
c-16.667 -14.667 -35.167 -25.667 -55.5 -33s-40.833 -11 -61.5 -11s-41.167 3.66699 -61.5 11s-38.5 18.333 -54.5 33c-16.667 14 -30 31.667 -40 53s-15 47 -15 77v376zM144 168c0 -24.667 6.83301 -42.834 20.5 -54.501s29.834 -17.5 48.501 -17.5
s34.834 5.83301 48.501 17.5s20.5 29.834 20.5 54.501v376c0 24.667 -6.83301 42.834 -20.5 54.501s-29.834 17.5 -48.501 17.5s-34.834 -5.83301 -48.501 -17.5s-20.5 -29.834 -20.5 -54.501v-376z" />
    <glyph glyph-name="P" unicode="P" horiz-adv-x="407" 
d="M48 0l0.000976562 712h153c28 0 52.667 -3.66699 74 -11s40.666 -20.333 57.999 -39s29.333 -40.5 36 -65.5s10 -58.833 10 -101.5c0 -32 -1.83301 -59 -5.5 -81s-11.5 -42.667 -23.5 -62c-14 -23.333 -32.667 -41.5 -56 -54.5s-54 -19.5 -92 -19.5h-52v-278h-102z
M150.001 616l0.000976562 -242h49c20.667 0 36.667 3 48 9s19.666 14.333 24.999 25c5.33301 10 8.5 22.333 9.5 37s1.5 31 1.5 49c0 16.667 -0.333008 32.5 -1 47.5s-3.66699 28.167 -9 39.5s-13.333 20 -24 26s-26 9 -46 9h-53z" />
    <glyph glyph-name="Q" unicode="Q" horiz-adv-x="426" 
d="M144 168c0 -24.667 6.83496 -42.833 20.502 -54.5s29.834 -17.5 48.501 -17.5c9.33301 0 16.666 1.33301 21.999 4l-46 37l52 62l41 -33v2v376c0 24.667 -6.83301 42.834 -20.5 54.501s-29.834 17.5 -48.501 17.5s-34.834 -5.83301 -48.501 -17.5
s-20.5 -29.834 -20.5 -54.501v-376zM42.002 544.001c0 28.667 5.00098 54 15.001 76s23.333 40.333 40 55c16 14 34.167 24.667 54.5 32s40.833 11 61.5 11s41.167 -3.66699 61.5 -11s38.833 -18 55.5 -32c16 -14.667 29 -33 39 -55s15 -47.333 15 -76v-376
c0 -28 -5 -52.333 -15 -73l63 -51l-52 -62l-60 49c-30.667 -24.667 -66.334 -37 -107.001 -37c-20.667 0 -41.167 3.66699 -61.5 11s-38.5 18.333 -54.5 33c-16.667 14 -30 31.667 -40 53s-15 47 -15 77v376z" />
    <glyph glyph-name="R" unicode="R" horiz-adv-x="426" 
d="M150 616v-222h58c18 0 32.333 2.5 43 7.5s19 12.167 25 21.5c5.33301 9.33301 9 20.833 11 34.5s3 29.5 3 47.5s-1 33.833 -3 47.5s-6 25.5 -12 35.5c-12.667 18.667 -36.667 28 -72 28h-53zM48 0v712h164c120 0 180 -69.667 180 -209c0 -42 -6.5 -77.667 -19.5 -107
s-35.833 -53 -68.5 -71l110 -325h-108l-95 304h-61v-304h-102z" />
    <glyph glyph-name="S" unicode="S" horiz-adv-x="406" 
d="M378 507l-101.998 -0.000976562v23c0 23.333 -5.5 43.5 -16.5 60.5s-29.5 25.5 -55.5 25.5c-14 0 -25.333 -2.66699 -34 -8s-15.667 -12 -21 -20c-5.33301 -8.66699 -9 -18.5 -11 -29.5s-3 -22.5 -3 -34.5c0 -14 0.5 -25.667 1.5 -35s3.5 -17.666 7.5 -24.999
s9.83301 -13.666 17.5 -18.999s18.167 -10.666 31.5 -15.999l78 -31c22.667 -8.66699 41 -18.834 55 -30.501s25 -25.167 33 -40.5c7.33301 -16 12.333 -34.167 15 -54.5s4 -43.5 4 -69.5c0 -30 -3 -57.833 -9 -83.5s-15.667 -47.5 -29 -65.5
c-14 -18.667 -32.333 -33.334 -55 -44.001s-50.334 -16 -83.001 -16c-24.667 0 -47.667 4.33301 -69 13s-39.666 20.667 -54.999 36s-27.5 33.166 -36.5 53.499s-13.5 42.5 -13.5 66.5v38h102v-32c0 -18.667 5.5 -35.5 16.5 -50.5s29.5 -22.5 55.5 -22.5
c17.333 0 30.833 2.5 40.5 7.5s17.167 12.167 22.5 21.5s8.5 20.5 9.5 33.5s1.5 27.5 1.5 43.5c0 18.667 -0.666992 34 -2 46s-4 21.667 -8 29c-4.66699 7.33301 -10.834 13.333 -18.501 18s-17.834 9.66699 -30.501 15l-73 30c-44 18 -73.5 41.833 -88.5 71.5
s-22.5 66.834 -22.5 111.501c0 26.667 3.66699 52 11 76s18.333 44.667 33 62c14 17.333 31.833 31.166 53.5 41.499s47.5 15.5 77.5 15.5c25.333 0 48.5 -4.66699 69.5 -14s39.167 -21.666 54.5 -36.999c30.667 -32 46 -68.667 46 -110v-50z" />
    <glyph glyph-name="T" unicode="T" horiz-adv-x="332" 
d="M115 0v616h-118v96h338v-96h-118v-616h-102z" />
    <glyph glyph-name="U" unicode="U" horiz-adv-x="426" 
d="M378 712v-552c0 -23.333 -4.16699 -44.833 -12.5 -64.5s-20.166 -37.167 -35.499 -52.5s-33 -27.333 -53 -36s-41.333 -13 -64 -13s-43.834 4.33301 -63.501 13s-37.167 20.667 -52.5 36s-27.333 32.833 -36 52.5s-13 41.167 -13 64.5v552h102v-542
c0 -25.333 6 -44 18 -56s27 -18 45 -18s33 6 45 18s18 30.667 18 56v542h102z" />
    <glyph glyph-name="V" unicode="V" horiz-adv-x="407" 
d="M394 712l-146 -712h-90l-145 712h108l81 -497h2l82 497h108z" />
    <glyph glyph-name="W" unicode="W" horiz-adv-x="593" 
d="M577 712l-106 -712h-96l-78 462h-2l-77 -462h-96l-106 712h108l51 -452h2l80 452h78l83 -463h2l49 463h108z" />
    <glyph glyph-name="X" unicode="X" horiz-adv-x="389" 
d="M-2 0l144 373l-133 339h108l77 -211l78 211h108l-136 -339l147 -373h-108l-89 240l-88 -240h-108z" />
    <glyph glyph-name="Y" unicode="Y" horiz-adv-x="388" 
d="M143 0v301l-140 411h108l82 -283h2l82 283h108l-140 -411v-301h-102z" />
    <glyph glyph-name="Z" unicode="Z" horiz-adv-x="333" 
d="M15 0v90l192 526h-182v96h293v-81l-196 -535h196v-96h-303z" />
    <glyph glyph-name="bracketleft" unicode="[" horiz-adv-x="222" 
d="M214 712v-60h-66v-692h66v-60h-156v812h156z" />
    <glyph glyph-name="backslash" unicode="\" horiz-adv-x="222" 
d="M85 718l132 -724h-80l-132 724h80z" />
    <glyph glyph-name="bracketright" unicode="]" horiz-adv-x="222" 
d="M8 -100v60h66v692h-66v60h156v-812h-156z" />
    <glyph glyph-name="asciicircum" unicode="^" horiz-adv-x="600" 
d="M50 283l217 429h66l217 -429h-80l-170 339l-170 -339h-80z" />
    <glyph glyph-name="underscore" unicode="_" horiz-adv-x="500" 
d="M0 -125v50h500v-50h-500z" />
    <glyph glyph-name="grave" unicode="`" horiz-adv-x="186" 
d="M68 715l90 -141h-66l-132 141h108z" />
    <glyph glyph-name="a" unicode="a" 
d="M235 0l-0.00195312 52h-2c-13.333 -18.667 -26.833 -33 -40.5 -43s-32.834 -15 -57.501 -15c-12 0 -24.167 1.83301 -36.5 5.5s-24.166 10.5 -35.499 20.5c-11.333 9.33301 -20.5 22.833 -27.5 40.5s-10.5 40.5 -10.5 68.5c0 28.667 2.33301 53.834 7 75.501
s13.334 39.834 26.001 54.501c12 14 28.333 24.5 49 31.5s47 10.5 79 10.5h11c4 0 7.66699 -0.333008 11 -1s7.33301 -1 12 -1s9.66699 -0.333008 15 -1v53c0 17.333 -3.66699 31.666 -11 42.999s-20.666 17 -39.999 17c-13.333 0 -25.5 -4.33301 -36.5 -13
s-18.167 -21.334 -21.5 -38.001h-99c2.66699 45.333 18 82 46 110c13.333 13.333 29.333 23.833 48 31.5s39.667 11.5 63 11.5c21.333 0 41.333 -3.33301 60 -10s35 -16.667 49 -30c13.333 -13.333 24 -30 32 -50s12 -43.333 12 -70v-353h-102zM234.998 218
c-11.333 2 -20.667 2.99902 -28 2.99902c-22 0 -40.833 -5.16699 -56.5 -15.5s-23.5 -29.166 -23.5 -56.499c0 -19.333 4.66699 -35 14 -47s22.333 -18 39 -18c17.333 0 30.833 5.66699 40.5 17s14.5 27.333 14.5 48v69z" />
    <glyph glyph-name="b" unicode="b" horiz-adv-x="389" 
d="M42 0l-0.00292969 712h102v-251h2c11.333 16.667 24.833 29.5 40.5 38.5s33.5 13.5 53.5 13.5c24.667 0 43.834 -4.33301 57.501 -13s24.834 -19.667 33.501 -33c6.66699 -10.667 11 -24.667 13 -42s3 -44.333 3 -81v-193c0 -28 -1.33301 -50.333 -4 -67
s-7 -30.667 -13 -42c-17.333 -32 -47 -48 -89 -48c-25.333 0 -44.666 5 -57.999 15s-26.333 22.333 -39 37v-46h-102zM244.997 351c0 16 -3.49805 30 -10.498 42s-20.167 18 -39.5 18c-14.667 0 -26.834 -5.16699 -36.501 -15.5s-14.5 -23.5 -14.5 -39.5v-197
c0 -18.667 4.66699 -33.834 14 -45.501s21.666 -17.5 36.999 -17.5c17.333 0 30 6.33301 38 19s12 29.334 12 50.001v186z" />
    <glyph glyph-name="c" unicode="c" 
d="M150 146c0 -16 4.50195 -28.3311 13.502 -36.998s21.167 -13 36.5 -13c19.333 0 32.166 5.66699 38.499 17s10.166 22.666 11.499 33.999h102c0 -44.667 -13.667 -80.667 -41 -108c-13.333 -14 -29.333 -25 -48 -33s-39.667 -12 -63 -12c-32 0 -59.167 6.66699 -81.5 20
s-39.5 31 -51.5 53c-7.33301 13.333 -12.333 28.666 -15 45.999s-4 36.333 -4 57v167c0 20.667 1.33301 39.667 4 57s7.66699 32.666 15 45.999c12 22 29.167 39.667 51.5 53s49.5 20 81.5 20c23.333 0 44.5 -4 63.5 -12s35.167 -19 48.5 -33c26.667 -30 40 -69 40 -117
h-102c0 20.667 -4.5 35.834 -13.5 45.501s-21.167 14.5 -36.5 14.5s-27.5 -4.83301 -36.5 -14.5s-13.5 -24.167 -13.5 -43.5v-207z" />
    <glyph glyph-name="d" unicode="d" horiz-adv-x="389" 
d="M144 165c0 -20.667 4.00195 -37.334 12.002 -50.001s20.667 -19 38 -19c15.333 0 27.666 5.83301 36.999 17.5s14 26.834 14 45.501v197c0 16 -4.83301 29.167 -14.5 39.5s-21.834 15.5 -36.501 15.5c-19.333 0 -32.5 -6 -39.5 -18s-10.5 -26 -10.5 -42v-186zM245.002 0
v46.001l-19 -20.5c-6 -6.33301 -12.667 -11.833 -20 -16.5s-15.666 -8.33398 -24.999 -11.001s-20.333 -4 -33 -4c-42.667 0 -72.334 16 -89.001 48c-6 11.333 -10.333 25.333 -13 42s-4 39 -4 67v193c0 36.667 1 63.667 3 81c4 33.333 19.667 58.333 47 75
c12.667 8.66699 31.667 13 57 13c20 0 37.833 -4.5 53.5 -13.5s29.167 -21.833 40.5 -38.5h2v251h102v-712h-102z" />
    <glyph glyph-name="e" unicode="e" 
d="M337 215l-201.998 0.00292969v-69c0 -16 4.5 -28.333 13.5 -37s21.167 -13 36.5 -13c19.333 0 32.166 5.66699 38.499 17s10.166 22.666 11.499 33.999h102c0 -44.667 -13.667 -80.667 -41 -108c-13.333 -14 -29.333 -25 -48 -33s-39.667 -12 -63 -12
c-32 0 -59.167 6.66699 -81.5 20s-39.5 31 -51.5 53c-7.33301 13.333 -12.333 28.666 -15 45.999s-4 36.333 -4 57v167c0 20.667 1.33301 39.667 4 57s7.66699 32.666 15 45.999c12 22 29.167 39.667 51.5 53s49.5 20 81.5 20c23.333 0 44.5 -4 63.5 -12
s35.167 -19 48.5 -33c26.667 -30 40 -67.667 40 -113v-140zM135.002 295.003h100v58c0 19.333 -4.5 33.833 -13.5 43.5s-21.167 14.5 -36.5 14.5s-27.5 -4.83301 -36.5 -14.5s-13.5 -24.167 -13.5 -43.5v-58z" />
    <glyph glyph-name="f" unicode="f" horiz-adv-x="222" 
d="M55 0l-0.000976562 427h-50v80h50v69c0 24.667 3.66699 45.5 11 62.5s17.333 31.167 30 42.5c12 11.333 25.833 19.333 41.5 24s31.834 7 48.501 7h47v-96h-46c-20 0 -30 -11.667 -30 -35v-74h76v-80h-76v-427h-102z" />
    <glyph glyph-name="g" unicode="g" horiz-adv-x="389" 
d="M144 -59c0.666992 -12 5.50195 -23.332 14.502 -33.999s22.167 -16 39.5 -16c16.667 0 28.667 5.16699 36 15.5s11 23.5 11 39.5v100h-2c-11.333 -16.667 -24.833 -29.5 -40.5 -38.5s-33.834 -13.5 -54.501 -13.5c-42.667 0 -72.334 16 -89.001 48
c-6 11.333 -10.333 25.333 -13 42s-4 39 -4 67v193c0 36.667 1 63.667 3 81c4 33.333 19.667 58.333 47 75c12.667 8.66699 31.667 13 57 13c12.667 0 23.5 -1.33301 32.5 -4s17.167 -6.33398 24.5 -11.001s14 -10.167 20 -16.5l19 -20.5v46h102v-569
c0 -17.333 -2.83301 -34.833 -8.5 -52.5s-14.834 -33.5 -27.501 -47.5c-12.667 -14.667 -28.667 -26.5 -48 -35.5s-42.333 -13.5 -69 -13.5c-15.333 0 -31.333 2.5 -48 7.5s-32 13.5 -46 25.5c-14.667 11.333 -27.167 26.5 -37.5 45.5s-17.166 43.5 -20.499 73.5h102z
M144.002 156.001c0 -16 3.49805 -30 10.498 -42s20.167 -18 39.5 -18c14.667 0 26.834 5.16699 36.501 15.5s14.5 23.5 14.5 39.5v197c0 18.667 -4.66699 33.834 -14 45.501s-21.666 17.5 -36.999 17.5c-17.333 0 -30 -6.33301 -38 -19s-12 -29.334 -12 -50.001v-186z" />
    <glyph glyph-name="h" unicode="h" horiz-adv-x="389" 
d="M42 0l-0.00195312 712h102v-254h2c10.667 16 23.5 29.167 38.5 39.5s34.167 15.5 57.5 15.5c12.667 0 25.334 -2.16699 38.001 -6.5s24 -11.5 34 -21.5s18 -22.833 24 -38.5s9 -34.834 9 -57.501v-389h-102v351c0 18.667 -4.33301 33.334 -13 44.001s-21 16 -37 16
c-19.333 0 -32.666 -6 -39.999 -18s-11 -29.333 -11 -52v-341h-102z" />
    <glyph glyph-name="i" unicode="i" horiz-adv-x="186" 
d="M42 0v507h102v-507h-102zM42 610v102h102v-102h-102z" />
    <glyph glyph-name="j" unicode="j" horiz-adv-x="186" 
d="M42 507l102 -0.000976562v-561c0 -50 -15.667 -87.667 -47 -113s-71 -38 -119 -38v96c24.667 0 41.667 6.33301 51 19c5.33301 7.33301 8.83301 16.833 10.5 28.5s2.5 26.834 2.5 45.501v523zM42 609.999v102h102v-102h-102z" />
    <glyph glyph-name="k" unicode="k" horiz-adv-x="389" 
d="M42 0v712h102v-426h2l123 221h102l-121 -206l146 -301h-111l-92 219l-49 -77v-142h-102z" />
    <glyph glyph-name="l" unicode="l" horiz-adv-x="186" 
d="M36 712l102 -0.000976562v-569c0 -19.333 3.5 -32.5 10.5 -39.5s20.167 -11.5 39.5 -13.5v-96c-23.333 0 -44.333 1.83301 -63 5.5s-34.667 10.834 -48 21.501c-13.333 10 -23.5 24.167 -30.5 42.5s-10.5 42.5 -10.5 72.5v576z" />
    <glyph glyph-name="m" unicode="m" horiz-adv-x="592" 
d="M42 0l-0.00195312 507h102v-49h2c10.667 16 23.5 29.167 38.5 39.5s34.167 15.5 57.5 15.5c22 0 40.333 -5.33301 55 -16s26.667 -22.334 36 -35.001c12.667 14 26.667 26 42 36s36.666 15 63.999 15c12.667 0 25.667 -2.16699 39 -6.5s25.333 -11.5 36 -21.5
s19.334 -22.833 26.001 -38.5s10 -34.834 10 -57.501v-389h-102v351c0 18.667 -4.33301 33.334 -13 44.001s-21 16 -37 16c-19.333 0 -32.666 -6 -39.999 -18s-11 -29.333 -11 -52v-341h-102v351c0 18.667 -4.33301 33.334 -13 44.001s-21 16 -37 16
c-19.333 0 -32.666 -6 -39.999 -18s-11 -29.333 -11 -52v-341h-102z" />
    <glyph glyph-name="n" unicode="n" horiz-adv-x="389" 
d="M42 0l-0.00195312 507h102v-49h2c10.667 16 23.5 29.167 38.5 39.5s34.167 15.5 57.5 15.5c12.667 0 25.334 -2.16699 38.001 -6.5s24 -11.5 34 -21.5s18 -22.833 24 -38.5s9 -34.834 9 -57.501v-389h-102v351c0 18.667 -4.33301 33.334 -13 44.001s-21 16 -37 16
c-19.333 0 -32.666 -6 -39.999 -18s-11 -29.333 -11 -52v-341h-102z" />
    <glyph glyph-name="o" unicode="o" 
d="M33 337c0 20.667 1.33301 39.667 4 57s7.66699 32.666 15 45.999c12 22 29.167 39.667 51.5 53s49.5 20 81.5 20s59.167 -6.66699 81.5 -20s39.5 -31 51.5 -53c7.33301 -13.333 12.333 -28.666 15 -45.999s4 -36.333 4 -57v-167c0 -20.667 -1.33301 -39.667 -4 -57
s-7.66699 -32.666 -15 -45.999c-12 -22 -29.167 -39.667 -51.5 -53s-49.5 -20 -81.5 -20s-59.167 6.66699 -81.5 20s-39.5 31 -51.5 53c-7.33301 13.333 -12.333 28.666 -15 45.999s-4 36.333 -4 57v167zM135 154c0 -19.333 4.5 -33.833 13.5 -43.5s21.167 -14.5 36.5 -14.5
s27.5 4.83301 36.5 14.5s13.5 24.167 13.5 43.5v199c0 19.333 -4.5 33.833 -13.5 43.5s-21.167 14.5 -36.5 14.5s-27.5 -4.83301 -36.5 -14.5s-13.5 -24.167 -13.5 -43.5v-199z" />
    <glyph glyph-name="p" unicode="p" horiz-adv-x="389" 
d="M42 -205v712h102v-46c12.667 14.667 25.667 27 39 37s32.666 15 57.999 15c42 0 71.667 -16 89 -48c6 -11.333 10.333 -25.333 13 -42s4 -39 4 -67v-193c0 -37.333 -1 -64.333 -3 -81c-4 -33.333 -19.333 -58.333 -46 -75c-13.333 -8.66699 -32.666 -13 -57.999 -13
c-20 0 -37.833 4.5 -53.5 13.5s-29.167 21.833 -40.5 38.5h-2v-251h-102zM245 342c0 20.667 -4.00195 37.334 -12.002 50.001s-20.667 19 -38 19c-15.333 0 -27.666 -5.83301 -36.999 -17.5s-14 -26.834 -14 -45.501v-197c0 -16 4.83301 -29.167 14.5 -39.5
s21.834 -15.5 36.501 -15.5c19.333 0 32.5 6 39.5 18s10.5 26 10.5 42v186z" />
    <glyph glyph-name="q" unicode="q" horiz-adv-x="389" 
d="M245 -205l0.00195312 251.001h-2c-11.333 -16.667 -24.833 -29.5 -40.5 -38.5s-33.5 -13.5 -53.5 -13.5c-24.667 0 -43.834 4.33301 -57.501 13s-24.834 19.667 -33.501 33c-6.66699 10.667 -11 24.667 -13 42c-2 16.667 -3 43.667 -3 81v193c0 28 1.33301 50.333 4 67
s7 30.667 13 42c16.667 32 46.334 48 89.001 48c12.667 0 23.667 -1.33301 33 -4s17.666 -6.33398 24.999 -11.001s14 -10.167 20 -16.5l19 -20.5v46h102v-712h-102zM144.002 156.001c0 -16 3.49805 -30 10.498 -42s20.167 -18 39.5 -18
c14.667 0 26.834 5.16699 36.501 15.5s14.5 23.5 14.5 39.5v197c0 18.667 -4.66699 33.834 -14 45.501s-21.666 17.5 -36.999 17.5c-17.333 0 -30 -6.33301 -38 -19s-12 -29.334 -12 -50.001v-186z" />
    <glyph glyph-name="r" unicode="r" horiz-adv-x="278" 
d="M42 0l0.000976562 507h102v-54c20.667 18.667 41 33.334 61 44.001s44.667 16 74 16v-108c-10 4 -20.333 6 -31 6s-22.167 -1.83301 -34.5 -5.5s-23.5 -9.83398 -33.5 -18.501c-10.667 -8.66699 -19.334 -20 -26.001 -34s-10 -31.333 -10 -52v-301h-102z" />
    <glyph glyph-name="s" unicode="s" horiz-adv-x="352" 
d="M227 365c-0.666992 17.333 -6.1709 30.3311 -16.5039 38.998s-22.166 13 -35.499 13c-16 0 -28.333 -5.16699 -37 -15.5s-13 -22.166 -13 -35.499c0 -9.33301 2.33301 -18.5 7 -27.5s16.667 -17.167 36 -24.5l60 -24c38 -14.667 64.167 -34.667 78.5 -60
s21.5 -53 21.5 -83c0 -21.333 -3.83301 -41.166 -11.5 -59.499s-18.167 -34.5 -31.5 -48.5s-29.333 -25 -48 -33s-39 -12 -61 -12c-41.333 0 -76 13 -104 39c-14 12.667 -25.333 28.5 -34 47.5s-13.334 41.167 -14.001 66.5h96c2 -14 6.83301 -27 14.5 -39
s21.167 -18 40.5 -18c14.667 0 27.834 4.83301 39.501 14.5s17.5 23.167 17.5 40.5c0 14 -3.66699 26 -11 36s-20.666 18.667 -39.999 26l-49 18c-32 12 -57.167 29.833 -75.5 53.5s-27.5 52.5 -27.5 86.5c0 21.333 4 41.166 12 59.499s19 34.166 33 47.499
c13.333 13.333 29 23.5 47 30.5s37.333 10.5 58 10.5s39.834 -3.66699 57.501 -11s32.834 -17.666 45.501 -30.999s22.667 -29.166 30 -47.499s11 -37.833 11 -58.5h-96z" />
    <glyph glyph-name="t" unicode="t" horiz-adv-x="204" 
d="M42 507v154.003h102v-154h63v-80h-63v-281c0 -12 1.16699 -21.333 3.5 -28s6.16602 -11.667 11.499 -15s11.833 -5.33301 19.5 -6s17.167 -1 28.5 -1v-96h-42c-23.333 0 -42.833 3.66699 -58.5 11s-28.167 16.666 -37.5 27.999s-16.166 24.166 -20.499 38.499
s-6.5 28.166 -6.5 41.499v308h-51v80h51z" />
    <glyph glyph-name="u" unicode="u" horiz-adv-x="389" 
d="M347 507l0.00195312 -507h-102v49h-2c-10.667 -16 -23.5 -29.167 -38.5 -39.5s-34.167 -15.5 -57.5 -15.5c-12.667 0 -25.334 2.16699 -38.001 6.5s-24 11.5 -34 21.5s-18 22.833 -24 38.5s-9 34.834 -9 57.501v389h102v-351c0 -18.667 4.33301 -33.334 13 -44.001
s21 -16 37 -16c19.333 0 32.666 6 39.999 18s11 29.333 11 52v341h102z" />
    <glyph glyph-name="v" unicode="v" horiz-adv-x="352" 
d="M353 507l-132 -507h-90l-132 507h108l68 -324h2l68 324h108z" />
    <glyph glyph-name="w" unicode="w" horiz-adv-x="536" 
d="M535 507l-120 -507h-90l-56 301h-2l-56 -301h-90l-120 507h108l62 -315h2l57 315h80l54 -315h2l61 315h108z" />
    <glyph glyph-name="x" unicode="x" horiz-adv-x="332" 
d="M-11 0l125 259l-119 248h108l63 -144l63 144h108l-121 -248l127 -259h-108l-69 155l-69 -155h-108z" />
    <glyph glyph-name="y" unicode="y" horiz-adv-x="352" 
d="M-1 507l108 0.000976562l70 -316h2l69 316h105l-146 -595c-5.33301 -22.667 -12.833 -41.334 -22.5 -56.001s-20.834 -26.667 -33.501 -36s-26.167 -15.833 -40.5 -19.5s-29.166 -5.5 -44.499 -5.5h-28v96h23c10 0 18.667 1.33301 26 4s14 8.66699 20 18
c5.33301 9.33301 10.333 22.5 15 39.5s10 40.5 16 70.5z" />
    <glyph glyph-name="z" unicode="z" horiz-adv-x="315" 
d="M17 0v81l165 336h-152v90h268v-81l-165 -330h165v-96h-281z" />
    <glyph glyph-name="braceleft" unicode="{" horiz-adv-x="222" 
d="M3 337c18.667 0 34 10.5 46 31.5s18 47.833 18 80.5v152c0 36 9.66699 63.5 29 82.5s42.333 28.5 69 28.5h54v-60h-18c-16 0 -27.333 -5.83301 -34 -17.5s-10 -27.834 -10 -48.501v-151c0 -22 -2.33301 -40.833 -7 -56.5s-10.334 -28.5 -17.001 -38.5
s-14.167 -17.667 -22.5 -23s-15.833 -8.66602 -22.5 -9.99902v-2c6.66699 -1.33301 14.167 -4.5 22.5 -9.5s15.833 -12.5 22.5 -22.5s12.334 -23 17.001 -39s7 -35.333 7 -58v-149c0 -21.333 3.33301 -37.833 10 -49.5s18 -17.5 34 -17.5h18v-60h-54
c-26.667 0 -49.667 9.5 -69 28.5s-29 46.5 -29 82.5v151c0 34 -6 61.667 -18 83s-27.333 32 -46 32v60z" />
    <glyph glyph-name="bar" unicode="|" horiz-adv-x="222" 
d="M71 -250v1000h80v-1000h-80z" />
    <glyph glyph-name="braceright" unicode="}" horiz-adv-x="222" 
d="M219 277c-18.667 0 -34 -10.667 -46 -32s-18 -49 -18 -83v-151c0 -36 -9.66699 -63.5 -29 -82.5s-42.333 -28.5 -69 -28.5h-54v60h18c16 0 27.333 5.83301 34 17.5s10 28.167 10 49.5v149c0 22.667 2.33301 42 7 58s10.334 29 17.001 39s14 17.5 22 22.5
s15.667 8.16699 23 9.5v2c-7.33301 1.33301 -15 4.66602 -23 9.99902s-15.333 13 -22 23s-12.334 22.833 -17.001 38.5s-7 34.5 -7 56.5v151c0 20.667 -3.33301 36.834 -10 48.501s-18 17.5 -34 17.5h-18v60h54c26.667 0 49.667 -9.5 69 -28.5s29 -46.5 29 -82.5v-152
c0 -32.667 6 -59.5 18 -80.5s27.333 -31.5 46 -31.5v-60z" />
    <glyph glyph-name="asciitilde" unicode="~" horiz-adv-x="600" 
d="M531 265c-5.33301 -10.667 -11.8311 -21.167 -19.498 -31.5s-16.5 -19.5 -26.5 -27.5c-10 -8.66699 -21.5 -15.5 -34.5 -20.5s-27.833 -7.5 -44.5 -7.5c-17.333 0 -35.333 3.16699 -54 9.5s-37.667 14.166 -57 23.499l-27.5 12l-27.5 12c-18 8 -33.667 12 -47 12
c-10 0 -19 -2.16699 -27 -6.5s-15.667 -9.83301 -23 -16.5s-14 -14.167 -20 -22.5l-18 -25.5l-36 64c5.33301 10.667 11.833 21.167 19.5 31.5s16.5 19.833 26.5 28.5c10 8 21.5 14.5 34.5 19.5s27.833 7.5 44.5 7.5c17.333 0 35.333 -3.16699 54 -9.5
s37.667 -14.166 57 -23.499l27.5 -12l27.5 -12c18 -8 33.667 -12 47 -12c10 0 19.167 2.16699 27.5 6.5s16.166 9.83301 23.499 16.5c7.33301 7.33301 13.666 15 18.999 23l9 13l9 13z" />
    <glyph glyph-name="uni00A0" unicode="&#xa0;" horiz-adv-x="186" 
 />
    <glyph glyph-name="exclamdown" unicode="&#xa1;" horiz-adv-x="240" 
d="M56 -205l39 536h50l39 -536h-128zM69 405v102h102v-102h-102z" />
    <glyph glyph-name="cent" unicode="&#xa2;" horiz-adv-x="372" 
d="M164 411c-8 -2.66699 -14.667 -8.83301 -20 -18.5s-8 -21.5 -8 -35.5v-215c0 -24 9.33301 -39.333 28 -46v315zM164 -89.999l-0.00195312 83.999c-25.333 2 -47.5 9.33301 -66.5 22s-33.833 28.667 -44.5 48c-7.33301 13.333 -12.333 28.666 -15 45.999s-4 36.333 -4 57
v172c0 20.667 1.33301 39.667 4 57s7.66699 32.666 15 45.999c10.667 19.333 25.5 35.333 44.5 48s41.167 20.334 66.5 23.001v75h41v-75c42 -3.33301 74.667 -19.666 98 -48.999s35 -67 35 -113h-102c0 17.333 -2.66699 30.833 -8 40.5s-13 16.167 -23 19.5v-315
c11.333 4 19 10.833 23 20.5s6.66699 19.834 8 30.501h102c0 -22 -3.5 -42.5 -10.5 -61.5s-17.167 -35.167 -30.5 -48.5c-11.333 -12 -24.666 -21.833 -39.999 -29.5s-32.666 -12.167 -51.999 -13.5v-84h-41z" />
    <glyph glyph-name="sterling" unicode="&#xa3;" horiz-adv-x="372" 
d="M13 298l0.000976562 70.998h55c-12.667 23.333 -22.167 46 -28.5 68s-9.5 50 -9.5 84c0 26 3 51 9 75s15.667 45 29 63s30.166 32.333 50.499 43s44.833 16 73.5 16c16.667 0 33.667 -3.16699 51 -9.5s33.333 -16.166 48 -29.499c14 -13.333 25.667 -30.166 35 -50.499
s14 -44.833 14 -73.5v-45h-96v40c0 18 -3.83301 34.5 -11.5 49.5s-22.167 22.5 -43.5 22.5c-23.333 0 -39.666 -10 -48.999 -30s-14 -44 -14 -72c0 -26 3.33301 -52.333 10 -79s14 -50.667 22 -72h116v-71h-93c4.66699 -12.667 8.83398 -25.167 12.501 -37.5
s5.5 -29.166 5.5 -50.499c0 -20 -3 -39 -9 -57s-13.667 -35.333 -23 -52c10.667 -1.33301 23.667 -3.33301 39 -6c7.33301 -1.33301 14.5 -2.5 21.5 -3.5s14.167 -1.5 21.5 -1.5c11.333 0 22.166 1.66699 32.499 5s21.5 12.333 33.5 27l68 -69
c-15.333 -21.333 -31.833 -36.5 -49.5 -45.5s-38.167 -13.5 -61.5 -13.5c-9.33301 0 -21.333 1 -36 3s-30 4.33301 -46 7l-47.5 6c-15.667 2 -29.167 3 -40.5 3c-14.667 0 -29.834 -1.83301 -45.501 -5.5s-26.834 -7.16699 -33.501 -10.5v86
c5.33301 3.33301 14.5 7.16602 27.5 11.499s25.167 7.16602 36.5 8.49902c8.66699 12.667 15.334 26.5 20.001 41.5s7 30.167 7 45.5c0 14.667 -2 31.834 -6 51.501s-9.66699 38.5 -17 56.5h-78z" />
    <glyph glyph-name="currency" unicode="&#xa4;" horiz-adv-x="372" 
d="M4 214l42 41.999c-10.667 11.333 -19.167 25.833 -25.5 43.5s-9.5 36.5 -9.5 56.5s3 38.833 9 56.5s14.333 32.167 25 43.5l-41 42l41 41l41 -42c11.333 10 25.833 18.167 43.5 24.5s36.5 9.5 56.5 9.5s38.833 -3 56.5 -9s32.5 -14.333 44.5 -25l41 42l40 -41l-41 -41
c10.667 -12 19 -26.833 25 -44.5s9 -36.5 9 -56.5c0 -20.667 -3.16699 -39.667 -9.5 -57s-14.5 -31.666 -24.5 -42.999l41 -41l-41 -41l-41 41c-11.333 -10.667 -25.833 -19 -43.5 -25s-36.5 -9 -56.5 -9s-38.833 3.16699 -56.5 9.5s-32.167 14.833 -43.5 25.5l-41 -42z
M77 355.999c0 -30 10.667 -55.667 32 -77c10 -10 21.5 -17.833 34.5 -23.5s27.167 -8.5 42.5 -8.5c14.667 0 28.667 2.83301 42 8.5s25 13.5 35 23.5c21.333 21.333 32 47 32 77c0 14.667 -2.83301 28.667 -8.5 42s-13.5 25 -23.5 35c-21.333 21.333 -47 32 -77 32
s-55.667 -10.667 -77 -32c-10 -10 -17.833 -21.667 -23.5 -35s-8.5 -27.333 -8.5 -42z" />
    <glyph glyph-name="yen" unicode="&#xa5;" horiz-adv-x="372" 
d="M138 0v172h-114v66h114v49h-114v66h98l-118 359h102l79 -283h2l79 283h102l-118 -359h98v-66h-114v-49h114v-66h-114v-172h-96z" />
    <glyph glyph-name="brokenbar" unicode="&#xa6;" horiz-adv-x="222" 
d="M71 -175v350h80v-350h-80zM71 325v350h80v-350h-80z" />
    <glyph glyph-name="section" unicode="&#xa7;" 
d="M325 535l-85 -0.00292969v42c0 15.333 -4.16699 29.333 -12.5 42s-20.833 19 -37.5 19c-21.333 0 -35.333 -7.16699 -42 -21.5s-10 -31.5 -10 -51.5c0 -12 0.333008 -21.833 1 -29.5s2.66699 -14.167 6 -19.5c3.33301 -6 8 -11.667 14 -17s14.667 -11.333 26 -18l97 -63
c12 -8 21.667 -15.833 29 -23.5s13 -17.167 17 -28.5c3.33301 -11.333 5.66602 -25.5 6.99902 -42.5s2 -38.5 2 -64.5c0 -24 -0.666992 -44.167 -2 -60.5s-5 -30.5 -11 -42.5s-14.833 -22.333 -26.5 -31s-27.5 -17.667 -47.5 -27c16.667 -8.66699 30 -17 40 -25
s17.667 -17.333 23 -28s8.66602 -23 9.99902 -37s2 -31 2 -51c0 -28 -1.66699 -50.333 -5 -67s-10 -32.334 -20 -47.001c-11.333 -16.667 -27.5 -29.834 -48.5 -39.501s-42.833 -14.5 -65.5 -14.5c-28 0 -50.833 4.66699 -68.5 14s-32.167 21.333 -43.5 36
c-11.333 14 -19.333 29.333 -24 46s-7 32.334 -7 47.001v42h85v-41c0 -17.333 5.16699 -32.333 15.5 -45s23.5 -19 39.5 -19c20.667 0 35.334 6.33301 44.001 19s13 32.334 13 59.001c0 12.667 -0.5 23 -1.5 31s-2.5 15 -4.5 21c-2.66699 5.33301 -6 10 -10 14
s-9.33301 8 -16 12l-118 72c-25.333 15.333 -41.333 34.666 -48 57.999c-4 12.667 -6.5 27.334 -7.5 44.001s-1.5 36.667 -1.5 60c0 28.667 1.33301 52.667 4 72s7.66699 35.333 15 48s16.666 22.834 27.999 30.501s26.333 14.5 45 20.5c-16.667 8 -29.5 16.333 -38.5 25
s-16.167 18.334 -21.5 29.001c-5.33301 10 -8.66602 21.5 -9.99902 34.5s-2 28.167 -2 45.5c0 26 3.66699 48.667 11 68s17.333 35.333 30 48c12 12.667 26.333 22.167 43 28.5s34.334 9.5 53.001 9.5c16.667 0 33 -2.83301 49 -8.5s30.333 -14.167 43 -25.5
s23 -25.666 31 -42.999s12 -37.333 12 -60v-46zM135 212.997c0 -14.667 4.83301 -27.167 14.5 -37.5s21.5 -15.5 35.5 -15.5c13.333 0 25 5.16699 35 15.5s15 22.833 15 37.5v99c0 14.667 -5 27.167 -15 37.5s-21.667 15.5 -35 15.5c-14 0 -25.833 -5.16699 -35.5 -15.5
s-14.5 -22.833 -14.5 -37.5v-99z" />
    <glyph glyph-name="dieresis" unicode="&#xa8;" horiz-adv-x="186" 
d="M-33 586v102h90v-102h-90zM129 586v102h90v-102h-90z" />
    <glyph glyph-name="dieresis" unicode="&#x301;" horiz-adv-x="186" 
d="M-33 586v102h90v-102h-90zM129 586v102h90v-102h-90z" />
    <glyph glyph-name="copyright" unicode="&#xa9;" horiz-adv-x="800" 
d="M590 287c-9.33301 -47.333 -29.999 -85.001 -61.999 -113.001c-32.667 -28.667 -71 -43 -115 -43c-32.667 0 -62.167 5.83301 -88.5 17.5s-48.833 27.834 -67.5 48.501c-18.667 20 -33 43.5 -43 70.5s-15 56.5 -15 88.5c0 32.667 4.83301 62.834 14.5 90.501
s23.5 51.5 41.5 71.5s39.833 35.667 65.5 47s55.5 17 89.5 17c46 0 85.667 -13 119 -39s53.666 -63.333 60.999 -112h-66c-4.66699 24 -17.667 44.333 -39 61c-21.333 16 -46 24 -74 24c-22 0 -41.667 -4.16699 -59 -12.5s-32 -19.5 -44 -33.5
c-24.667 -30 -37 -67.333 -37 -112c0 -42.667 13 -79.667 39 -111c12 -15.333 26.833 -27.5 44.5 -36.5s37.167 -13.5 58.5 -13.5c28.667 0 53.167 8.66699 73.5 26s32.833 38.666 37.5 63.999h66zM690.001 355.999c0 40.667 -7.66699 79 -23 115s-36 67.333 -62 94
s-56.667 47.834 -92 63.501s-73 23.5 -113 23.5s-77.667 -7.83301 -113 -23.5s-66 -36.834 -92 -63.501s-46.667 -58 -62 -94s-23 -74.333 -23 -115s7.66699 -79 23 -115s36 -67.333 62 -94s56.667 -47.834 92 -63.501s73 -23.5 113 -23.5s77.667 7.83301 113 23.5
s66 36.834 92 63.501s46.667 58 62 94s23 74.333 23 115zM38.001 355.999c0 50 9.5 97 28.5 141s44.833 82.333 77.5 115s71 58.5 115 77.5s91 28.5 141 28.5s97 -9.5 141 -28.5s82.333 -44.833 115 -77.5s58.5 -71 77.5 -115s28.5 -91 28.5 -141s-9.5 -97 -28.5 -141
s-44.833 -82.333 -77.5 -115s-71 -58.5 -115 -77.5s-91 -28.5 -141 -28.5s-97 9.5 -141 28.5s-82.333 44.833 -115 77.5s-58.5 71 -77.5 115s-28.5 91 -28.5 141z" />
    <glyph glyph-name="ordfeminine" unicode="&#xaa;" horiz-adv-x="240" 
d="M154 410v30.999h-2c-8.66699 -11.333 -17.334 -20 -26.001 -26s-21 -9 -37 -9c-8 0 -16.333 1 -25 3s-16.667 6 -24 12s-13.5 14.333 -18.5 25s-7.5 24.667 -7.5 42c0 34.667 7.66699 61 23 79s43.666 27 84.999 27c4.66699 0 9.33398 -0.166992 14.001 -0.5
s10.667 -0.833008 18 -1.5v24c0 10 -2.5 18.5 -7.5 25.5s-13.5 10.5 -25.5 10.5c-8.66699 0 -16.667 -2.16699 -24 -6.5s-11.666 -12.166 -12.999 -23.499h-66c2 30 12.167 53.5 30.5 70.5s42.5 25.5 72.5 25.5c29.333 0 54 -8 74 -24c9.33301 -8 16.833 -18 22.5 -30
s8.5 -26 8.5 -42v-212h-72zM154 540.999c-3.33301 0.666992 -6.49902 1.16699 -9.49902 1.5s-5.83301 0.5 -8.5 0.5c-14.667 0 -26.667 -3.16699 -36 -9.5s-14 -17.833 -14 -34.5c0 -19.333 10.667 -29 32 -29c11.333 0 20.166 3.33301 26.499 10s9.5 14.667 9.5 24v37z" />
    <glyph glyph-name="guillemotleft" unicode="&#xab;" horiz-adv-x="426" 
d="M398 479v-102l-101 -100l101 -100v-102l-203 202zM213 479v-102l-101 -100l101 -100v-102l-203 202z" />
    <glyph glyph-name="logicalnot" unicode="&#xac;" horiz-adv-x="600" 
d="M473 113v200h-426v80h506v-280h-80z" />
    <glyph glyph-name="uni00AD" unicode="&#xad;" horiz-adv-x="389" 
d="M44 226v102h301v-102h-301z" />
    <glyph glyph-name="registered" unicode="&#xae;" horiz-adv-x="800" 
d="M329 507v-119.001h75c32.667 0 57.167 4.83301 73.5 14.5s24.5 25.834 24.5 48.501c0 19.333 -7.16699 33.5 -21.5 42.5s-32.833 13.5 -55.5 13.5h-96zM263 144.999v422h160c96.667 0 145 -39.667 145 -119c0 -20 -2.83301 -37 -8.5 -51s-13.5 -25.667 -23.5 -35
s-21.5 -16.5 -34.5 -21.5s-26.833 -8.5 -41.5 -10.5l121 -185h-80l-121 183h-51v-183h-66zM690 355.999c0 40.667 -7.66699 79 -23 115s-36 67.333 -62 94s-56.667 47.834 -92 63.501s-73 23.5 -113 23.5s-77.667 -7.83301 -113 -23.5s-66 -36.834 -92 -63.501
s-46.667 -58 -62 -94s-23 -74.333 -23 -115s7.66699 -79 23 -115s36 -67.333 62 -94s56.667 -47.834 92 -63.501s73 -23.5 113 -23.5s77.667 7.83301 113 23.5s66 36.834 92 63.501s46.667 58 62 94s23 74.333 23 115zM38 355.999c0 50 9.5 97 28.5 141
s44.833 82.333 77.5 115s71 58.5 115 77.5s91 28.5 141 28.5s97 -9.5 141 -28.5s82.333 -44.833 115 -77.5s58.5 -71 77.5 -115s28.5 -91 28.5 -141s-9.5 -97 -28.5 -141s-44.833 -82.333 -77.5 -115s-71 -58.5 -115 -77.5s-91 -28.5 -141 -28.5s-97 9.5 -141 28.5
s-82.333 44.833 -115 77.5s-58.5 71 -77.5 115s-28.5 91 -28.5 141z" />
    <glyph glyph-name="macron" unicode="&#xaf;" horiz-adv-x="186" 
d="M-44 607v60h274v-60h-274z" />
    <glyph glyph-name="degree" unicode="&#xb0;" horiz-adv-x="260" 
d="M69 606c0 -17.333 5.83301 -31.833 17.5 -43.5s26.167 -17.5 43.5 -17.5s31.833 5.83301 43.5 17.5s17.5 26.167 17.5 43.5s-5.83301 31.833 -17.5 43.5s-26.167 17.5 -43.5 17.5s-31.833 -5.83301 -43.5 -17.5s-17.5 -26.167 -17.5 -43.5zM18 606
c0 15.333 3 29.833 9 43.5s14 25.5 24 35.5s21.833 18 35.5 24s28.167 9 43.5 9s29.833 -3 43.5 -9s25.5 -14 35.5 -24s18 -21.833 24 -35.5s9 -28.167 9 -43.5s-3 -29.833 -9 -43.5s-14 -25.5 -24 -35.5s-21.833 -18 -35.5 -24s-28.167 -9 -43.5 -9s-29.833 3 -43.5 9
s-25.5 14 -35.5 24s-18 21.833 -24 35.5s-9 28.167 -9 43.5z" />
    <glyph glyph-name="plusminus" unicode="&#xb1;" horiz-adv-x="600" 
d="M260 104v161h-213v80h213v161h80v-161h213v-80h-213v-161h-80zM47 0v80h506v-80h-506z" />
    <glyph glyph-name="two.superior" unicode="&#xb2;" horiz-adv-x="242" 
d="M11 584l0.00195312 36.001c0 28.667 10.667 52 32 70c10 8.66699 21.667 15.5 35 20.5s27.666 7.5 42.999 7.5c14.667 0 28.667 -2.33301 42 -7s25 -11 35 -19s18 -17.5 24 -28.5s9 -23.167 9 -36.5v-33c0 -17.333 -2 -31.333 -6 -42s-9.66699 -21.667 -17 -33l-95 -160
h118v-72h-220v54l128 212c3.33301 6 6.16602 12.167 8.49902 18.5s3.5 13.166 3.5 20.499v23c0 10 -3.33301 17.667 -10 23s-13.667 8 -21 8s-14 -2.66699 -20 -8s-9 -13 -9 -23v-31h-80z" />
    <glyph glyph-name="three.superior" unicode="&#xb3;" horiz-adv-x="242" 
d="M100 540c19.333 0 32.501 2.16602 39.501 6.49902s10.833 13.5 11.5 27.5v42c0 8.66699 -2.66699 15.834 -8 21.501s-12.666 8.5 -21.999 8.5c-10.667 0 -18.334 -3.5 -23.001 -10.5s-7 -13.5 -7 -19.5v-26h-80v32c0 28 10.167 51 30.5 69s47.5 27 81.5 27
c18.667 0 34.667 -2.83301 48 -8.5s24.666 -13.167 33.999 -22.5c9.33301 -10 16 -21 20 -33s6 -24 6 -36v-41c0 -14.667 -2.33301 -27.5 -7 -38.5s-16 -21.167 -34 -30.5c16 -9.33301 26.833 -19.666 32.5 -30.999s8.5 -25.333 8.5 -42v-51
c0 -12 -1.83301 -24.167 -5.5 -36.5s-10.167 -23.166 -19.5 -32.499s-21 -17 -35 -23s-30.667 -9 -50 -9c-13.333 0 -26.666 1.66699 -39.999 5s-25 8.66602 -35 15.999c-10.667 7.33301 -19.167 17 -25.5 29s-9.5 26.667 -9.5 44v34h80v-23c0 -10 2.66699 -18 8 -24
s12.666 -9 21.999 -9c8.66699 0 15.834 3.16699 21.501 9.5s8.5 13.166 8.5 20.499v52c0 15.333 -3.33301 25.333 -10 30s-20.334 7 -41.001 7v66z" />
    <glyph glyph-name="acute" unicode="&#xb4;" horiz-adv-x="186" 
d="M28 574l90 141h108l-132 -141h-66z" />
    <glyph glyph-name="acute" unicode="&#x308;" horiz-adv-x="186" 
d="M28 574l90 141h108l-132 -141h-66z" />
    <glyph glyph-name="uni00B5" unicode="&#xb5;" horiz-adv-x="389" 
d="M347 507l0.00195312 -506.999h-102v49h-2c-4.66699 -9.33301 -9.83398 -17.5 -15.501 -24.5s-11.167 -12.833 -16.5 -17.5c-10.667 -8.66699 -22 -13 -34 -13c-14 0 -24.333 3.33301 -31 10h-2v-209h-102v712h102v-351c0 -18.667 4.33301 -33.334 13 -44.001
s21 -16 37 -16c19.333 0 32.666 6 39.999 18s11 29.333 11 52v341h102z" />
    <glyph glyph-name="paragraph" unicode="&#xb6;" horiz-adv-x="444" 
d="M182 -205l0.000976562 538.998c-22 0 -43.333 4.83301 -64 14.5s-39 22.834 -55 39.501c-16.667 16.667 -30 36.334 -40 59.001s-15 47 -15 73c0 32.667 5.33301 61 16 85s25.667 44 45 60s42.166 27.833 68.499 35.5s55.833 11.5 88.5 11.5h172v-917h-72v866h-72v-866
h-72z" />
    <glyph glyph-name="periodcentered" unicode="&#xb7;" horiz-adv-x="186" 
d="M29 298c0 17.333 6.33301 32.333 19 45s27.667 19 45 19s32.333 -6.33301 45 -19s19 -27.667 19 -45s-6.33301 -32.333 -19 -45s-27.667 -19 -45 -19s-32.333 6.33301 -45 19s-19 27.667 -19 45z" />
    <glyph glyph-name="cedilla" unicode="&#xb8;" horiz-adv-x="186" 
d="M20 -86l64.9971 85.999h46l-46 -60c5.33301 0.666992 10.5 1.16699 15.5 1.5s10.167 0.5 15.5 0.5c16.667 0 30.334 -2.33301 41.001 -7s19.334 -10.667 26.001 -18c6.66699 -8 11.334 -16.333 14.001 -25s4 -17 4 -25c0 -16 -3.83301 -29.833 -11.5 -41.5
s-17.5 -21.167 -29.5 -28.5s-25.167 -12.666 -39.5 -15.999s-28.5 -5 -42.5 -5c-19.333 0 -37.333 2.33301 -54 7s-29.667 8.66699 -39 12l17 42c10.667 -4 21.334 -7.5 32.001 -10.5s21.667 -4.5 33 -4.5c5.33301 0 11.166 0.5 17.499 1.5s12.166 3.16699 17.499 6.5
c12.667 6.66699 19 17.667 19 33c0 11.333 -4.66699 20.5 -14 27.5s-19.666 10.5 -30.999 10.5c-14.667 0 -27.667 -2.33301 -39 -7z" />
    <glyph glyph-name="one.superior" unicode="&#xb9;" horiz-adv-x="242" 
d="M93 287v353l-66 -43v72l66 43h80v-425h-80z" />
    <glyph glyph-name="ordmasculine" unicode="&#xba;" horiz-adv-x="240" 
d="M18 619c0 28.667 9 52.334 27 71.001s43 28 75 28s57 -9.33301 75 -28s27 -42.334 27 -71.001v-114c0 -28.667 -9 -52.334 -27 -71.001s-43 -28 -75 -28s-57 9.33301 -75 28s-27 42.334 -27 71.001v114zM90 506c0 -22.667 10 -34 30 -34s30 11.333 30 34v111
c0 23.333 -10 35 -30 35s-30 -11.667 -30 -35v-111z" />
    <glyph glyph-name="guillemotright" unicode="&#xbb;" horiz-adv-x="426" 
d="M213 75v102l101 100l-101 100v102l203 -202zM28 75v102l101 100l-101 100v102l203 -202z" />
    <glyph glyph-name="onequarter" unicode="&#xbc;" horiz-adv-x="555" 
d="M18 -17l437 746h60l-437 -746h-60zM77 287v353l-66 -43v72l66 43h80v-425h-80zM434 0v62h-143v62l98 303h80l-94 -299h59v115h80v-115h30v-66h-30v-62h-80z" />
    <glyph glyph-name="onehalf" unicode="&#xbd;" horiz-adv-x="555" 
d="M18 -17l437 746h60l-437 -746h-60zM77 287v353l-66 -43v72l66 43h80v-425h-80zM322 0l0.000976562 54.001l130 212c3.33301 6 6.16602 12.167 8.49902 18.5s3.5 13.166 3.5 20.499v23c0 10 -3.33301 17.667 -10 23s-13.667 8 -21 8c-8.66699 0 -16 -2.66699 -22 -8
s-9 -13 -9 -23v-31h-80v36c0 28 10.667 51.333 32 70s48 28 80 28c14.667 0 28.667 -2.33301 42 -7s25 -11 35 -19s18 -17.5 24 -28.5s9 -23.167 9 -36.5v-33c0 -17.333 -2 -31.333 -6 -42s-9.66699 -21.667 -17 -33l-95 -160h118v-72h-222z" />
    <glyph glyph-name="threequarters" unicode="&#xbe;" horiz-adv-x="555" 
d="M37 -17l437 746h60l-437 -746h-60zM100 540c19.333 0 32.501 2.16602 39.501 6.49902s10.833 13.5 11.5 27.5v42c0 8.66699 -2.66699 15.834 -8 21.501s-12.666 8.5 -21.999 8.5c-10.667 0 -18.334 -3.5 -23.001 -10.5s-7 -13.5 -7 -19.5v-26h-80v32
c0 28 10.167 51 30.5 69s47.5 27 81.5 27c18.667 0 34.667 -2.83301 48 -8.5s24.666 -13.167 33.999 -22.5c9.33301 -10 16 -21 20 -33s6 -24 6 -36v-41c0 -14.667 -2.33301 -27.5 -7 -38.5s-16 -21.167 -34 -30.5c16 -9.33301 26.833 -19.666 32.5 -30.999
s8.5 -25.333 8.5 -42v-51c0 -12 -1.83301 -24.167 -5.5 -36.5s-10.167 -23.166 -19.5 -32.499s-21 -17 -35 -23s-30.667 -9 -50 -9c-13.333 0 -26.666 1.66699 -39.999 5s-25 8.66602 -35 15.999c-10.667 7.33301 -19.167 17 -25.5 29s-9.5 26.667 -9.5 44v34h80v-23
c0 -10 2.66699 -18 8 -24s12.666 -9 21.999 -9c8.66699 0 15.834 3.16699 21.501 9.5s8.5 13.166 8.5 20.499v52c0 15.333 -3.33301 25.333 -10 30s-20.334 7 -41.001 7v66zM434.001 -0.000976562v62h-143v62l98 303h80l-94 -299h59v115h80v-115h30v-66h-30v-62h-80z" />
    <glyph glyph-name="questiondown" unicode="&#xbf;" 
d="M338 0v-59c0 -21.333 -4 -41.166 -12 -59.499s-19 -34.166 -33 -47.499c-14 -14 -30.333 -25 -49 -33s-38.667 -12 -60 -12c-24.667 0 -47.167 5 -67.5 15s-37.166 24 -50.499 42c-13.333 17.333 -22.333 34.666 -27 51.999c-4.66699 16.667 -7 40 -7 70
c0 16.667 0.166992 31 0.5 43s1.16602 22.333 2.49902 31s3 16.167 5 22.5s4.66699 12.166 8 17.499l69 118c4.66699 8 8.66699 16.167 12 24.5s5 17.166 5 26.499v80h102v-93c0 -14.667 -2.33301 -28.667 -7 -42s-10.667 -26.333 -18 -39l-64 -104
c-5.33301 -8.66699 -8.83301 -18 -10.5 -28s-2.5 -20 -2.5 -30v-53c0 -14 4.83301 -26 14.5 -36s21.5 -15 35.5 -15c12 0 23.667 4.33301 35 13s17 21.334 17 38.001v58h102zM236 507v-102h-102v102h102z" />
    <glyph glyph-name="Agrave" unicode="&#xc0;" horiz-adv-x="407" 
d="M254 249l-50 258h-2l-50 -258h102zM2 0l159 712h85l159 -712h-102l-30 153h-139l-30 -153h-102zM179 885l90 -141h-66l-132 141h108z" />
    <glyph glyph-name="Aacute" unicode="&#xc1;" horiz-adv-x="407" 
d="M254 249l-50 258h-2l-50 -258h102zM2 0l159 712h85l159 -712h-102l-30 153h-139l-30 -153h-102zM139 744l90 141h108l-132 -141h-66z" />
    <glyph glyph-name="Acircumflex" unicode="&#xc2;" horiz-adv-x="407" 
d="M254 249l-50 258h-2l-50 -258h102zM2 0l159 712h85l159 -712h-102l-30 153h-139l-30 -153h-102zM59 744l98 141h94l98 -141h-78l-67 95l-67 -95h-78z" />
    <glyph glyph-name="Atilde" unicode="&#xc3;" horiz-adv-x="407" 
d="M254 249l-50 258h-2l-50 -258h102zM2 0l159 712h85l159 -712h-102l-30 153h-139l-30 -153h-102zM374 869c-3.33301 -15.333 -7.33203 -29.667 -11.999 -43s-11 -25 -19 -35s-17.667 -18 -29 -24s-25 -9 -41 -9c-8 0 -18.833 2 -32.5 6s-27.834 8.66699 -42.501 14
c-7.33301 2.66699 -14.333 5 -21 7s-13.334 4.33301 -20.001 7c-13.333 4 -22.666 6 -27.999 6c-14 0 -24.667 -4.16699 -32 -12.5s-11.333 -19.166 -12 -32.499h-51c5.33301 32.667 15.666 58.667 30.999 78c8 10 17.667 18 29 24s25 9 41 9c8 0 18.833 -2 32.5 -6
s27.834 -8.66699 42.501 -14s28.5 -10 41.5 -14s22.167 -6 27.5 -6c14 0 24.667 4.16699 32 12.5s11.333 19.166 12 32.499h51z" />
    <glyph glyph-name="Adieresis" unicode="&#xc4;" horiz-adv-x="407" 
d="M254 249l-50 258h-2l-50 -258h102zM2 0l159 712h85l159 -712h-102l-30 153h-139l-30 -153h-102zM78 756v102h90v-102h-90zM240 756v102h90v-102h-90z" />
    <glyph glyph-name="Aring" unicode="&#xc5;" horiz-adv-x="407" 
d="M254 249l-50 258h-2l-50 -258h102zM2 0l159 712h85l159 -712h-102l-30 153h-139l-30 -153h-102zM102 835c0 28 10 52 30 72s44 30 72 30s52 -10 72 -30s30 -44 30 -72s-10 -52 -30 -72s-44 -30 -72 -30s-52 10 -72 30s-30 44 -30 72zM143 835
c0 -17.333 5.83301 -31.833 17.5 -43.5s26.167 -17.5 43.5 -17.5s31.833 5.83301 43.5 17.5s17.5 26.167 17.5 43.5s-5.83301 31.833 -17.5 43.5s-26.167 17.5 -43.5 17.5s-31.833 -5.83301 -43.5 -17.5s-17.5 -26.167 -17.5 -43.5z" />
    <glyph glyph-name="AE" unicode="&#xc6;" horiz-adv-x="611" 
d="M2 0l202 712h389v-96h-202v-209h176v-96h-176v-209h202v-102h-304v153h-140l-39 -153h-108zM289 249v367h-24l-92 -367h116z" />
    <glyph glyph-name="Ccedilla" unicode="&#xc7;" horiz-adv-x="407" 
d="M131 -86l60.9932 80.002c-18 1.33301 -36 5.33301 -54 12s-34 16.667 -48 30c-14.667 13.333 -26.334 30.166 -35.001 50.499s-13 45.5 -13 75.5v392c0 23.333 4 45 12 65s19.333 37.333 34 52s32.167 26.167 52.5 34.5s42.833 12.5 67.5 12.5c48 0 87 -15.667 117 -47
c14.667 -15.333 26.167 -33.5 34.5 -54.5s12.5 -43.833 12.5 -68.5v-40h-102v34c0 20 -5.66699 37.333 -17 52s-26.666 22 -45.999 22c-25.333 0 -42.166 -7.83301 -50.499 -23.5s-12.5 -35.5 -12.5 -59.5v-364c0 -20.667 4.5 -38 13.5 -52s25.167 -21 48.5 -21
c6.66699 0 13.834 1.16699 21.501 3.5s14.834 6.16602 21.501 11.499c6 5.33301 11 12.666 15 21.999s6 21 6 35v35h102v-44c0 -19.333 -3.33301 -38 -10 -56s-15.667 -34.333 -27 -49c-12 -14.667 -26.167 -27 -42.5 -37s-34.166 -17 -53.499 -21l-43 -56
c5.33301 0.666992 10.5 1.16699 15.5 1.5s10.167 0.5 15.5 0.5c16.667 0 30.334 -2.33301 41.001 -7s19.334 -10.667 26.001 -18c6.66699 -8 11.334 -16.333 14.001 -25s4 -17 4 -25c0 -16 -3.83301 -29.833 -11.5 -41.5s-17.5 -21.167 -29.5 -28.5
s-25.167 -12.666 -39.5 -15.999s-28.5 -5 -42.5 -5c-19.333 0 -37.333 2.33301 -54 7s-29.667 8.66699 -39 12l17 42c10.667 -4 21.334 -7.5 32.001 -10.5s21.667 -4.5 33 -4.5c5.33301 0 11.166 0.5 17.499 1.5s12.166 3.16699 17.499 6.5c12.667 6.66699 19 17.667 19 33
c0 11.333 -4.66699 20.5 -14 27.5s-19.666 10.5 -30.999 10.5c-14.667 0 -27.667 -2.33301 -39 -7z" />
    <glyph glyph-name="Egrave" unicode="&#xc8;" 
d="M48 0v712h304v-96h-202v-209h176v-96h-176v-209h202v-102h-304zM170 885l90 -141h-66l-132 141h108z" />
    <glyph glyph-name="Eacute" unicode="&#xc9;" 
d="M48 0v712h304v-96h-202v-209h176v-96h-176v-209h202v-102h-304zM130 744l90 141h108l-132 -141h-66z" />
    <glyph glyph-name="Ecircumflex" unicode="&#xca;" 
d="M48 0v712h304v-96h-202v-209h176v-96h-176v-209h202v-102h-304zM50 744l98 141h94l98 -141h-78l-67 95l-67 -95h-78z" />
    <glyph glyph-name="Edieresis" unicode="&#xcb;" 
d="M48 0v712h304v-96h-202v-209h176v-96h-176v-209h202v-102h-304zM69 756v102h90v-102h-90zM231 756v102h90v-102h-90z" />
    <glyph glyph-name="Igrave" unicode="&#xcc;" horiz-adv-x="204" 
d="M51 0v712h102v-712h-102zM77 885l90 -141h-66l-132 141h108z" />
    <glyph glyph-name="Iacute" unicode="&#xcd;" horiz-adv-x="204" 
d="M51 0v712h102v-712h-102zM37 744l90 141h108l-132 -141h-66z" />
    <glyph glyph-name="Icircumflex" unicode="&#xce;" horiz-adv-x="204" 
d="M51 0v712h102v-712h-102zM-43 744l98 141h94l98 -141h-78l-67 95l-67 -95h-78z" />
    <glyph glyph-name="Idieresis" unicode="&#xcf;" horiz-adv-x="204" 
d="M51 0v712h102v-712h-102zM-24 756v102h90v-102h-90zM138 756v102h90v-102h-90z" />
    <glyph glyph-name="Eth" unicode="&#xd0;" horiz-adv-x="426" 
d="M150 616v-200h70v-66h-70v-254h47c28.667 0 49 7.16699 61 21.5s18 36.833 18 67.5v343c0 28 -5.66699 49.667 -17 65s-32 23 -62 23h-47zM48 0v350.001h-48v66h48v296h151c58.667 0 103.167 -16 133.5 -48s45.5 -77.333 45.5 -136v-333
c0 -66.667 -16.167 -115.834 -48.5 -147.501s-78.833 -47.5 -139.5 -47.5h-142z" />
    <glyph glyph-name="Ntilde" unicode="&#xd1;" horiz-adv-x="444" 
d="M44 0v712h98l154 -429h2v429h102v-712h-96l-156 428h-2v-428h-102zM392 869c-3.33301 -15.333 -7.33203 -29.667 -11.999 -43s-11 -25 -19 -35s-17.667 -18 -29 -24s-25 -9 -41 -9c-8 0 -18.833 2 -32.5 6s-27.834 8.66699 -42.501 14c-7.33301 2.66699 -14.333 5 -21 7
s-13.334 4.33301 -20.001 7c-13.333 4 -22.666 6 -27.999 6c-14 0 -24.667 -4.16699 -32 -12.5s-11.333 -19.166 -12 -32.499h-51c5.33301 32.667 15.666 58.667 30.999 78c8 10 17.667 18 29 24s25 9 41 9c8 0 18.833 -2 32.5 -6s27.834 -8.66699 42.501 -14
s28.5 -10 41.5 -14s22.167 -6 27.5 -6c14 0 24.667 4.16699 32 12.5s11.333 19.166 12 32.499h51z" />
    <glyph glyph-name="Ograve" unicode="&#xd2;" horiz-adv-x="426" 
d="M42 544c0 28.667 5 54 15 76s23.333 40.333 40 55c16 14 34.167 24.667 54.5 32s40.833 11 61.5 11s41.167 -3.66699 61.5 -11s38.833 -18 55.5 -32c16 -14.667 29 -33 39 -55s15 -47.333 15 -76v-376c0 -30 -5 -55.667 -15 -77s-23 -39 -39 -53
c-16.667 -14.667 -35.167 -25.667 -55.5 -33s-40.833 -11 -61.5 -11s-41.167 3.66699 -61.5 11s-38.5 18.333 -54.5 33c-16.667 14 -30 31.667 -40 53s-15 47 -15 77v376zM144 168c0 -24.667 6.83301 -42.834 20.5 -54.501s29.834 -17.5 48.501 -17.5
s34.834 5.83301 48.501 17.5s20.5 29.834 20.5 54.501v376c0 24.667 -6.83301 42.834 -20.5 54.501s-29.834 17.5 -48.501 17.5s-34.834 -5.83301 -48.501 -17.5s-20.5 -29.834 -20.5 -54.501v-376zM188 885l90 -141h-66l-132 141h108z" />
    <glyph glyph-name="Oacute" unicode="&#xd3;" horiz-adv-x="426" 
d="M42 544c0 28.667 5 54 15 76s23.333 40.333 40 55c16 14 34.167 24.667 54.5 32s40.833 11 61.5 11s41.167 -3.66699 61.5 -11s38.833 -18 55.5 -32c16 -14.667 29 -33 39 -55s15 -47.333 15 -76v-376c0 -30 -5 -55.667 -15 -77s-23 -39 -39 -53
c-16.667 -14.667 -35.167 -25.667 -55.5 -33s-40.833 -11 -61.5 -11s-41.167 3.66699 -61.5 11s-38.5 18.333 -54.5 33c-16.667 14 -30 31.667 -40 53s-15 47 -15 77v376zM144 168c0 -24.667 6.83301 -42.834 20.5 -54.501s29.834 -17.5 48.501 -17.5
s34.834 5.83301 48.501 17.5s20.5 29.834 20.5 54.501v376c0 24.667 -6.83301 42.834 -20.5 54.501s-29.834 17.5 -48.501 17.5s-34.834 -5.83301 -48.501 -17.5s-20.5 -29.834 -20.5 -54.501v-376zM148 744l90 141h108l-132 -141h-66z" />
    <glyph glyph-name="Ocircumflex" unicode="&#xd4;" horiz-adv-x="426" 
d="M42 544c0 28.667 5 54 15 76s23.333 40.333 40 55c16 14 34.167 24.667 54.5 32s40.833 11 61.5 11s41.167 -3.66699 61.5 -11s38.833 -18 55.5 -32c16 -14.667 29 -33 39 -55s15 -47.333 15 -76v-376c0 -30 -5 -55.667 -15 -77s-23 -39 -39 -53
c-16.667 -14.667 -35.167 -25.667 -55.5 -33s-40.833 -11 -61.5 -11s-41.167 3.66699 -61.5 11s-38.5 18.333 -54.5 33c-16.667 14 -30 31.667 -40 53s-15 47 -15 77v376zM144 168c0 -24.667 6.83301 -42.834 20.5 -54.501s29.834 -17.5 48.501 -17.5
s34.834 5.83301 48.501 17.5s20.5 29.834 20.5 54.501v376c0 24.667 -6.83301 42.834 -20.5 54.501s-29.834 17.5 -48.501 17.5s-34.834 -5.83301 -48.501 -17.5s-20.5 -29.834 -20.5 -54.501v-376zM68 744l98 141h94l98 -141h-78l-67 95l-67 -95h-78z" />
    <glyph glyph-name="Otilde" unicode="&#xd5;" horiz-adv-x="426" 
d="M42 544c0 28.667 5 54 15 76s23.333 40.333 40 55c16 14 34.167 24.667 54.5 32s40.833 11 61.5 11s41.167 -3.66699 61.5 -11s38.833 -18 55.5 -32c16 -14.667 29 -33 39 -55s15 -47.333 15 -76v-376c0 -30 -5 -55.667 -15 -77s-23 -39 -39 -53
c-16.667 -14.667 -35.167 -25.667 -55.5 -33s-40.833 -11 -61.5 -11s-41.167 3.66699 -61.5 11s-38.5 18.333 -54.5 33c-16.667 14 -30 31.667 -40 53s-15 47 -15 77v376zM144 168c0 -24.667 6.83301 -42.834 20.5 -54.501s29.834 -17.5 48.501 -17.5
s34.834 5.83301 48.501 17.5s20.5 29.834 20.5 54.501v376c0 24.667 -6.83301 42.834 -20.5 54.501s-29.834 17.5 -48.501 17.5s-34.834 -5.83301 -48.501 -17.5s-20.5 -29.834 -20.5 -54.501v-376zM383 869c-3.33301 -15.333 -7.33203 -29.667 -11.999 -43s-11 -25 -19 -35
s-17.667 -18 -29 -24s-25 -9 -41 -9c-8 0 -18.833 2 -32.5 6s-27.834 8.66699 -42.501 14c-7.33301 2.66699 -14.333 5 -21 7s-13.334 4.33301 -20.001 7c-13.333 4 -22.666 6 -27.999 6c-14 0 -24.667 -4.16699 -32 -12.5s-11.333 -19.166 -12 -32.499h-51
c5.33301 32.667 15.666 58.667 30.999 78c8 10 17.667 18 29 24s25 9 41 9c8 0 18.833 -2 32.5 -6s27.834 -8.66699 42.501 -14s28.5 -10 41.5 -14s22.167 -6 27.5 -6c14 0 24.667 4.16699 32 12.5s11.333 19.166 12 32.499h51z" />
    <glyph glyph-name="Odieresis" unicode="&#xd6;" horiz-adv-x="426" 
d="M42 544c0 28.667 5 54 15 76s23.333 40.333 40 55c16 14 34.167 24.667 54.5 32s40.833 11 61.5 11s41.167 -3.66699 61.5 -11s38.833 -18 55.5 -32c16 -14.667 29 -33 39 -55s15 -47.333 15 -76v-376c0 -30 -5 -55.667 -15 -77s-23 -39 -39 -53
c-16.667 -14.667 -35.167 -25.667 -55.5 -33s-40.833 -11 -61.5 -11s-41.167 3.66699 -61.5 11s-38.5 18.333 -54.5 33c-16.667 14 -30 31.667 -40 53s-15 47 -15 77v376zM144 168c0 -24.667 6.83301 -42.834 20.5 -54.501s29.834 -17.5 48.501 -17.5
s34.834 5.83301 48.501 17.5s20.5 29.834 20.5 54.501v376c0 24.667 -6.83301 42.834 -20.5 54.501s-29.834 17.5 -48.501 17.5s-34.834 -5.83301 -48.501 -17.5s-20.5 -29.834 -20.5 -54.501v-376zM87 756v102h90v-102h-90zM249 756v102h90v-102h-90z" />
    <glyph glyph-name="multiply" unicode="&#xd7;" horiz-adv-x="600" 
d="M67 77l177 176l-177 177l57 56l176 -176l177 176l56 -56l-176 -177l176 -176l-56 -57l-177 177l-176 -177z" />
    <glyph glyph-name="Oslash" unicode="&#xd8;" horiz-adv-x="426" 
d="M10 -16l50 103.001c-12 22.667 -18 49.667 -18 81v376c0 28.667 5 54 15 76s23.333 40.333 40 55c16 14 34.167 24.667 54.5 32s40.833 11 61.5 11c22.667 0 44.834 -4.33301 66.501 -13s41.167 -21.667 58.5 -39l40 84l38 -22l-50 -103
c5.33301 -10.667 9.66602 -22.834 12.999 -36.501s5 -28.5 5 -44.5v-376c0 -30 -5 -55.667 -15 -77s-23 -39 -39 -53c-16.667 -14.667 -35.167 -25.667 -55.5 -33s-40.833 -11 -61.5 -11c-23.333 0 -46 4.33301 -68 13s-41 21.667 -57 39l-40 -84zM146 262.001
l136.001 287.001c-1.33301 23.333 -8.83301 40.333 -22.5 51s-29.167 16 -46.5 16c-18.667 0 -34.834 -5.83301 -48.501 -17.5s-20.5 -29.834 -20.5 -54.501v-282h2zM280.001 449.002l-136 -286.001c1.33301 -22.667 8.66602 -39.5 21.999 -50.5s29 -16.5 47 -16.5
c18.667 0 34.834 5.83301 48.501 17.5s20.5 29.834 20.5 54.501v281h-2z" />
    <glyph glyph-name="Ugrave" unicode="&#xd9;" horiz-adv-x="426" 
d="M378 712v-552c0 -23.333 -4.16699 -44.833 -12.5 -64.5s-20.166 -37.167 -35.499 -52.5s-33 -27.333 -53 -36s-41.333 -13 -64 -13s-43.834 4.33301 -63.501 13s-37.167 20.667 -52.5 36s-27.333 32.833 -36 52.5s-13 41.167 -13 64.5v552h102v-542
c0 -25.333 6 -44 18 -56s27 -18 45 -18s33 6 45 18s18 30.667 18 56v542h102zM188 885l90 -141h-66l-132 141h108z" />
    <glyph glyph-name="Uacute" unicode="&#xda;" horiz-adv-x="426" 
d="M378 712v-552c0 -23.333 -4.16699 -44.833 -12.5 -64.5s-20.166 -37.167 -35.499 -52.5s-33 -27.333 -53 -36s-41.333 -13 -64 -13s-43.834 4.33301 -63.501 13s-37.167 20.667 -52.5 36s-27.333 32.833 -36 52.5s-13 41.167 -13 64.5v552h102v-542
c0 -25.333 6 -44 18 -56s27 -18 45 -18s33 6 45 18s18 30.667 18 56v542h102zM148 744l90 141h108l-132 -141h-66z" />
    <glyph glyph-name="Ucircumflex" unicode="&#xdb;" horiz-adv-x="426" 
d="M378 712v-552c0 -23.333 -4.16699 -44.833 -12.5 -64.5s-20.166 -37.167 -35.499 -52.5s-33 -27.333 -53 -36s-41.333 -13 -64 -13s-43.834 4.33301 -63.501 13s-37.167 20.667 -52.5 36s-27.333 32.833 -36 52.5s-13 41.167 -13 64.5v552h102v-542
c0 -25.333 6 -44 18 -56s27 -18 45 -18s33 6 45 18s18 30.667 18 56v542h102zM68 744l98 141h94l98 -141h-78l-67 95l-67 -95h-78z" />
    <glyph glyph-name="Udieresis" unicode="&#xdc;" horiz-adv-x="426" 
d="M378 712v-552c0 -23.333 -4.16699 -44.833 -12.5 -64.5s-20.166 -37.167 -35.499 -52.5s-33 -27.333 -53 -36s-41.333 -13 -64 -13s-43.834 4.33301 -63.501 13s-37.167 20.667 -52.5 36s-27.333 32.833 -36 52.5s-13 41.167 -13 64.5v552h102v-542
c0 -25.333 6 -44 18 -56s27 -18 45 -18s33 6 45 18s18 30.667 18 56v542h102zM87 756v102h90v-102h-90zM249 756v102h90v-102h-90z" />
    <glyph glyph-name="Yacute" unicode="&#xdd;" horiz-adv-x="388" 
d="M143 0v301l-140 411h108l82 -283h2l82 283h108l-140 -411v-301h-102zM129 744l90 141h108l-132 -141h-66z" />
    <glyph glyph-name="Thorn" unicode="&#xde;" horiz-adv-x="407" 
d="M48 0l0.000976562 712h102v-124h51c28 0 52.667 -3.66699 74 -11s40.666 -20.333 57.999 -39s29.333 -40.5 36 -65.5s10 -58.833 10 -101.5c0 -32 -1.83301 -59 -5.5 -81s-11.5 -42.667 -23.5 -62c-14 -23.333 -32.667 -41.5 -56 -54.5s-54 -19.5 -92 -19.5h-52v-154
h-102zM150.001 492l0.000976562 -242h49c20.667 0 36.667 3 48 9s19.666 14.333 24.999 25c5.33301 10 8.5 22.333 9.5 37s1.5 31 1.5 49c0 16.667 -0.333008 32.5 -1 47.5s-3.66699 28.167 -9 39.5s-13.333 20 -24 26s-26 9 -46 9h-53z" />
    <glyph glyph-name="germandbls" unicode="&#xdf;" horiz-adv-x="389" 
d="M42 0l-0.000976562 552.001c0 22 3 43 9 63s15.333 37.667 28 53c12 15.333 27.5 27.5 46.5 36.5s41.5 13.5 67.5 13.5c28.667 0 52.834 -4.66699 72.501 -14s35.5 -22 47.5 -38c12 -16.667 20.667 -36.167 26 -58.5s8 -46.166 8 -71.499c0 -18 -0.833008 -33 -2.5 -45
s-4.5 -22.667 -8.5 -32c-4.66699 -9.33301 -10.834 -17.5 -18.501 -24.5s-17.5 -14.5 -29.5 -22.5c19.333 -10.667 34 -24 44 -40s15 -36.667 15 -62v-176c0 -32 -4.16699 -57 -12.5 -75s-19.166 -31.667 -32.499 -41c-13.333 -10 -28.833 -16.5 -46.5 -19.5
s-35.834 -4.5 -54.501 -4.5v96c14.667 0 25.667 3.16699 33 9.5s11 20.166 11 41.499v190c0 13.333 -3.83301 22.166 -11.5 26.499s-18.5 6.5 -32.5 6.5v90c15.333 0 26.5 2.5 33.5 7.5s10.5 15.5 10.5 31.5v80c0 14 -3.16699 25.667 -9.5 35s-19.166 14 -38.499 14
s-33 -6.16699 -41 -18.5s-12 -35.5 -12 -69.5v-534h-102z" />
    <glyph glyph-name="agrave" unicode="&#xe0;" 
d="M235 0l-0.00195312 52h-2c-13.333 -18.667 -26.833 -33 -40.5 -43s-32.834 -15 -57.501 -15c-12 0 -24.167 1.83301 -36.5 5.5s-24.166 10.5 -35.499 20.5c-11.333 9.33301 -20.5 22.833 -27.5 40.5s-10.5 40.5 -10.5 68.5c0 28.667 2.33301 53.834 7 75.501
s13.334 39.834 26.001 54.501c12 14 28.333 24.5 49 31.5s47 10.5 79 10.5h11c4 0 7.66699 -0.333008 11 -1s7.33301 -1 12 -1s9.66699 -0.333008 15 -1v53c0 17.333 -3.66699 31.666 -11 42.999s-20.666 17 -39.999 17c-13.333 0 -25.5 -4.33301 -36.5 -13
s-18.167 -21.334 -21.5 -38.001h-99c2.66699 45.333 18 82 46 110c13.333 13.333 29.333 23.833 48 31.5s39.667 11.5 63 11.5c21.333 0 41.333 -3.33301 60 -10s35 -16.667 49 -30c13.333 -13.333 24 -30 32 -50s12 -43.333 12 -70v-353h-102zM234.998 218
c-11.333 2 -20.667 2.99902 -28 2.99902c-22 0 -40.833 -5.16699 -56.5 -15.5s-23.5 -29.166 -23.5 -56.499c0 -19.333 4.66699 -35 14 -47s22.333 -18 39 -18c17.333 0 30.833 5.66699 40.5 17s14.5 27.333 14.5 48v69zM159.997 714.999l90 -141h-66l-132 141h108z" />
    <glyph glyph-name="aacute" unicode="&#xe1;" 
d="M235 0l-0.00195312 52h-2c-13.333 -18.667 -26.833 -33 -40.5 -43s-32.834 -15 -57.501 -15c-12 0 -24.167 1.83301 -36.5 5.5s-24.166 10.5 -35.499 20.5c-11.333 9.33301 -20.5 22.833 -27.5 40.5s-10.5 40.5 -10.5 68.5c0 28.667 2.33301 53.834 7 75.501
s13.334 39.834 26.001 54.501c12 14 28.333 24.5 49 31.5s47 10.5 79 10.5h11c4 0 7.66699 -0.333008 11 -1s7.33301 -1 12 -1s9.66699 -0.333008 15 -1v53c0 17.333 -3.66699 31.666 -11 42.999s-20.666 17 -39.999 17c-13.333 0 -25.5 -4.33301 -36.5 -13
s-18.167 -21.334 -21.5 -38.001h-99c2.66699 45.333 18 82 46 110c13.333 13.333 29.333 23.833 48 31.5s39.667 11.5 63 11.5c21.333 0 41.333 -3.33301 60 -10s35 -16.667 49 -30c13.333 -13.333 24 -30 32 -50s12 -43.333 12 -70v-353h-102zM234.998 218
c-11.333 2 -20.667 2.99902 -28 2.99902c-22 0 -40.833 -5.16699 -56.5 -15.5s-23.5 -29.166 -23.5 -56.499c0 -19.333 4.66699 -35 14 -47s22.333 -18 39 -18c17.333 0 30.833 5.66699 40.5 17s14.5 27.333 14.5 48v69zM119.997 573.999l90 141h108l-132 -141h-66z" />
    <glyph glyph-name="acircumflex" unicode="&#xe2;" 
d="M235 0l-0.00195312 52h-2c-13.333 -18.667 -26.833 -33 -40.5 -43s-32.834 -15 -57.501 -15c-12 0 -24.167 1.83301 -36.5 5.5s-24.166 10.5 -35.499 20.5c-11.333 9.33301 -20.5 22.833 -27.5 40.5s-10.5 40.5 -10.5 68.5c0 28.667 2.33301 53.834 7 75.501
s13.334 39.834 26.001 54.501c12 14 28.333 24.5 49 31.5s47 10.5 79 10.5h11c4 0 7.66699 -0.333008 11 -1s7.33301 -1 12 -1s9.66699 -0.333008 15 -1v53c0 17.333 -3.66699 31.666 -11 42.999s-20.666 17 -39.999 17c-13.333 0 -25.5 -4.33301 -36.5 -13
s-18.167 -21.334 -21.5 -38.001h-99c2.66699 45.333 18 82 46 110c13.333 13.333 29.333 23.833 48 31.5s39.667 11.5 63 11.5c21.333 0 41.333 -3.33301 60 -10s35 -16.667 49 -30c13.333 -13.333 24 -30 32 -50s12 -43.333 12 -70v-353h-102zM234.998 218
c-11.333 2 -20.667 2.99902 -28 2.99902c-22 0 -40.833 -5.16699 -56.5 -15.5s-23.5 -29.166 -23.5 -56.499c0 -19.333 4.66699 -35 14 -47s22.333 -18 39 -18c17.333 0 30.833 5.66699 40.5 17s14.5 27.333 14.5 48v69zM39.9971 573.999l98 141h94l98 -141h-78l-67 95
l-67 -95h-78z" />
    <glyph glyph-name="atilde" unicode="&#xe3;" 
d="M235 0l-0.00195312 52h-2c-13.333 -18.667 -26.833 -33 -40.5 -43s-32.834 -15 -57.501 -15c-12 0 -24.167 1.83301 -36.5 5.5s-24.166 10.5 -35.499 20.5c-11.333 9.33301 -20.5 22.833 -27.5 40.5s-10.5 40.5 -10.5 68.5c0 28.667 2.33301 53.834 7 75.501
s13.334 39.834 26.001 54.501c12 14 28.333 24.5 49 31.5s47 10.5 79 10.5h11c4 0 7.66699 -0.333008 11 -1s7.33301 -1 12 -1s9.66699 -0.333008 15 -1v53c0 17.333 -3.66699 31.666 -11 42.999s-20.666 17 -39.999 17c-13.333 0 -25.5 -4.33301 -36.5 -13
s-18.167 -21.334 -21.5 -38.001h-99c2.66699 45.333 18 82 46 110c13.333 13.333 29.333 23.833 48 31.5s39.667 11.5 63 11.5c21.333 0 41.333 -3.33301 60 -10s35 -16.667 49 -30c13.333 -13.333 24 -30 32 -50s12 -43.333 12 -70v-353h-102zM234.998 218
c-11.333 2 -20.667 2.99902 -28 2.99902c-22 0 -40.833 -5.16699 -56.5 -15.5s-23.5 -29.166 -23.5 -56.499c0 -19.333 4.66699 -35 14 -47s22.333 -18 39 -18c17.333 0 30.833 5.66699 40.5 17s14.5 27.333 14.5 48v69zM354.997 698.999
c-3.33301 -15.333 -7.33203 -29.667 -11.999 -43s-11 -25 -19 -35s-17.667 -18 -29 -24s-25 -9 -41 -9c-8 0 -18.833 2 -32.5 6s-27.834 8.66699 -42.501 14c-7.33301 2.66699 -14.333 5 -21 7s-13.334 4.33301 -20.001 7c-13.333 4 -22.666 6 -27.999 6
c-14 0 -24.667 -4.16699 -32 -12.5s-11.333 -19.166 -12 -32.499h-51c5.33301 32.667 15.666 58.667 30.999 78c8 10 17.667 18 29 24s25 9 41 9c8 0 18.833 -2 32.5 -6s27.834 -8.66699 42.501 -14s28.5 -10 41.5 -14s22.167 -6 27.5 -6c14 0 24.667 4.16699 32 12.5
s11.333 19.166 12 32.499h51z" />
    <glyph glyph-name="adieresis" unicode="&#xe4;" 
d="M235 0l-0.00195312 52h-2c-13.333 -18.667 -26.833 -33 -40.5 -43s-32.834 -15 -57.501 -15c-12 0 -24.167 1.83301 -36.5 5.5s-24.166 10.5 -35.499 20.5c-11.333 9.33301 -20.5 22.833 -27.5 40.5s-10.5 40.5 -10.5 68.5c0 28.667 2.33301 53.834 7 75.501
s13.334 39.834 26.001 54.501c12 14 28.333 24.5 49 31.5s47 10.5 79 10.5h11c4 0 7.66699 -0.333008 11 -1s7.33301 -1 12 -1s9.66699 -0.333008 15 -1v53c0 17.333 -3.66699 31.666 -11 42.999s-20.666 17 -39.999 17c-13.333 0 -25.5 -4.33301 -36.5 -13
s-18.167 -21.334 -21.5 -38.001h-99c2.66699 45.333 18 82 46 110c13.333 13.333 29.333 23.833 48 31.5s39.667 11.5 63 11.5c21.333 0 41.333 -3.33301 60 -10s35 -16.667 49 -30c13.333 -13.333 24 -30 32 -50s12 -43.333 12 -70v-353h-102zM234.998 218
c-11.333 2 -20.667 2.99902 -28 2.99902c-22 0 -40.833 -5.16699 -56.5 -15.5s-23.5 -29.166 -23.5 -56.499c0 -19.333 4.66699 -35 14 -47s22.333 -18 39 -18c17.333 0 30.833 5.66699 40.5 17s14.5 27.333 14.5 48v69zM58.9971 585.999v102h90v-102h-90zM220.997 585.999
v102h90v-102h-90z" />
    <glyph glyph-name="aring" unicode="&#xe5;" 
d="M235 0l-0.00195312 52h-2c-13.333 -18.667 -26.833 -33 -40.5 -43s-32.834 -15 -57.501 -15c-12 0 -24.167 1.83301 -36.5 5.5s-24.166 10.5 -35.499 20.5c-11.333 9.33301 -20.5 22.833 -27.5 40.5s-10.5 40.5 -10.5 68.5c0 28.667 2.33301 53.834 7 75.501
s13.334 39.834 26.001 54.501c12 14 28.333 24.5 49 31.5s47 10.5 79 10.5h11c4 0 7.66699 -0.333008 11 -1s7.33301 -1 12 -1s9.66699 -0.333008 15 -1v53c0 17.333 -3.66699 31.666 -11 42.999s-20.666 17 -39.999 17c-13.333 0 -25.5 -4.33301 -36.5 -13
s-18.167 -21.334 -21.5 -38.001h-99c2.66699 45.333 18 82 46 110c13.333 13.333 29.333 23.833 48 31.5s39.667 11.5 63 11.5c21.333 0 41.333 -3.33301 60 -10s35 -16.667 49 -30c13.333 -13.333 24 -30 32 -50s12 -43.333 12 -70v-353h-102zM234.998 218
c-11.333 2 -20.667 2.99902 -28 2.99902c-22 0 -40.833 -5.16699 -56.5 -15.5s-23.5 -29.166 -23.5 -56.499c0 -19.333 4.66699 -35 14 -47s22.333 -18 39 -18c17.333 0 30.833 5.66699 40.5 17s14.5 27.333 14.5 48v69zM82.9971 659.999c0 28 10 52 30 72s44 30 72 30
s52 -10 72 -30s30 -44 30 -72s-10 -52 -30 -72s-44 -30 -72 -30s-52 10 -72 30s-30 44 -30 72zM123.997 659.999c0 -17.333 5.83301 -31.833 17.5 -43.5s26.167 -17.5 43.5 -17.5s31.833 5.83301 43.5 17.5s17.5 26.167 17.5 43.5s-5.83301 31.833 -17.5 43.5
s-26.167 17.5 -43.5 17.5s-31.833 -5.83301 -43.5 -17.5s-17.5 -26.167 -17.5 -43.5z" />
    <glyph glyph-name="ae" unicode="&#xe6;" horiz-adv-x="572" 
d="M337 295h100v58c0 19.333 -4.5 33.833 -13.5 43.5s-21.167 14.5 -36.5 14.5s-27.5 -4.83301 -36.5 -14.5s-13.5 -24.167 -13.5 -43.5v-58zM539 215l-201.998 0.000976562v-69c0 -16 4.5 -28.333 13.5 -37s21.167 -13 36.5 -13c19.333 0 32.166 5.66699 38.499 17
s10.166 22.666 11.499 33.999h102c0 -44.667 -14 -81 -42 -109c-14 -13.333 -30.333 -24 -49 -32s-39 -12 -61 -12c-34 -0.666992 -62.167 6.33301 -84.5 21s-38.5 31.667 -48.5 51c-12 -24 -28.5 -42 -49.5 -54s-44.167 -18 -69.5 -18c-12 0 -24.167 1.83301 -36.5 5.5
s-24.166 10.5 -35.499 20.5c-11.333 9.33301 -20.5 22.833 -27.5 40.5s-10.5 40.5 -10.5 68.5c0 28.667 2.33301 53.834 7 75.501s13.334 39.834 26.001 54.501c12 14 28.333 24.5 49 31.5s47 10.5 79 10.5h11c4 0 7.66699 -0.333008 11 -1s7.33301 -1 12 -1
s9.66699 -0.333008 15 -1v53c0 17.333 -3.66699 31.666 -11 42.999s-20.666 17 -39.999 17c-13.333 0 -25.5 -4.33301 -36.5 -13s-18.167 -21.334 -21.5 -38.001h-99c3.33301 46 18.666 82.667 45.999 110c13.333 13.333 29.333 23.833 48 31.5s39.667 11.5 63 11.5
c21.333 0 40.166 -3.16699 56.499 -9.5s31.166 -15.166 44.499 -26.499c12.667 11.333 28 20.166 46 26.499s36.667 9.5 56 9.5c23.333 0 44.5 -4 63.5 -12s35.167 -19 48.5 -33c26.667 -30 40 -67.667 40 -113v-140zM235.002 218.001
c-11.333 2 -20.667 2.99902 -28 2.99902c-22 0 -40.833 -5.16699 -56.5 -15.5s-23.5 -29.166 -23.5 -56.499c0 -19.333 4.66699 -35 14 -47s22.333 -18 39 -18c17.333 0 30.833 5.66699 40.5 17s14.5 27.333 14.5 48v69z" />
    <glyph glyph-name="ccedilla" unicode="&#xe7;" 
d="M112 -86l62.998 82c-25.333 3.33301 -47.166 11.333 -65.499 24s-32.5 28.334 -42.5 47.001c-7.33301 13.333 -12.333 28.666 -15 45.999s-4 36.333 -4 57v167c0 20.667 1.33301 39.667 4 57s7.66699 32.666 15 45.999c12 22 29.167 39.667 51.5 53s49.5 20 81.5 20
c23.333 0 44.5 -4 63.5 -12s35.167 -19 48.5 -33c26.667 -30 40 -69 40 -117h-102c0 20.667 -4.5 35.834 -13.5 45.501s-21.167 14.5 -36.5 14.5s-27.5 -4.83301 -36.5 -14.5s-13.5 -24.167 -13.5 -43.5v-207c0 -16 4.5 -28.333 13.5 -37s21.167 -13 36.5 -13
c19.333 0 32.166 5.66699 38.499 17s10.166 22.666 11.499 33.999h102c0 -44.667 -13.667 -80.667 -41 -108c-24 -24.667 -54.333 -39 -91 -43l-43 -56c5.33301 0.666992 10.5 1.16699 15.5 1.5s10.167 0.5 15.5 0.5c16.667 0 30.334 -2.33301 41.001 -7
s19.334 -10.667 26.001 -18c6.66699 -8 11.334 -16.333 14.001 -25s4 -17 4 -25c0 -16 -3.83301 -29.833 -11.5 -41.5s-17.5 -21.167 -29.5 -28.5s-25.167 -12.666 -39.5 -15.999s-28.5 -5 -42.5 -5c-19.333 0 -37.333 2.33301 -54 7s-29.667 8.66699 -39 12l17 42
c10.667 -4 21.334 -7.5 32.001 -10.5s21.667 -4.5 33 -4.5c5.33301 0 11.166 0.5 17.499 1.5s12.166 3.16699 17.499 6.5c12.667 6.66699 19 17.667 19 33c0 11.333 -4.66699 20.5 -14 27.5s-19.666 10.5 -30.999 10.5c-14.667 0 -27.667 -2.33301 -39 -7z" />
    <glyph glyph-name="egrave" unicode="&#xe8;" 
d="M337 215l-201.998 0.00292969v-69c0 -16 4.5 -28.333 13.5 -37s21.167 -13 36.5 -13c19.333 0 32.166 5.66699 38.499 17s10.166 22.666 11.499 33.999h102c0 -44.667 -13.667 -80.667 -41 -108c-13.333 -14 -29.333 -25 -48 -33s-39.667 -12 -63 -12
c-32 0 -59.167 6.66699 -81.5 20s-39.5 31 -51.5 53c-7.33301 13.333 -12.333 28.666 -15 45.999s-4 36.333 -4 57v167c0 20.667 1.33301 39.667 4 57s7.66699 32.666 15 45.999c12 22 29.167 39.667 51.5 53s49.5 20 81.5 20c23.333 0 44.5 -4 63.5 -12
s35.167 -19 48.5 -33c26.667 -30 40 -67.667 40 -113v-140zM135.002 295.003h100v58c0 19.333 -4.5 33.833 -13.5 43.5s-21.167 14.5 -36.5 14.5s-27.5 -4.83301 -36.5 -14.5s-13.5 -24.167 -13.5 -43.5v-58zM160.002 715.003l90 -141h-66l-132 141h108z" />
    <glyph glyph-name="eacute" unicode="&#xe9;" 
d="M337 215l-201.998 0.00292969v-69c0 -16 4.5 -28.333 13.5 -37s21.167 -13 36.5 -13c19.333 0 32.166 5.66699 38.499 17s10.166 22.666 11.499 33.999h102c0 -44.667 -13.667 -80.667 -41 -108c-13.333 -14 -29.333 -25 -48 -33s-39.667 -12 -63 -12
c-32 0 -59.167 6.66699 -81.5 20s-39.5 31 -51.5 53c-7.33301 13.333 -12.333 28.666 -15 45.999s-4 36.333 -4 57v167c0 20.667 1.33301 39.667 4 57s7.66699 32.666 15 45.999c12 22 29.167 39.667 51.5 53s49.5 20 81.5 20c23.333 0 44.5 -4 63.5 -12
s35.167 -19 48.5 -33c26.667 -30 40 -67.667 40 -113v-140zM135.002 295.003h100v58c0 19.333 -4.5 33.833 -13.5 43.5s-21.167 14.5 -36.5 14.5s-27.5 -4.83301 -36.5 -14.5s-13.5 -24.167 -13.5 -43.5v-58zM120.002 574.003l90 141h108l-132 -141h-66z" />
    <glyph glyph-name="ecircumflex" unicode="&#xea;" 
d="M337 215l-201.998 0.00292969v-69c0 -16 4.5 -28.333 13.5 -37s21.167 -13 36.5 -13c19.333 0 32.166 5.66699 38.499 17s10.166 22.666 11.499 33.999h102c0 -44.667 -13.667 -80.667 -41 -108c-13.333 -14 -29.333 -25 -48 -33s-39.667 -12 -63 -12
c-32 0 -59.167 6.66699 -81.5 20s-39.5 31 -51.5 53c-7.33301 13.333 -12.333 28.666 -15 45.999s-4 36.333 -4 57v167c0 20.667 1.33301 39.667 4 57s7.66699 32.666 15 45.999c12 22 29.167 39.667 51.5 53s49.5 20 81.5 20c23.333 0 44.5 -4 63.5 -12
s35.167 -19 48.5 -33c26.667 -30 40 -67.667 40 -113v-140zM135.002 295.003h100v58c0 19.333 -4.5 33.833 -13.5 43.5s-21.167 14.5 -36.5 14.5s-27.5 -4.83301 -36.5 -14.5s-13.5 -24.167 -13.5 -43.5v-58zM40.002 574.003l98 141h94l98 -141h-78l-67 95l-67 -95h-78z" />
    <glyph glyph-name="edieresis" unicode="&#xeb;" 
d="M337 215l-201.998 0.00292969v-69c0 -16 4.5 -28.333 13.5 -37s21.167 -13 36.5 -13c19.333 0 32.166 5.66699 38.499 17s10.166 22.666 11.499 33.999h102c0 -44.667 -13.667 -80.667 -41 -108c-13.333 -14 -29.333 -25 -48 -33s-39.667 -12 -63 -12
c-32 0 -59.167 6.66699 -81.5 20s-39.5 31 -51.5 53c-7.33301 13.333 -12.333 28.666 -15 45.999s-4 36.333 -4 57v167c0 20.667 1.33301 39.667 4 57s7.66699 32.666 15 45.999c12 22 29.167 39.667 51.5 53s49.5 20 81.5 20c23.333 0 44.5 -4 63.5 -12
s35.167 -19 48.5 -33c26.667 -30 40 -67.667 40 -113v-140zM135.002 295.003h100v58c0 19.333 -4.5 33.833 -13.5 43.5s-21.167 14.5 -36.5 14.5s-27.5 -4.83301 -36.5 -14.5s-13.5 -24.167 -13.5 -43.5v-58zM59.002 586.003v102h90v-102h-90zM221.002 586.003v102h90v-102
h-90z" />
    <glyph glyph-name="igrave" unicode="&#xec;" horiz-adv-x="186" 
d="M42 0v507h102v-507h-102zM68 715l90 -141h-66l-132 141h108z" />
    <glyph glyph-name="iacute" unicode="&#xed;" horiz-adv-x="186" 
d="M42 0v507h102v-507h-102zM28 574l90 141h108l-132 -141h-66z" />
    <glyph glyph-name="icircumflex" unicode="&#xee;" horiz-adv-x="186" 
d="M42 0v507h102v-507h-102zM-52 574l98 141h94l98 -141h-78l-67 95l-67 -95h-78z" />
    <glyph glyph-name="idieresis" unicode="&#xef;" horiz-adv-x="186" 
d="M42 0v507h102v-507h-102zM-33 586v102h90v-102h-90zM129 586v102h90v-102h-90z" />
    <glyph glyph-name="eth" unicode="&#xf0;" 
d="M135 154c0 -19.333 4.5 -33.833 13.5 -43.5s21.167 -14.5 36.5 -14.5s27.5 4.83301 36.5 14.5s13.5 24.167 13.5 43.5v199c0 19.333 -4.5 33.833 -13.5 43.5s-21.167 14.5 -36.5 14.5s-27.5 -4.83301 -36.5 -14.5s-13.5 -24.167 -13.5 -43.5v-199zM86 608l68.998 32.0039
c-18 15.333 -43.667 29.666 -77 42.999l83 44c31.333 -11.333 58 -27 80 -47l68 32l28 -40l-63 -29c12.667 -16.667 23 -34.5 31 -53.5s14.333 -38.833 19 -59.5s8 -41.334 10 -62.001s3 -40.667 3 -60v-238c0 -20.667 -1.33301 -39.667 -4 -57
s-7.66699 -32.666 -15 -45.999c-12 -22 -29.167 -39.667 -51.5 -53s-49.5 -20 -81.5 -20s-59.167 6.66699 -81.5 20s-39.5 31 -51.5 53c-7.33301 13.333 -12.333 28.666 -15 45.999s-4 36.333 -4 57v167c0 20.667 1.33301 39.667 4 57s7.66699 32.666 15 45.999
c12 22 29.167 39.667 51.5 53s49.5 20 81.5 20c9.33301 0 18.333 -2.16699 27 -6.5s15.667 -9.83301 21 -16.5l2 2c-5.33301 23.333 -11.666 44.166 -18.999 62.499s-16.666 34.5 -27.999 48.5l-74 -35z" />
    <glyph glyph-name="ntilde" unicode="&#xf1;" horiz-adv-x="389" 
d="M42 0l-0.00195312 507h102v-49h2c10.667 16 23.5 29.167 38.5 39.5s34.167 15.5 57.5 15.5c12.667 0 25.334 -2.16699 38.001 -6.5s24 -11.5 34 -21.5s18 -22.833 24 -38.5s9 -34.834 9 -57.501v-389h-102v351c0 18.667 -4.33301 33.334 -13 44.001s-21 16 -37 16
c-19.333 0 -32.666 -6 -39.999 -18s-11 -29.333 -11 -52v-341h-102zM364.998 699c-3.33301 -15.333 -7.33203 -29.667 -11.999 -43s-11 -25 -19 -35s-17.667 -18 -29 -24s-25 -9 -41 -9c-8 0 -18.833 2 -32.5 6s-27.834 8.66699 -42.501 14
c-7.33301 2.66699 -14.333 5 -21 7s-13.334 4.33301 -20.001 7c-13.333 4 -22.666 6 -27.999 6c-14 0 -24.667 -4.16699 -32 -12.5s-11.333 -19.166 -12 -32.499h-51c5.33301 32.667 15.666 58.667 30.999 78c8 10 17.667 18 29 24s25 9 41 9c8 0 18.833 -2 32.5 -6
s27.834 -8.66699 42.501 -14s28.5 -10 41.5 -14s22.167 -6 27.5 -6c14 0 24.667 4.16699 32 12.5s11.333 19.166 12 32.499h51z" />
    <glyph glyph-name="ograve" unicode="&#xf2;" 
d="M33 337c0 20.667 1.33301 39.667 4 57s7.66699 32.666 15 45.999c12 22 29.167 39.667 51.5 53s49.5 20 81.5 20s59.167 -6.66699 81.5 -20s39.5 -31 51.5 -53c7.33301 -13.333 12.333 -28.666 15 -45.999s4 -36.333 4 -57v-167c0 -20.667 -1.33301 -39.667 -4 -57
s-7.66699 -32.666 -15 -45.999c-12 -22 -29.167 -39.667 -51.5 -53s-49.5 -20 -81.5 -20s-59.167 6.66699 -81.5 20s-39.5 31 -51.5 53c-7.33301 13.333 -12.333 28.666 -15 45.999s-4 36.333 -4 57v167zM135 154c0 -19.333 4.5 -33.833 13.5 -43.5s21.167 -14.5 36.5 -14.5
s27.5 4.83301 36.5 14.5s13.5 24.167 13.5 43.5v199c0 19.333 -4.5 33.833 -13.5 43.5s-21.167 14.5 -36.5 14.5s-27.5 -4.83301 -36.5 -14.5s-13.5 -24.167 -13.5 -43.5v-199zM160 715l90 -141h-66l-132 141h108z" />
    <glyph glyph-name="oacute" unicode="&#xf3;" 
d="M33 337c0 20.667 1.33301 39.667 4 57s7.66699 32.666 15 45.999c12 22 29.167 39.667 51.5 53s49.5 20 81.5 20s59.167 -6.66699 81.5 -20s39.5 -31 51.5 -53c7.33301 -13.333 12.333 -28.666 15 -45.999s4 -36.333 4 -57v-167c0 -20.667 -1.33301 -39.667 -4 -57
s-7.66699 -32.666 -15 -45.999c-12 -22 -29.167 -39.667 -51.5 -53s-49.5 -20 -81.5 -20s-59.167 6.66699 -81.5 20s-39.5 31 -51.5 53c-7.33301 13.333 -12.333 28.666 -15 45.999s-4 36.333 -4 57v167zM135 154c0 -19.333 4.5 -33.833 13.5 -43.5s21.167 -14.5 36.5 -14.5
s27.5 4.83301 36.5 14.5s13.5 24.167 13.5 43.5v199c0 19.333 -4.5 33.833 -13.5 43.5s-21.167 14.5 -36.5 14.5s-27.5 -4.83301 -36.5 -14.5s-13.5 -24.167 -13.5 -43.5v-199zM120 574l90 141h108l-132 -141h-66z" />
    <glyph glyph-name="ocircumflex" unicode="&#xf4;" 
d="M33 337c0 20.667 1.33301 39.667 4 57s7.66699 32.666 15 45.999c12 22 29.167 39.667 51.5 53s49.5 20 81.5 20s59.167 -6.66699 81.5 -20s39.5 -31 51.5 -53c7.33301 -13.333 12.333 -28.666 15 -45.999s4 -36.333 4 -57v-167c0 -20.667 -1.33301 -39.667 -4 -57
s-7.66699 -32.666 -15 -45.999c-12 -22 -29.167 -39.667 -51.5 -53s-49.5 -20 -81.5 -20s-59.167 6.66699 -81.5 20s-39.5 31 -51.5 53c-7.33301 13.333 -12.333 28.666 -15 45.999s-4 36.333 -4 57v167zM135 154c0 -19.333 4.5 -33.833 13.5 -43.5s21.167 -14.5 36.5 -14.5
s27.5 4.83301 36.5 14.5s13.5 24.167 13.5 43.5v199c0 19.333 -4.5 33.833 -13.5 43.5s-21.167 14.5 -36.5 14.5s-27.5 -4.83301 -36.5 -14.5s-13.5 -24.167 -13.5 -43.5v-199zM40 574l98 141h94l98 -141h-78l-67 95l-67 -95h-78z" />
    <glyph glyph-name="otilde" unicode="&#xf5;" 
d="M33 337c0 20.667 1.33301 39.667 4 57s7.66699 32.666 15 45.999c12 22 29.167 39.667 51.5 53s49.5 20 81.5 20s59.167 -6.66699 81.5 -20s39.5 -31 51.5 -53c7.33301 -13.333 12.333 -28.666 15 -45.999s4 -36.333 4 -57v-167c0 -20.667 -1.33301 -39.667 -4 -57
s-7.66699 -32.666 -15 -45.999c-12 -22 -29.167 -39.667 -51.5 -53s-49.5 -20 -81.5 -20s-59.167 6.66699 -81.5 20s-39.5 31 -51.5 53c-7.33301 13.333 -12.333 28.666 -15 45.999s-4 36.333 -4 57v167zM135 154c0 -19.333 4.5 -33.833 13.5 -43.5s21.167 -14.5 36.5 -14.5
s27.5 4.83301 36.5 14.5s13.5 24.167 13.5 43.5v199c0 19.333 -4.5 33.833 -13.5 43.5s-21.167 14.5 -36.5 14.5s-27.5 -4.83301 -36.5 -14.5s-13.5 -24.167 -13.5 -43.5v-199zM355 699c-3.33301 -15.333 -7.33203 -29.667 -11.999 -43s-11 -25 -19 -35s-17.667 -18 -29 -24
s-25 -9 -41 -9c-8 0 -18.833 2 -32.5 6s-27.834 8.66699 -42.501 14c-7.33301 2.66699 -14.333 5 -21 7s-13.334 4.33301 -20.001 7c-13.333 4 -22.666 6 -27.999 6c-14 0 -24.667 -4.16699 -32 -12.5s-11.333 -19.166 -12 -32.499h-51
c5.33301 32.667 15.666 58.667 30.999 78c8 10 17.667 18 29 24s25 9 41 9c8 0 18.833 -2 32.5 -6s27.834 -8.66699 42.501 -14s28.5 -10 41.5 -14s22.167 -6 27.5 -6c14 0 24.667 4.16699 32 12.5s11.333 19.166 12 32.499h51z" />
    <glyph glyph-name="odieresis" unicode="&#xf6;" 
d="M33 337c0 20.667 1.33301 39.667 4 57s7.66699 32.666 15 45.999c12 22 29.167 39.667 51.5 53s49.5 20 81.5 20s59.167 -6.66699 81.5 -20s39.5 -31 51.5 -53c7.33301 -13.333 12.333 -28.666 15 -45.999s4 -36.333 4 -57v-167c0 -20.667 -1.33301 -39.667 -4 -57
s-7.66699 -32.666 -15 -45.999c-12 -22 -29.167 -39.667 -51.5 -53s-49.5 -20 -81.5 -20s-59.167 6.66699 -81.5 20s-39.5 31 -51.5 53c-7.33301 13.333 -12.333 28.666 -15 45.999s-4 36.333 -4 57v167zM135 154c0 -19.333 4.5 -33.833 13.5 -43.5s21.167 -14.5 36.5 -14.5
s27.5 4.83301 36.5 14.5s13.5 24.167 13.5 43.5v199c0 19.333 -4.5 33.833 -13.5 43.5s-21.167 14.5 -36.5 14.5s-27.5 -4.83301 -36.5 -14.5s-13.5 -24.167 -13.5 -43.5v-199zM59 586v102h90v-102h-90zM221 586v102h90v-102h-90z" />
    <glyph glyph-name="divide" unicode="&#xf7;" horiz-adv-x="600" 
d="M47 213v80h506v-80h-506zM236 46c0 17.333 6.33301 32.333 19 45s27.667 19 45 19s32.333 -6.33301 45 -19s19 -27.667 19 -45s-6.33301 -32.333 -19 -45s-27.667 -19 -45 -19s-32.333 6.33301 -45 19s-19 27.667 -19 45zM236 460c0 17.333 6.33301 32.333 19 45
s27.667 19 45 19s32.333 -6.33301 45 -19s19 -27.667 19 -45s-6.33301 -32.333 -19 -45s-27.667 -19 -45 -19s-32.333 6.33301 -45 19s-19 27.667 -19 45z" />
    <glyph glyph-name="oslash" unicode="&#xf8;" 
d="M137 209l95 163c-4 26 -19.667 39 -47 39c-15.333 0 -27.5 -4.83301 -36.5 -14.5s-13.5 -24.167 -13.5 -43.5v-144h2zM233 298l-95 -163c4 -26 19.667 -39 47 -39c15.333 0 27.5 4.83301 36.5 14.5s13.5 24.167 13.5 43.5v144h-2zM4 -12l49.001 83
c-13.333 28 -20 57 -20 87v191c0 24 3.5 46 10.5 66s17.167 37.333 30.5 52c13.333 14 29.333 25.167 48 33.5s39.667 12.5 63 12.5c43.333 0 78.666 -14 105.999 -42l41 69l34 -21l-49 -83c13.333 -28 20 -57 20 -87v-191c0 -49.333 -13.333 -88.333 -40 -117
c-13.333 -14.667 -29.5 -26.167 -48.5 -34.5s-40.167 -12.5 -63.5 -12.5c-44 0 -79.333 14 -106 42l-41 -69z" />
    <glyph glyph-name="ugrave" unicode="&#xf9;" horiz-adv-x="389" 
d="M347 507l0.00195312 -507h-102v49h-2c-10.667 -16 -23.5 -29.167 -38.5 -39.5s-34.167 -15.5 -57.5 -15.5c-12.667 0 -25.334 2.16699 -38.001 6.5s-24 11.5 -34 21.5s-18 22.833 -24 38.5s-9 34.834 -9 57.501v389h102v-351c0 -18.667 4.33301 -33.334 13 -44.001
s21 -16 37 -16c19.333 0 32.666 6 39.999 18s11 29.333 11 52v341h102zM170.002 715l90 -141h-66l-132 141h108z" />
    <glyph glyph-name="uacute" unicode="&#xfa;" horiz-adv-x="389" 
d="M347 507l0.00195312 -507h-102v49h-2c-10.667 -16 -23.5 -29.167 -38.5 -39.5s-34.167 -15.5 -57.5 -15.5c-12.667 0 -25.334 2.16699 -38.001 6.5s-24 11.5 -34 21.5s-18 22.833 -24 38.5s-9 34.834 -9 57.501v389h102v-351c0 -18.667 4.33301 -33.334 13 -44.001
s21 -16 37 -16c19.333 0 32.666 6 39.999 18s11 29.333 11 52v341h102zM130.002 574l90 141h108l-132 -141h-66z" />
    <glyph glyph-name="ucircumflex" unicode="&#xfb;" horiz-adv-x="389" 
d="M347 507l0.00195312 -507h-102v49h-2c-10.667 -16 -23.5 -29.167 -38.5 -39.5s-34.167 -15.5 -57.5 -15.5c-12.667 0 -25.334 2.16699 -38.001 6.5s-24 11.5 -34 21.5s-18 22.833 -24 38.5s-9 34.834 -9 57.501v389h102v-351c0 -18.667 4.33301 -33.334 13 -44.001
s21 -16 37 -16c19.333 0 32.666 6 39.999 18s11 29.333 11 52v341h102zM50.002 574l98 141h94l98 -141h-78l-67 95l-67 -95h-78z" />
    <glyph glyph-name="udieresis" unicode="&#xfc;" horiz-adv-x="389" 
d="M347 507l0.00195312 -507h-102v49h-2c-10.667 -16 -23.5 -29.167 -38.5 -39.5s-34.167 -15.5 -57.5 -15.5c-12.667 0 -25.334 2.16699 -38.001 6.5s-24 11.5 -34 21.5s-18 22.833 -24 38.5s-9 34.834 -9 57.501v389h102v-351c0 -18.667 4.33301 -33.334 13 -44.001
s21 -16 37 -16c19.333 0 32.666 6 39.999 18s11 29.333 11 52v341h102zM69.002 586v102h90v-102h-90zM231.002 586v102h90v-102h-90z" />
    <glyph glyph-name="yacute" unicode="&#xfd;" horiz-adv-x="352" 
d="M-1 507l108 0.000976562l70 -316h2l69 316h105l-146 -595c-5.33301 -22.667 -12.833 -41.334 -22.5 -56.001s-20.834 -26.667 -33.501 -36s-26.167 -15.833 -40.5 -19.5s-29.166 -5.5 -44.499 -5.5h-28v96h23c10 0 18.667 1.33301 26 4s14 8.66699 20 18
c5.33301 9.33301 10.333 22.5 15 39.5s10 40.5 16 70.5zM111 574.001l90 141h108l-132 -141h-66z" />
    <glyph glyph-name="thorn" unicode="&#xfe;" horiz-adv-x="389" 
d="M42 -205v917h102v-251c12.667 14.667 25.667 27 39 37s32.666 15 57.999 15c42 0 71.667 -16 89 -48c6 -11.333 10.333 -25.333 13 -42s4 -39 4 -67v-193c0 -37.333 -1 -64.333 -3 -81c-4 -33.333 -19.333 -58.333 -46 -75c-13.333 -8.66699 -32.666 -13 -57.999 -13
c-20 0 -37.833 4.5 -53.5 13.5s-29.167 21.833 -40.5 38.5h-2v-251h-102zM245 342c0 20.667 -4.00195 37.334 -12.002 50.001s-20.667 19 -38 19c-15.333 0 -27.666 -5.83301 -36.999 -17.5s-14 -26.834 -14 -45.501v-197c0 -16 4.83301 -29.167 14.5 -39.5
s21.834 -15.5 36.501 -15.5c19.333 0 32.5 6 39.5 18s10.5 26 10.5 42v186z" />
    <glyph glyph-name="ydieresis" unicode="&#xff;" horiz-adv-x="352" 
d="M-1 507l108 0.000976562l70 -316h2l69 316h105l-146 -595c-5.33301 -22.667 -12.833 -41.334 -22.5 -56.001s-20.834 -26.667 -33.501 -36s-26.167 -15.833 -40.5 -19.5s-29.166 -5.5 -44.499 -5.5h-28v96h23c10 0 18.667 1.33301 26 4s14 8.66699 20 18
c5.33301 9.33301 10.333 22.5 15 39.5s10 40.5 16 70.5zM50 586.001v102h90v-102h-90zM212 586.001v102h90v-102h-90z" />
    <glyph glyph-name="Amacron" unicode="&#x100;" horiz-adv-x="407" 
d="M254 249l-50 258h-2l-50 -258h102zM2 0l159 712h85l159 -712h-102l-30 153h-139l-30 -153h-102zM66 777v60h274v-60h-274z" />
    <glyph glyph-name="amacron" unicode="&#x101;" 
d="M235 0l-0.00195312 52h-2c-13.333 -18.667 -26.833 -33 -40.5 -43s-32.834 -15 -57.501 -15c-12 0 -24.167 1.83301 -36.5 5.5s-24.166 10.5 -35.499 20.5c-11.333 9.33301 -20.5 22.833 -27.5 40.5s-10.5 40.5 -10.5 68.5c0 28.667 2.33301 53.834 7 75.501
s13.334 39.834 26.001 54.501c12 14 28.333 24.5 49 31.5s47 10.5 79 10.5h11c4 0 7.66699 -0.333008 11 -1s7.33301 -1 12 -1s9.66699 -0.333008 15 -1v53c0 17.333 -3.66699 31.666 -11 42.999s-20.666 17 -39.999 17c-13.333 0 -25.5 -4.33301 -36.5 -13
s-18.167 -21.334 -21.5 -38.001h-99c2.66699 45.333 18 82 46 110c13.333 13.333 29.333 23.833 48 31.5s39.667 11.5 63 11.5c21.333 0 41.333 -3.33301 60 -10s35 -16.667 49 -30c13.333 -13.333 24 -30 32 -50s12 -43.333 12 -70v-353h-102zM234.998 218
c-11.333 2 -20.667 2.99902 -28 2.99902c-22 0 -40.833 -5.16699 -56.5 -15.5s-23.5 -29.166 -23.5 -56.499c0 -19.333 4.66699 -35 14 -47s22.333 -18 39 -18c17.333 0 30.833 5.66699 40.5 17s14.5 27.333 14.5 48v69zM47.9971 606.999v60h274v-60h-274z" />
    <glyph glyph-name="Abreve" unicode="&#x102;" horiz-adv-x="407" 
d="M254 249l-50 258h-2l-50 -258h102zM2 0l159 712h85l159 -712h-102l-30 153h-139l-30 -153h-102zM357 885c-14 -90.667 -65.335 -136 -154.002 -136s-140 45.333 -154 136h51c1.33301 -9.33301 3.83301 -18.5 7.5 -27.5s9.5 -17.167 17.5 -24.5s18.333 -13.166 31 -17.499
s28.334 -6.5 47.001 -6.5s34.334 2.16699 47.001 6.5s23 10.166 31 17.499s13.833 15.5 17.5 24.5s6.16699 18.167 7.5 27.5h51z" />
    <glyph glyph-name="abreve" unicode="&#x103;" 
d="M235 0l-0.00195312 52h-2c-13.333 -18.667 -26.833 -33 -40.5 -43s-32.834 -15 -57.501 -15c-12 0 -24.167 1.83301 -36.5 5.5s-24.166 10.5 -35.499 20.5c-11.333 9.33301 -20.5 22.833 -27.5 40.5s-10.5 40.5 -10.5 68.5c0 28.667 2.33301 53.834 7 75.501
s13.334 39.834 26.001 54.501c12 14 28.333 24.5 49 31.5s47 10.5 79 10.5h11c4 0 7.66699 -0.333008 11 -1s7.33301 -1 12 -1s9.66699 -0.333008 15 -1v53c0 17.333 -3.66699 31.666 -11 42.999s-20.666 17 -39.999 17c-13.333 0 -25.5 -4.33301 -36.5 -13
s-18.167 -21.334 -21.5 -38.001h-99c2.66699 45.333 18 82 46 110c13.333 13.333 29.333 23.833 48 31.5s39.667 11.5 63 11.5c21.333 0 41.333 -3.33301 60 -10s35 -16.667 49 -30c13.333 -13.333 24 -30 32 -50s12 -43.333 12 -70v-353h-102zM234.998 218
c-11.333 2 -20.667 2.99902 -28 2.99902c-22 0 -40.833 -5.16699 -56.5 -15.5s-23.5 -29.166 -23.5 -56.499c0 -19.333 4.66699 -35 14 -47s22.333 -18 39 -18c17.333 0 30.833 5.66699 40.5 17s14.5 27.333 14.5 48v69zM338.997 714.999
c-14 -90.667 -65.335 -136 -154.002 -136s-140 45.333 -154 136h51c1.33301 -9.33301 3.83301 -18.5 7.5 -27.5s9.5 -17.167 17.5 -24.5s18.333 -13.166 31 -17.499s28.334 -6.5 47.001 -6.5s34.334 2.16699 47.001 6.5s23 10.166 31 17.499s13.833 15.5 17.5 24.5
s6.16699 18.167 7.5 27.5h51z" />
    <glyph glyph-name="Aogonek" unicode="&#x104;" horiz-adv-x="407" 
d="M405 -202c-10 -5.33301 -23.166 -10.334 -39.499 -15.001s-35.5 -7 -57.5 -7c-28 0 -51.5 8.16699 -70.5 24.5s-28.5 38.5 -28.5 66.5c0 16 2.33301 30.333 7 43s11.334 24.334 20.001 35.001c8.66699 10 18.5 19.333 29.5 28s23.167 17.667 36.5 27h1l-30 153h-139
l-30 -153h-102l159 712h85l159 -712h-52c-20 -19.333 -35.667 -40 -47 -62s-17 -43.333 -17 -64c0 -16 4.83301 -28.667 14.5 -38s21.167 -14 34.5 -14c11.333 0 21.166 1.16699 29.499 3.5s16.166 5.5 23.499 9.5zM254.001 248.999l-50 258h-2l-50 -258h102z" />
    <glyph glyph-name="aogonek" unicode="&#x105;" 
d="M235 0l-0.00195312 52h-2c-13.333 -18.667 -26.833 -33 -40.5 -43s-32.834 -15 -57.501 -15c-12 0 -24.167 1.83301 -36.5 5.5s-24.166 10.5 -35.499 20.5c-11.333 9.33301 -20.5 22.833 -27.5 40.5s-10.5 40.5 -10.5 68.5c0 28.667 2.33301 53.834 7 75.501
s13.334 39.834 26.001 54.501c12 14 28.333 24.5 49 31.5s47 10.5 79 10.5h11c4 0 7.66699 -0.333008 11 -1s7.33301 -1 12 -1s9.66699 -0.333008 15 -1v53c0 17.333 -3.66699 31.666 -11 42.999s-20.666 17 -39.999 17c-13.333 0 -25.5 -4.33301 -36.5 -13
s-18.167 -21.334 -21.5 -38.001h-99c2.66699 45.333 18 82 46 110c13.333 13.333 29.333 23.833 48 31.5s39.667 11.5 63 11.5c21.333 0 41.333 -3.33301 60 -10s35 -16.667 49 -30c13.333 -13.333 24 -30 32 -50s12 -43.333 12 -70v-353h-102zM234.998 218
c-11.333 2 -20.667 2.99902 -28 2.99902c-22 0 -40.833 -5.16699 -56.5 -15.5s-23.5 -29.166 -23.5 -56.499c0 -19.333 4.66699 -35 14 -47s22.333 -18 39 -18c17.333 0 30.833 5.66699 40.5 17s14.5 27.333 14.5 48v69zM336.997 -202.001
c-10 -5.33301 -23.166 -10.334 -39.499 -15.001s-35.5 -7 -57.5 -7c-28 0 -51.5 8.16699 -70.5 24.5s-28.5 38.5 -28.5 66.5c0 16 2.33301 30.333 7 43s11.334 24.334 20.001 35.001c8.66699 10 18.5 19.333 29.5 28s23.167 17.667 36.5 27h51
c-20 -19.333 -35.667 -40 -47 -62s-17 -43.333 -17 -64c0 -16 4.83301 -28.667 14.5 -38s21.167 -14 34.5 -14c11.333 0 21.166 1.16699 29.499 3.5s16.166 5.5 23.499 9.5z" />
    <glyph glyph-name="Cacute" unicode="&#x106;" horiz-adv-x="407" 
d="M372 203l-0.00195312 -43.9971c0 -22 -4.16699 -42.833 -12.5 -62.5s-19.833 -37.167 -34.5 -52.5s-31.834 -27.5 -51.501 -36.5s-40.834 -13.5 -63.501 -13.5c-19.333 0 -39 2.66699 -59 8s-38 14.666 -54 27.999s-29.167 30.5 -39.5 51.5s-15.5 47.833 -15.5 80.5v392
c0 23.333 4 45 12 65s19.333 37.333 34 52s32.167 26.167 52.5 34.5s42.833 12.5 67.5 12.5c48 0 87 -15.667 117 -47c14.667 -15.333 26.167 -33.5 34.5 -54.5s12.5 -43.833 12.5 -68.5v-40h-102v34c0 20 -5.66699 37.333 -17 52s-26.666 22 -45.999 22
c-25.333 0 -42.166 -7.83301 -50.499 -23.5s-12.5 -35.5 -12.5 -59.5v-364c0 -20.667 4.5 -38 13.5 -52s25.167 -21 48.5 -21c6.66699 0 13.834 1.16699 21.501 3.5s14.834 6.16602 21.501 11.499c6 5.33301 11 12.666 15 21.999s6 21 6 35v35h102zM137.998 744.003l90 141
h108l-132 -141h-66z" />
    <glyph glyph-name="cacute" unicode="&#x107;" 
d="M150 146c0 -16 4.50195 -28.3311 13.502 -36.998s21.167 -13 36.5 -13c19.333 0 32.166 5.66699 38.499 17s10.166 22.666 11.499 33.999h102c0 -44.667 -13.667 -80.667 -41 -108c-13.333 -14 -29.333 -25 -48 -33s-39.667 -12 -63 -12c-32 0 -59.167 6.66699 -81.5 20
s-39.5 31 -51.5 53c-7.33301 13.333 -12.333 28.666 -15 45.999s-4 36.333 -4 57v167c0 20.667 1.33301 39.667 4 57s7.66699 32.666 15 45.999c12 22 29.167 39.667 51.5 53s49.5 20 81.5 20c23.333 0 44.5 -4 63.5 -12s35.167 -19 48.5 -33c26.667 -30 40 -69 40 -117
h-102c0 20.667 -4.5 35.834 -13.5 45.501s-21.167 14.5 -36.5 14.5s-27.5 -4.83301 -36.5 -14.5s-13.5 -24.167 -13.5 -43.5v-207zM120.002 574.002l90 141h108l-132 -141h-66z" />
    <glyph glyph-name="Ccircumflex" unicode="&#x108;" horiz-adv-x="407" 
d="M372 203l-0.00195312 -43.9971c0 -22 -4.16699 -42.833 -12.5 -62.5s-19.833 -37.167 -34.5 -52.5s-31.834 -27.5 -51.501 -36.5s-40.834 -13.5 -63.501 -13.5c-19.333 0 -39 2.66699 -59 8s-38 14.666 -54 27.999s-29.167 30.5 -39.5 51.5s-15.5 47.833 -15.5 80.5v392
c0 23.333 4 45 12 65s19.333 37.333 34 52s32.167 26.167 52.5 34.5s42.833 12.5 67.5 12.5c48 0 87 -15.667 117 -47c14.667 -15.333 26.167 -33.5 34.5 -54.5s12.5 -43.833 12.5 -68.5v-40h-102v34c0 20 -5.66699 37.333 -17 52s-26.666 22 -45.999 22
c-25.333 0 -42.166 -7.83301 -50.499 -23.5s-12.5 -35.5 -12.5 -59.5v-364c0 -20.667 4.5 -38 13.5 -52s25.167 -21 48.5 -21c6.66699 0 13.834 1.16699 21.501 3.5s14.834 6.16602 21.501 11.499c6 5.33301 11 12.666 15 21.999s6 21 6 35v35h102zM57.998 744.003l98 141
h94l98 -141h-78l-67 95l-67 -95h-78z" />
    <glyph glyph-name="ccircumflex" unicode="&#x109;" 
d="M150 146c0 -16 4.50195 -28.3311 13.502 -36.998s21.167 -13 36.5 -13c19.333 0 32.166 5.66699 38.499 17s10.166 22.666 11.499 33.999h102c0 -44.667 -13.667 -80.667 -41 -108c-13.333 -14 -29.333 -25 -48 -33s-39.667 -12 -63 -12c-32 0 -59.167 6.66699 -81.5 20
s-39.5 31 -51.5 53c-7.33301 13.333 -12.333 28.666 -15 45.999s-4 36.333 -4 57v167c0 20.667 1.33301 39.667 4 57s7.66699 32.666 15 45.999c12 22 29.167 39.667 51.5 53s49.5 20 81.5 20c23.333 0 44.5 -4 63.5 -12s35.167 -19 48.5 -33c26.667 -30 40 -69 40 -117
h-102c0 20.667 -4.5 35.834 -13.5 45.501s-21.167 14.5 -36.5 14.5s-27.5 -4.83301 -36.5 -14.5s-13.5 -24.167 -13.5 -43.5v-207zM40.002 574.002l98 141h94l98 -141h-78l-67 95l-67 -95h-78z" />
    <glyph glyph-name="Cdotaccent" unicode="&#x10a;" horiz-adv-x="407" 
d="M372 203l-0.00195312 -43.9971c0 -22 -4.16699 -42.833 -12.5 -62.5s-19.833 -37.167 -34.5 -52.5s-31.834 -27.5 -51.501 -36.5s-40.834 -13.5 -63.501 -13.5c-19.333 0 -39 2.66699 -59 8s-38 14.666 -54 27.999s-29.167 30.5 -39.5 51.5s-15.5 47.833 -15.5 80.5v392
c0 23.333 4 45 12 65s19.333 37.333 34 52s32.167 26.167 52.5 34.5s42.833 12.5 67.5 12.5c48 0 87 -15.667 117 -47c14.667 -15.333 26.167 -33.5 34.5 -54.5s12.5 -43.833 12.5 -68.5v-40h-102v34c0 20 -5.66699 37.333 -17 52s-26.666 22 -45.999 22
c-25.333 0 -42.166 -7.83301 -50.499 -23.5s-12.5 -35.5 -12.5 -59.5v-364c0 -20.667 4.5 -38 13.5 -52s25.167 -21 48.5 -21c6.66699 0 13.834 1.16699 21.501 3.5s14.834 6.16602 21.501 11.499c6 5.33301 11 12.666 15 21.999s6 21 6 35v35h102zM157.998 756.003v102h90
v-102h-90z" />
    <glyph glyph-name="cdotaccent" unicode="&#x10b;" 
d="M150 146c0 -16 4.50195 -28.3311 13.502 -36.998s21.167 -13 36.5 -13c19.333 0 32.166 5.66699 38.499 17s10.166 22.666 11.499 33.999h102c0 -44.667 -13.667 -80.667 -41 -108c-13.333 -14 -29.333 -25 -48 -33s-39.667 -12 -63 -12c-32 0 -59.167 6.66699 -81.5 20
s-39.5 31 -51.5 53c-7.33301 13.333 -12.333 28.666 -15 45.999s-4 36.333 -4 57v167c0 20.667 1.33301 39.667 4 57s7.66699 32.666 15 45.999c12 22 29.167 39.667 51.5 53s49.5 20 81.5 20c23.333 0 44.5 -4 63.5 -12s35.167 -19 48.5 -33c26.667 -30 40 -69 40 -117
h-102c0 20.667 -4.5 35.834 -13.5 45.501s-21.167 14.5 -36.5 14.5s-27.5 -4.83301 -36.5 -14.5s-13.5 -24.167 -13.5 -43.5v-207zM140.002 586.002v102h90v-102h-90z" />
    <glyph glyph-name="Ccaron" unicode="&#x10c;" horiz-adv-x="407" 
d="M372 203l-0.00195312 -43.9971c0 -22 -4.16699 -42.833 -12.5 -62.5s-19.833 -37.167 -34.5 -52.5s-31.834 -27.5 -51.501 -36.5s-40.834 -13.5 -63.501 -13.5c-19.333 0 -39 2.66699 -59 8s-38 14.666 -54 27.999s-29.167 30.5 -39.5 51.5s-15.5 47.833 -15.5 80.5v392
c0 23.333 4 45 12 65s19.333 37.333 34 52s32.167 26.167 52.5 34.5s42.833 12.5 67.5 12.5c48 0 87 -15.667 117 -47c14.667 -15.333 26.167 -33.5 34.5 -54.5s12.5 -43.833 12.5 -68.5v-40h-102v34c0 20 -5.66699 37.333 -17 52s-26.666 22 -45.999 22
c-25.333 0 -42.166 -7.83301 -50.499 -23.5s-12.5 -35.5 -12.5 -59.5v-364c0 -20.667 4.5 -38 13.5 -52s25.167 -21 48.5 -21c6.66699 0 13.834 1.16699 21.501 3.5s14.834 6.16602 21.501 11.499c6 5.33301 11 12.666 15 21.999s6 21 6 35v35h102zM347.998 885.003
l-98 -141h-94l-98 141h78l67 -95l67 95h78z" />
    <glyph glyph-name="ccaron" unicode="&#x10d;" 
d="M150 146c0 -16 4.50195 -28.3311 13.502 -36.998s21.167 -13 36.5 -13c19.333 0 32.166 5.66699 38.499 17s10.166 22.666 11.499 33.999h102c0 -44.667 -13.667 -80.667 -41 -108c-13.333 -14 -29.333 -25 -48 -33s-39.667 -12 -63 -12c-32 0 -59.167 6.66699 -81.5 20
s-39.5 31 -51.5 53c-7.33301 13.333 -12.333 28.666 -15 45.999s-4 36.333 -4 57v167c0 20.667 1.33301 39.667 4 57s7.66699 32.666 15 45.999c12 22 29.167 39.667 51.5 53s49.5 20 81.5 20c23.333 0 44.5 -4 63.5 -12s35.167 -19 48.5 -33c26.667 -30 40 -69 40 -117
h-102c0 20.667 -4.5 35.834 -13.5 45.501s-21.167 14.5 -36.5 14.5s-27.5 -4.83301 -36.5 -14.5s-13.5 -24.167 -13.5 -43.5v-207zM330.002 715.002l-98 -141h-94l-98 141h78l67 -95l67 95h78z" />
    <glyph glyph-name="Dcaron" unicode="&#x10e;" horiz-adv-x="426" 
d="M48 0v712.001h151c58.667 0 103.167 -16 133.5 -48s45.5 -77.333 45.5 -136v-333c0 -66.667 -16.167 -115.834 -48.5 -147.501s-78.833 -47.5 -139.5 -47.5h-142zM150 616.001v-520h47c28.667 0 49 7.16699 61 21.5s18 36.833 18 67.5v343c0 28 -5.66699 49.667 -17 65
s-32 23 -62 23h-47zM328 885.001l-98 -141h-94l-98 141h78l67 -95l67 95h78z" />
    <glyph glyph-name="dcaron" unicode="&#x10f;" horiz-adv-x="575" 
d="M144 165c0 -20.667 4.00195 -37.334 12.002 -50.001s20.667 -19 38 -19c15.333 0 27.666 5.83301 36.999 17.5s14 26.834 14 45.501v197c0 16 -4.83301 29.167 -14.5 39.5s-21.834 15.5 -36.501 15.5c-19.333 0 -32.5 -6 -39.5 -18s-10.5 -26 -10.5 -42v-186zM245.002 0
v46.001l-19 -20.5c-6 -6.33301 -12.667 -11.833 -20 -16.5s-15.666 -8.33398 -24.999 -11.001s-20.333 -4 -33 -4c-42.667 0 -72.334 16 -89.001 48c-6 11.333 -10.333 25.333 -13 42s-4 39 -4 67v193c0 36.667 1 63.667 3 81c4 33.333 19.667 58.333 47 75
c12.667 8.66699 31.667 13 57 13c20 0 37.833 -4.5 53.5 -13.5s29.167 -21.833 40.5 -38.5h2v251h102v-712h-102zM431.002 536.001v176h102v-102z" />
    <glyph glyph-name="Dcroat" unicode="&#x110;" horiz-adv-x="426" 
d="M150 616v-200h70v-66h-70v-254h47c28.667 0 49 7.16699 61 21.5s18 36.833 18 67.5v343c0 28 -5.66699 49.667 -17 65s-32 23 -62 23h-47zM48 0v350.001h-48v66h48v296h151c58.667 0 103.167 -16 133.5 -48s45.5 -77.333 45.5 -136v-333
c0 -66.667 -16.167 -115.834 -48.5 -147.501s-78.833 -47.5 -139.5 -47.5h-142z" />
    <glyph glyph-name="dcroat" unicode="&#x111;" horiz-adv-x="397" 
d="M245 0v46.001l-19 -20.5c-6 -6.33301 -12.667 -11.833 -20 -16.5s-15.666 -8.33398 -24.999 -11.001s-20.333 -4 -33 -4c-42.667 0 -72.334 16 -89.001 48c-6 11.333 -10.333 25.333 -13 42s-4 39 -4 67v193c0 36.667 1 63.667 3 81c4 33.333 19.667 58.333 47 75
c12.667 8.66699 31.667 13 57 13c20 0 37.833 -4.5 53.5 -13.5s29.167 -21.833 40.5 -38.5h2v141h-110v60h110v50h102v-50h50v-60h-50v-602h-102zM144 165.001c0 -20.667 4.00195 -37.334 12.002 -50.001s20.667 -19 38 -19c15.333 0 27.666 5.83301 36.999 17.5
s14 26.834 14 45.501v197c0 16 -4.83301 29.167 -14.5 39.5s-21.834 15.5 -36.501 15.5c-19.333 0 -32.5 -6 -39.5 -18s-10.5 -26 -10.5 -42v-186z" />
    <glyph glyph-name="Emacron" unicode="&#x112;" 
d="M48 0v712h304v-96h-202v-209h176v-96h-176v-209h202v-102h-304zM60 777v60h274v-60h-274z" />
    <glyph glyph-name="emacron" unicode="&#x113;" 
d="M337 215l-201.998 0.00292969v-69c0 -16 4.5 -28.333 13.5 -37s21.167 -13 36.5 -13c19.333 0 32.166 5.66699 38.499 17s10.166 22.666 11.499 33.999h102c0 -44.667 -13.667 -80.667 -41 -108c-13.333 -14 -29.333 -25 -48 -33s-39.667 -12 -63 -12
c-32 0 -59.167 6.66699 -81.5 20s-39.5 31 -51.5 53c-7.33301 13.333 -12.333 28.666 -15 45.999s-4 36.333 -4 57v167c0 20.667 1.33301 39.667 4 57s7.66699 32.666 15 45.999c12 22 29.167 39.667 51.5 53s49.5 20 81.5 20c23.333 0 44.5 -4 63.5 -12
s35.167 -19 48.5 -33c26.667 -30 40 -67.667 40 -113v-140zM135.002 295.003h100v58c0 19.333 -4.5 33.833 -13.5 43.5s-21.167 14.5 -36.5 14.5s-27.5 -4.83301 -36.5 -14.5s-13.5 -24.167 -13.5 -43.5v-58zM47.002 607.003v60h274v-60h-274z" />
    <glyph glyph-name="Ebreve" unicode="&#x114;" 
d="M48 0v712h304v-96h-202v-209h176v-96h-176v-209h202v-102h-304zM355 885c-14 -90.667 -65.335 -136 -154.002 -136s-140 45.333 -154 136h51c1.33301 -9.33301 3.83301 -18.5 7.5 -27.5s9.5 -17.167 17.5 -24.5s18.333 -13.166 31 -17.499s28.334 -6.5 47.001 -6.5
s34.334 2.16699 47.001 6.5s23 10.166 31 17.499s13.833 15.5 17.5 24.5s6.16699 18.167 7.5 27.5h51z" />
    <glyph glyph-name="ebreve" unicode="&#x115;" 
d="M337 215l-201.998 0.00292969v-69c0 -16 4.5 -28.333 13.5 -37s21.167 -13 36.5 -13c19.333 0 32.166 5.66699 38.499 17s10.166 22.666 11.499 33.999h102c0 -44.667 -13.667 -80.667 -41 -108c-13.333 -14 -29.333 -25 -48 -33s-39.667 -12 -63 -12
c-32 0 -59.167 6.66699 -81.5 20s-39.5 31 -51.5 53c-7.33301 13.333 -12.333 28.666 -15 45.999s-4 36.333 -4 57v167c0 20.667 1.33301 39.667 4 57s7.66699 32.666 15 45.999c12 22 29.167 39.667 51.5 53s49.5 20 81.5 20c23.333 0 44.5 -4 63.5 -12
s35.167 -19 48.5 -33c26.667 -30 40 -67.667 40 -113v-140zM135.002 295.003h100v58c0 19.333 -4.5 33.833 -13.5 43.5s-21.167 14.5 -36.5 14.5s-27.5 -4.83301 -36.5 -14.5s-13.5 -24.167 -13.5 -43.5v-58zM339.002 715.003c-14 -90.667 -65.335 -136 -154.002 -136
s-140 45.333 -154 136h51c1.33301 -9.33301 3.83301 -18.5 7.5 -27.5s9.5 -17.167 17.5 -24.5s18.333 -13.166 31 -17.499s28.334 -6.5 47.001 -6.5s34.334 2.16699 47.001 6.5s23 10.166 31 17.499s13.833 15.5 17.5 24.5s6.16699 18.167 7.5 27.5h51z" />
    <glyph glyph-name="Edotaccent" unicode="&#x116;" 
d="M48 0v712h304v-96h-202v-209h176v-96h-176v-209h202v-102h-304zM160 756v102h90v-102h-90z" />
    <glyph glyph-name="edotaccent" unicode="&#x117;" 
d="M337 215l-201.998 0.00292969v-69c0 -16 4.5 -28.333 13.5 -37s21.167 -13 36.5 -13c19.333 0 32.166 5.66699 38.499 17s10.166 22.666 11.499 33.999h102c0 -44.667 -13.667 -80.667 -41 -108c-13.333 -14 -29.333 -25 -48 -33s-39.667 -12 -63 -12
c-32 0 -59.167 6.66699 -81.5 20s-39.5 31 -51.5 53c-7.33301 13.333 -12.333 28.666 -15 45.999s-4 36.333 -4 57v167c0 20.667 1.33301 39.667 4 57s7.66699 32.666 15 45.999c12 22 29.167 39.667 51.5 53s49.5 20 81.5 20c23.333 0 44.5 -4 63.5 -12
s35.167 -19 48.5 -33c26.667 -30 40 -67.667 40 -113v-140zM135.002 295.003h100v58c0 19.333 -4.5 33.833 -13.5 43.5s-21.167 14.5 -36.5 14.5s-27.5 -4.83301 -36.5 -14.5s-13.5 -24.167 -13.5 -43.5v-58zM140.002 586.003v102h90v-102h-90z" />
    <glyph glyph-name="Eogonek" unicode="&#x118;" 
d="M48 0v712h304v-96h-202v-209h176v-96h-176v-209h202v-102h-304zM352 -202c-10 -5.33301 -23.166 -10.334 -39.499 -15.001s-35.5 -7 -57.5 -7c-28 0 -51.5 8.16699 -70.5 24.5s-28.5 38.5 -28.5 66.5c0 16 2.33301 30.333 7 43s11.334 24.334 20.001 35.001
c8.66699 10 18.5 19.333 29.5 28s23.167 17.667 36.5 27h51c-20 -19.333 -35.667 -40 -47 -62s-17 -43.333 -17 -64c0 -16 4.83301 -28.667 14.5 -38s21.167 -14 34.5 -14c11.333 0 21.166 1.16699 29.499 3.5s16.166 5.5 23.499 9.5z" />
    <glyph glyph-name="eogonek" unicode="&#x119;" 
d="M276 -202c-10 -5.33301 -23.1641 -10.332 -39.4971 -14.999s-35.5 -7 -57.5 -7c-28 0 -51.5 8.16699 -70.5 24.5s-28.5 38.5 -28.5 66.5c0 16 2.33301 30.333 7 43s11.334 24.334 20.001 35.001c7.33301 9.33301 16 17.833 26 25.5l32 24.5
c-26.667 2.66699 -49.5 10.334 -68.5 23.001s-33.833 29 -44.5 49c-7.33301 13.333 -12.333 28.666 -15 45.999s-4 36.333 -4 57v167c0 20.667 1.33301 39.667 4 57s7.66699 32.666 15 45.999c12 22 29.167 39.667 51.5 53s49.5 20 81.5 20c23.333 0 44.5 -4 63.5 -12
s35.167 -19 48.5 -33c26.667 -30 40 -67.667 40 -113v-140h-202v-69c0 -16 4.5 -28.333 13.5 -37s21.167 -13 36.5 -13c19.333 0 32.166 5.66699 38.499 17s10.166 22.666 11.499 33.999h102c0 -44.667 -13.667 -80.667 -41 -108c-20.667 -21.333 -45.667 -35 -75 -41
c-19.333 -19.333 -34.333 -39.833 -45 -61.5s-16 -42.5 -16 -62.5c0 -16 4.83301 -28.667 14.5 -38s21.167 -14 34.5 -14c11.333 0 21.166 1.16699 29.499 3.5s16.166 5.5 23.499 9.5zM135.003 295.001h100v58c0 19.333 -4.5 33.833 -13.5 43.5s-21.167 14.5 -36.5 14.5
s-27.5 -4.83301 -36.5 -14.5s-13.5 -24.167 -13.5 -43.5v-58z" />
    <glyph glyph-name="Ecaron" unicode="&#x11a;" 
d="M48 0v712h304v-96h-202v-209h176v-96h-176v-209h202v-102h-304zM347 885l-98 -141h-94l-98 141h78l67 -95l67 95h78z" />
    <glyph glyph-name="ecaron" unicode="&#x11b;" 
d="M337 215l-201.998 0.00292969v-69c0 -16 4.5 -28.333 13.5 -37s21.167 -13 36.5 -13c19.333 0 32.166 5.66699 38.499 17s10.166 22.666 11.499 33.999h102c0 -44.667 -13.667 -80.667 -41 -108c-13.333 -14 -29.333 -25 -48 -33s-39.667 -12 -63 -12
c-32 0 -59.167 6.66699 -81.5 20s-39.5 31 -51.5 53c-7.33301 13.333 -12.333 28.666 -15 45.999s-4 36.333 -4 57v167c0 20.667 1.33301 39.667 4 57s7.66699 32.666 15 45.999c12 22 29.167 39.667 51.5 53s49.5 20 81.5 20c23.333 0 44.5 -4 63.5 -12
s35.167 -19 48.5 -33c26.667 -30 40 -67.667 40 -113v-140zM135.002 295.003h100v58c0 19.333 -4.5 33.833 -13.5 43.5s-21.167 14.5 -36.5 14.5s-27.5 -4.83301 -36.5 -14.5s-13.5 -24.167 -13.5 -43.5v-58zM329.002 715.003l-98 -141h-94l-98 141h78l67 -95l67 95h78z" />
    <glyph glyph-name="Gcircumflex" unicode="&#x11c;" horiz-adv-x="426" 
d="M42 544c0 28.667 5 54 15 76s23.333 40.333 40 55c16 14 34.167 24.667 54.5 32s40.833 11 61.5 11s41.167 -3.66699 61.5 -11s38.833 -18 55.5 -32c16 -14.667 29 -33 39 -55s15 -47.333 15 -76v-36h-102v36c0 24.667 -6.83301 42.834 -20.5 54.501
s-29.834 17.5 -48.501 17.5s-34.834 -5.83301 -48.501 -17.5s-20.5 -29.834 -20.5 -54.501v-376c0 -24.667 6.83301 -42.834 20.5 -54.501s29.834 -17.5 48.501 -17.5s34.834 5.83301 48.501 17.5s20.5 29.834 20.5 54.501v134h-81v90h183v-224c0 -30 -5 -55.667 -15 -77
s-23 -39 -39 -53c-16.667 -14.667 -35.167 -25.667 -55.5 -33s-40.833 -11 -61.5 -11s-41.167 3.66699 -61.5 11s-38.5 18.333 -54.5 33c-16.667 14 -30 31.667 -40 53s-15 47 -15 77v376zM68 744l98 141h94l98 -141h-78l-67 95l-67 -95h-78z" />
    <glyph glyph-name="gcircumflex" unicode="&#x11d;" horiz-adv-x="389" 
d="M144 -59c0.666992 -12 5.50195 -23.332 14.502 -33.999s22.167 -16 39.5 -16c16.667 0 28.667 5.16699 36 15.5s11 23.5 11 39.5v100h-2c-11.333 -16.667 -24.833 -29.5 -40.5 -38.5s-33.834 -13.5 -54.501 -13.5c-42.667 0 -72.334 16 -89.001 48
c-6 11.333 -10.333 25.333 -13 42s-4 39 -4 67v193c0 36.667 1 63.667 3 81c4 33.333 19.667 58.333 47 75c12.667 8.66699 31.667 13 57 13c12.667 0 23.5 -1.33301 32.5 -4s17.167 -6.33398 24.5 -11.001s14 -10.167 20 -16.5l19 -20.5v46h102v-569
c0 -17.333 -2.83301 -34.833 -8.5 -52.5s-14.834 -33.5 -27.501 -47.5c-12.667 -14.667 -28.667 -26.5 -48 -35.5s-42.333 -13.5 -69 -13.5c-15.333 0 -31.333 2.5 -48 7.5s-32 13.5 -46 25.5c-14.667 11.333 -27.167 26.5 -37.5 45.5s-17.166 43.5 -20.499 73.5h102z
M144.002 156.001c0 -16 3.49805 -30 10.498 -42s20.167 -18 39.5 -18c14.667 0 26.834 5.16699 36.501 15.5s14.5 23.5 14.5 39.5v197c0 18.667 -4.66699 33.834 -14 45.501s-21.666 17.5 -36.999 17.5c-17.333 0 -30 -6.33301 -38 -19s-12 -29.334 -12 -50.001v-186z
M49 574.001l98 141h94l98 -141h-78l-67 95l-67 -95h-78z" />
    <glyph glyph-name="Gbreve" unicode="&#x11e;" horiz-adv-x="426" 
d="M42 544c0 28.667 5 54 15 76s23.333 40.333 40 55c16 14 34.167 24.667 54.5 32s40.833 11 61.5 11s41.167 -3.66699 61.5 -11s38.833 -18 55.5 -32c16 -14.667 29 -33 39 -55s15 -47.333 15 -76v-36h-102v36c0 24.667 -6.83301 42.834 -20.5 54.501
s-29.834 17.5 -48.501 17.5s-34.834 -5.83301 -48.501 -17.5s-20.5 -29.834 -20.5 -54.501v-376c0 -24.667 6.83301 -42.834 20.5 -54.501s29.834 -17.5 48.501 -17.5s34.834 5.83301 48.501 17.5s20.5 29.834 20.5 54.501v134h-81v90h183v-224c0 -30 -5 -55.667 -15 -77
s-23 -39 -39 -53c-16.667 -14.667 -35.167 -25.667 -55.5 -33s-40.833 -11 -61.5 -11s-41.167 3.66699 -61.5 11s-38.5 18.333 -54.5 33c-16.667 14 -30 31.667 -40 53s-15 47 -15 77v376zM367 885c-14 -90.667 -65.335 -136 -154.002 -136s-140 45.333 -154 136h51
c1.33301 -9.33301 3.83301 -18.5 7.5 -27.5s9.5 -17.167 17.5 -24.5s18.333 -13.166 31 -17.499s28.334 -6.5 47.001 -6.5s34.334 2.16699 47.001 6.5s23 10.166 31 17.499s13.833 15.5 17.5 24.5s6.16699 18.167 7.5 27.5h51z" />
    <glyph glyph-name="gbreve" unicode="&#x11f;" horiz-adv-x="389" 
d="M144 -59c0.666992 -12 5.50195 -23.332 14.502 -33.999s22.167 -16 39.5 -16c16.667 0 28.667 5.16699 36 15.5s11 23.5 11 39.5v100h-2c-11.333 -16.667 -24.833 -29.5 -40.5 -38.5s-33.834 -13.5 -54.501 -13.5c-42.667 0 -72.334 16 -89.001 48
c-6 11.333 -10.333 25.333 -13 42s-4 39 -4 67v193c0 36.667 1 63.667 3 81c4 33.333 19.667 58.333 47 75c12.667 8.66699 31.667 13 57 13c12.667 0 23.5 -1.33301 32.5 -4s17.167 -6.33398 24.5 -11.001s14 -10.167 20 -16.5l19 -20.5v46h102v-569
c0 -17.333 -2.83301 -34.833 -8.5 -52.5s-14.834 -33.5 -27.501 -47.5c-12.667 -14.667 -28.667 -26.5 -48 -35.5s-42.333 -13.5 -69 -13.5c-15.333 0 -31.333 2.5 -48 7.5s-32 13.5 -46 25.5c-14.667 11.333 -27.167 26.5 -37.5 45.5s-17.166 43.5 -20.499 73.5h102z
M144.002 156.001c0 -16 3.49805 -30 10.498 -42s20.167 -18 39.5 -18c14.667 0 26.834 5.16699 36.501 15.5s14.5 23.5 14.5 39.5v197c0 18.667 -4.66699 33.834 -14 45.501s-21.666 17.5 -36.999 17.5c-17.333 0 -30 -6.33301 -38 -19s-12 -29.334 -12 -50.001v-186z
M348 715.001c-14 -90.667 -65.335 -136 -154.002 -136s-140 45.333 -154 136h51c1.33301 -9.33301 3.83301 -18.5 7.5 -27.5s9.5 -17.167 17.5 -24.5s18.333 -13.166 31 -17.499s28.334 -6.5 47.001 -6.5s34.334 2.16699 47.001 6.5s23 10.166 31 17.499
s13.833 15.5 17.5 24.5s6.16699 18.167 7.5 27.5h51z" />
    <glyph glyph-name="Gdotaccent" unicode="&#x120;" horiz-adv-x="426" 
d="M42 544c0 28.667 5 54 15 76s23.333 40.333 40 55c16 14 34.167 24.667 54.5 32s40.833 11 61.5 11s41.167 -3.66699 61.5 -11s38.833 -18 55.5 -32c16 -14.667 29 -33 39 -55s15 -47.333 15 -76v-36h-102v36c0 24.667 -6.83301 42.834 -20.5 54.501
s-29.834 17.5 -48.501 17.5s-34.834 -5.83301 -48.501 -17.5s-20.5 -29.834 -20.5 -54.501v-376c0 -24.667 6.83301 -42.834 20.5 -54.501s29.834 -17.5 48.501 -17.5s34.834 5.83301 48.501 17.5s20.5 29.834 20.5 54.501v134h-81v90h183v-224c0 -30 -5 -55.667 -15 -77
s-23 -39 -39 -53c-16.667 -14.667 -35.167 -25.667 -55.5 -33s-40.833 -11 -61.5 -11s-41.167 3.66699 -61.5 11s-38.5 18.333 -54.5 33c-16.667 14 -30 31.667 -40 53s-15 47 -15 77v376zM168 756v102h90v-102h-90z" />
    <glyph glyph-name="gdotaccent" unicode="&#x121;" horiz-adv-x="389" 
d="M144 -59c0.666992 -12 5.50195 -23.332 14.502 -33.999s22.167 -16 39.5 -16c16.667 0 28.667 5.16699 36 15.5s11 23.5 11 39.5v100h-2c-11.333 -16.667 -24.833 -29.5 -40.5 -38.5s-33.834 -13.5 -54.501 -13.5c-42.667 0 -72.334 16 -89.001 48
c-6 11.333 -10.333 25.333 -13 42s-4 39 -4 67v193c0 36.667 1 63.667 3 81c4 33.333 19.667 58.333 47 75c12.667 8.66699 31.667 13 57 13c12.667 0 23.5 -1.33301 32.5 -4s17.167 -6.33398 24.5 -11.001s14 -10.167 20 -16.5l19 -20.5v46h102v-569
c0 -17.333 -2.83301 -34.833 -8.5 -52.5s-14.834 -33.5 -27.501 -47.5c-12.667 -14.667 -28.667 -26.5 -48 -35.5s-42.333 -13.5 -69 -13.5c-15.333 0 -31.333 2.5 -48 7.5s-32 13.5 -46 25.5c-14.667 11.333 -27.167 26.5 -37.5 45.5s-17.166 43.5 -20.499 73.5h102z
M144.002 156.001c0 -16 3.49805 -30 10.498 -42s20.167 -18 39.5 -18c14.667 0 26.834 5.16699 36.501 15.5s14.5 23.5 14.5 39.5v197c0 18.667 -4.66699 33.834 -14 45.501s-21.666 17.5 -36.999 17.5c-17.333 0 -30 -6.33301 -38 -19s-12 -29.334 -12 -50.001v-186z
M149 586.001v102h90v-102h-90z" />
    <glyph glyph-name="Gcommaaccent" unicode="&#x122;" horiz-adv-x="426" 
d="M42 544c0 28.667 5 54 15 76s23.333 40.333 40 55c16 14 34.167 24.667 54.5 32s40.833 11 61.5 11s41.167 -3.66699 61.5 -11s38.833 -18 55.5 -32c16 -14.667 29 -33 39 -55s15 -47.333 15 -76v-36h-102v36c0 24.667 -6.83301 42.834 -20.5 54.501
s-29.834 17.5 -48.501 17.5s-34.834 -5.83301 -48.501 -17.5s-20.5 -29.834 -20.5 -54.501v-376c0 -24.667 6.83301 -42.834 20.5 -54.501s29.834 -17.5 48.501 -17.5s34.834 5.83301 48.501 17.5s20.5 29.834 20.5 54.501v134h-81v90h183v-224c0 -30 -5 -55.667 -15 -77
s-23 -39 -39 -53c-16.667 -14.667 -35.167 -25.667 -55.5 -33s-40.833 -11 -61.5 -11s-41.167 3.66699 -61.5 11s-38.5 18.333 -54.5 33c-16.667 14 -30 31.667 -40 53s-15 47 -15 77v376zM162 -234v176h102v-102z" />
    <glyph glyph-name="gcommaaccent" unicode="&#x123;" horiz-adv-x="389" 
d="M144 -59c0.666992 -12 5.50195 -23.332 14.502 -33.999s22.167 -16 39.5 -16c16.667 0 28.667 5.16699 36 15.5s11 23.5 11 39.5v100h-2c-11.333 -16.667 -24.833 -29.5 -40.5 -38.5s-33.834 -13.5 -54.501 -13.5c-42.667 0 -72.334 16 -89.001 48
c-6 11.333 -10.333 25.333 -13 42s-4 39 -4 67v193c0 36.667 1 63.667 3 81c4 33.333 19.667 58.333 47 75c12.667 8.66699 31.667 13 57 13c12.667 0 23.5 -1.33301 32.5 -4s17.167 -6.33398 24.5 -11.001s14 -10.167 20 -16.5l19 -20.5v46h102v-569
c0 -17.333 -2.83301 -34.833 -8.5 -52.5s-14.834 -33.5 -27.501 -47.5c-12.667 -14.667 -28.667 -26.5 -48 -35.5s-42.333 -13.5 -69 -13.5c-15.333 0 -31.333 2.5 -48 7.5s-32 13.5 -46 25.5c-14.667 11.333 -27.167 26.5 -37.5 45.5s-17.166 43.5 -20.499 73.5h102z
M144.002 156.001c0 -16 3.49805 -30 10.498 -42s20.167 -18 39.5 -18c14.667 0 26.834 5.16699 36.501 15.5s14.5 23.5 14.5 39.5v197c0 18.667 -4.66699 33.834 -14 45.501s-21.666 17.5 -36.999 17.5c-17.333 0 -30 -6.33301 -38 -19s-12 -29.334 -12 -50.001v-186z
M235 762.001v-176h-102v102z" />
    <glyph glyph-name="Hcircumflex" unicode="&#x124;" horiz-adv-x="426" 
d="M48 0v712h102v-305h126v305h102v-712h-102v317h-126v-317h-102zM68 744l98 141h94l98 -141h-78l-67 95l-67 -95h-78z" />
    <glyph glyph-name="hcircumflex" unicode="&#x125;" horiz-adv-x="389" 
d="M42 0l-0.00195312 712h102v-254h2c10.667 16 23.5 29.167 38.5 39.5s34.167 15.5 57.5 15.5c12.667 0 25.334 -2.16699 38.001 -6.5s24 -11.5 34 -21.5s18 -22.833 24 -38.5s9 -34.834 9 -57.501v-389h-102v351c0 18.667 -4.33301 33.334 -13 44.001s-21 16 -37 16
c-19.333 0 -32.666 -6 -39.999 -18s-11 -29.333 -11 -52v-341h-102zM48.998 744l98 141h94l98 -141h-78l-67 95l-67 -95h-78z" />
    <glyph glyph-name="Hbar" unicode="&#x126;" horiz-adv-x="431" 
d="M380 587v-587h-102v317h-126v-317h-102v587h-53v70h53v55h102v-55h126v55h102v-55h54v-70h-54zM278 407v180h-126v-180h126z" />
    <glyph glyph-name="hbar" unicode="&#x127;" horiz-adv-x="397" 
d="M152 554l-0.00195312 -106h2c10.667 16 23.5 29.167 38.5 39.5s34.167 15.5 57.5 15.5c12.667 0 25.334 -2.16699 38.001 -6.5s24 -11.5 34 -21.5s18 -22.833 24 -38.5s9 -34.834 9 -57.501v-379h-102v341c0 18.667 -4.33301 33.334 -13 44.001s-21 16 -37 16
c-19.333 0 -32.666 -6 -39.999 -18s-11 -29.333 -11 -52v-331h-102v554h-50v60h50v98h102v-98h110v-60h-110z" />
    <glyph glyph-name="Itilde" unicode="&#x128;" horiz-adv-x="204" 
d="M51 0v712h102v-712h-102zM272 869c-3.33301 -15.333 -7.33203 -29.667 -11.999 -43s-11 -25 -19 -35s-17.667 -18 -29 -24s-25 -9 -41 -9c-8 0 -18.833 2 -32.5 6s-27.834 8.66699 -42.501 14c-7.33301 2.66699 -14.333 5 -21 7s-13.334 4.33301 -20.001 7
c-13.333 4 -22.666 6 -27.999 6c-14 0 -24.667 -4.16699 -32 -12.5s-11.333 -19.166 -12 -32.499h-51c5.33301 32.667 15.666 58.667 30.999 78c8 10 17.667 18 29 24s25 9 41 9c8 0 18.833 -2 32.5 -6s27.834 -8.66699 42.501 -14s28.5 -10 41.5 -14s22.167 -6 27.5 -6
c14 0 24.667 4.16699 32 12.5s11.333 19.166 12 32.499h51z" />
    <glyph glyph-name="itilde" unicode="&#x129;" horiz-adv-x="186" 
d="M42 0v507h102v-507h-102zM263 699c-3.33301 -15.333 -7.33203 -29.667 -11.999 -43s-11 -25 -19 -35s-17.667 -18 -29 -24s-25 -9 -41 -9c-8 0 -18.833 2 -32.5 6s-27.834 8.66699 -42.501 14c-7.33301 2.66699 -14.333 5 -21 7s-13.334 4.33301 -20.001 7
c-13.333 4 -22.666 6 -27.999 6c-14 0 -24.667 -4.16699 -32 -12.5s-11.333 -19.166 -12 -32.499h-51c5.33301 32.667 15.666 58.667 30.999 78c8 10 17.667 18 29 24s25 9 41 9c8 0 18.833 -2 32.5 -6s27.834 -8.66699 42.501 -14s28.5 -10 41.5 -14s22.167 -6 27.5 -6
c14 0 24.667 4.16699 32 12.5s11.333 19.166 12 32.499h51z" />
    <glyph glyph-name="Imacron" unicode="&#x12a;" horiz-adv-x="204" 
d="M51 0v712h102v-712h-102zM-35 777v60h274v-60h-274z" />
    <glyph glyph-name="imacron" unicode="&#x12b;" horiz-adv-x="186" 
d="M42 0v507h102v-507h-102zM-44 607v60h274v-60h-274z" />
    <glyph glyph-name="Ibreve" unicode="&#x12c;" horiz-adv-x="204" 
d="M51 0v712h102v-712h-102zM256 885c-14 -90.667 -65.335 -136 -154.002 -136s-140 45.333 -154 136h51c1.33301 -9.33301 3.83301 -18.5 7.5 -27.5s9.5 -17.167 17.5 -24.5s18.333 -13.166 31 -17.499s28.334 -6.5 47.001 -6.5s34.334 2.16699 47.001 6.5
s23 10.166 31 17.499s13.833 15.5 17.5 24.5s6.16699 18.167 7.5 27.5h51z" />
    <glyph glyph-name="ibreve" unicode="&#x12d;" horiz-adv-x="186" 
d="M42 0v507h102v-507h-102zM247 715c-14 -90.667 -65.335 -136 -154.002 -136s-140 45.333 -154 136h51c1.33301 -9.33301 3.83301 -18.5 7.5 -27.5s9.5 -17.167 17.5 -24.5s18.333 -13.166 31 -17.499s28.334 -6.5 47.001 -6.5s34.334 2.16699 47.001 6.5
s23 10.166 31 17.499s13.833 15.5 17.5 24.5s6.16699 18.167 7.5 27.5h51z" />
    <glyph glyph-name="Iogonek" unicode="&#x12e;" horiz-adv-x="204" 
d="M51 0v712h102v-712h-102zM153 -202c-10 -5.33301 -23.166 -10.334 -39.499 -15.001s-35.5 -7 -57.5 -7c-28 0 -51.5 8.16699 -70.5 24.5s-28.5 38.5 -28.5 66.5c0 16 2.33301 30.333 7 43s11.334 24.334 20.001 35.001c8.66699 10 18.5 19.333 29.5 28
s23.167 17.667 36.5 27h51c-20 -19.333 -35.667 -40 -47 -62s-17 -43.333 -17 -64c0 -16 4.83301 -28.667 14.5 -38s21.167 -14 34.5 -14c11.333 0 21.166 1.16699 29.499 3.5s16.166 5.5 23.499 9.5z" />
    <glyph glyph-name="iogonek" unicode="&#x12f;" horiz-adv-x="186" 
d="M191 -202c-10 -5.33301 -23.166 -10.334 -39.499 -15.001s-35.5 -7 -57.5 -7c-28 0 -51.5 8.16699 -70.5 24.5s-28.5 38.5 -28.5 66.5c0 16 2.33301 30.333 7 43s11.334 24.334 20.001 35.001c8.66699 10 18.5 19.333 29.5 28s23.167 17.667 36.5 27h-46v507h102v-507h-5
c-20 -19.333 -35.667 -40 -47 -62s-17 -43.333 -17 -64c0 -16 4.83301 -28.667 14.5 -38s21.167 -14 34.5 -14c11.333 0 21.166 1.16699 29.499 3.5s16.166 5.5 23.499 9.5zM42.001 609.999v102h102v-102h-102z" />
    <glyph glyph-name="Idotaccent" unicode="&#x130;" horiz-adv-x="204" 
d="M51 0v712h102v-712h-102zM57 756v102h90v-102h-90z" />
    <glyph glyph-name="dotlessi" unicode="&#x131;" horiz-adv-x="186" 
d="M42 0v507h102v-507h-102z" />
    <glyph glyph-name="IJ" unicode="&#x132;" horiz-adv-x="537" 
d="M51 0v712h102v-712h-102zM489 712l0.000976562 -543.999c0 -48.667 -15.333 -89.334 -46 -122.001c-15.333 -16 -33.5 -28.667 -54.5 -38s-45.5 -14 -73.5 -14c-32.667 0 -59.834 7.16699 -81.501 21.5s-38.834 28.5 -51.501 42.5l80 64
c7.33301 -7.33301 15.833 -13.5 25.5 -18.5s19.834 -7.5 30.501 -7.5c6 0 13 1.16699 21 3.5s15.667 6.83301 23 13.5c7.33301 6 13.333 14.5 18 25.5s7 25.5 7 43.5v530h102z" />
    <glyph glyph-name="ij" unicode="&#x133;" horiz-adv-x="372" 
d="M42 0v507h102v-507h-102zM42 610v102h102v-102h-102zM228 507l102 -0.000976562v-561c0 -50 -15.667 -87.667 -47 -113s-71 -38 -119 -38v96c24.667 0 41.667 6.33301 51 19c5.33301 7.33301 8.83301 16.833 10.5 28.5s2.5 26.834 2.5 45.501v523zM228 609.999v102h102
v-102h-102z" />
    <glyph glyph-name="Jcircumflex" unicode="&#x134;" horiz-adv-x="333" 
d="M285 712l0.000976562 -543.999c0 -48.667 -15.333 -89.334 -46 -122.001c-15.333 -16 -33.5 -28.667 -54.5 -38s-45.5 -14 -73.5 -14c-32.667 0 -59.834 7.16699 -81.501 21.5s-38.834 28.5 -51.501 42.5l80 64c7.33301 -7.33301 15.833 -13.5 25.5 -18.5
s19.834 -7.5 30.501 -7.5c6 0 13 1.16699 21 3.5s15.667 6.83301 23 13.5c7.33301 6 13.333 14.5 18 25.5s7 25.5 7 43.5v530h102zM91.001 744.001l98 141h94l98 -141h-78l-67 95l-67 -95h-78z" />
    <glyph glyph-name="jcircumflex" unicode="&#x135;" horiz-adv-x="186" 
d="M42 507l102 -0.000976562v-561c0 -50 -15.667 -87.667 -47 -113s-71 -38 -119 -38v96c24.667 0 41.667 6.33301 51 19c5.33301 7.33301 8.83301 16.833 10.5 28.5s2.5 26.834 2.5 45.501v523zM-52 573.999l98 141h94l98 -141h-78l-67 95l-67 -95h-78z" />
    <glyph glyph-name="Kcommaaccent" unicode="&#x136;" horiz-adv-x="426" 
d="M48 0v712h102v-325h2l149 325h102l-139 -285l165 -427h-108l-116 316l-55 -103v-213h-102zM162 -234v176h102v-102z" />
    <glyph glyph-name="kcommaaccent" unicode="&#x137;" horiz-adv-x="389" 
d="M42 0v712h102v-426h2l123 221h102l-121 -206l146 -301h-111l-92 219l-49 -77v-142h-102zM143 -234v176h102v-102z" />
    <glyph glyph-name="kgreenlandic" unicode="&#x138;" horiz-adv-x="389" 
d="M42 0v507h102v-221h2l123 221h102l-121 -206l146 -301h-111l-92 219l-49 -77v-142h-102z" />
    <glyph glyph-name="Lacute" unicode="&#x139;" 
d="M48 0v712h102v-610h202v-102h-304zM64 744l90 141h108l-132 -141h-66z" />
    <glyph glyph-name="lacute" unicode="&#x13a;" horiz-adv-x="186" 
d="M36 712l102 -0.000976562v-569c0 -19.333 3.5 -32.5 10.5 -39.5s20.167 -11.5 39.5 -13.5v-96c-23.333 0 -44.333 1.83301 -63 5.5s-34.667 10.834 -48 21.501c-13.333 10 -23.5 24.167 -30.5 42.5s-10.5 42.5 -10.5 72.5v576zM28 753.999l90 141h108l-132 -141h-66z" />
    <glyph glyph-name="Lcommaaccent" unicode="&#x13b;" 
d="M48 0v712h102v-610h202v-102h-304zM134 -234v176h102v-102z" />
    <glyph glyph-name="lcommaaccent" unicode="&#x13c;" horiz-adv-x="186" 
d="M36 712l102 -0.000976562v-569c0 -19.333 3.5 -32.5 10.5 -39.5s20.167 -11.5 39.5 -13.5v-96c-23.333 0 -44.333 1.83301 -63 5.5s-34.667 10.834 -48 21.501c-13.333 10 -23.5 24.167 -30.5 42.5s-10.5 42.5 -10.5 72.5v576zM42 -234.001v176h102v-102z" />
    <glyph glyph-name="Lcaron" unicode="&#x13d;" 
d="M48 0v712h102v-610h202v-102h-304zM239 536v176h102v-102z" />
    <glyph glyph-name="lcaron" unicode="&#x13e;" horiz-adv-x="372" 
d="M36 712l102 -0.000976562v-569c0 -19.333 3.5 -32.5 10.5 -39.5s20.167 -11.5 39.5 -13.5v-96c-23.333 0 -44.333 1.83301 -63 5.5s-34.667 10.834 -48 21.501c-13.333 10 -23.5 24.167 -30.5 42.5s-10.5 42.5 -10.5 72.5v576zM228 535.999v176h102v-102z" />
    <glyph glyph-name="Ldot" unicode="&#x13f;" 
d="M48 0v712h102v-610h202v-102h-304zM232 313v102h90v-102h-90z" />
    <glyph glyph-name="ldot" unicode="&#x140;" horiz-adv-x="295" 
d="M36 712l102 -0.000976562v-569c0 -19.333 3.5 -32.5 10.5 -39.5s20.167 -11.5 39.5 -13.5v-96c-23.333 0 -44.333 1.83301 -63 5.5s-34.667 10.834 -48 21.501c-13.333 10 -23.5 24.167 -30.5 42.5s-10.5 42.5 -10.5 72.5v576zM182 301.999v102h90v-102h-90z" />
    <glyph glyph-name="Lslash" unicode="&#x141;" 
d="M48 0v265l-48 -38v90l48 38v357h102v-277l120 96v-90l-120 -96v-243h202v-102h-304z" />
    <glyph glyph-name="lslash" unicode="&#x142;" horiz-adv-x="186" 
d="M36 308l-50 -44.001v72l50 44v332h102v-242l50 43v-72l-50 -43v-255c0 -19.333 3.5 -32.5 10.5 -39.5s20.167 -11.5 39.5 -13.5v-96c-23.333 0 -44.333 1.83301 -63 5.5s-34.667 10.834 -48 21.501c-13.333 10 -23.5 24.167 -30.5 42.5s-10.5 42.5 -10.5 72.5v172z" />
    <glyph glyph-name="Nacute" unicode="&#x143;" horiz-adv-x="444" 
d="M44 0v712h98l154 -429h2v429h102v-712h-96l-156 428h-2v-428h-102zM187 744l90 141h108l-132 -141h-66z" />
    <glyph glyph-name="nacute" unicode="&#x144;" horiz-adv-x="389" 
d="M42 0l-0.00195312 507h102v-49h2c10.667 16 23.5 29.167 38.5 39.5s34.167 15.5 57.5 15.5c12.667 0 25.334 -2.16699 38.001 -6.5s24 -11.5 34 -21.5s18 -22.833 24 -38.5s9 -34.834 9 -57.501v-389h-102v351c0 18.667 -4.33301 33.334 -13 44.001s-21 16 -37 16
c-19.333 0 -32.666 -6 -39.999 -18s-11 -29.333 -11 -52v-341h-102zM128.998 574l90 141h108l-132 -141h-66z" />
    <glyph glyph-name="Ncommaaccent" unicode="&#x145;" horiz-adv-x="444" 
d="M44 0v712h98l154 -429h2v429h102v-712h-96l-156 428h-2v-428h-102zM171 -234v176h102v-102z" />
    <glyph glyph-name="ncommaaccent" unicode="&#x146;" horiz-adv-x="389" 
d="M42 0l-0.00195312 507h102v-49h2c10.667 16 23.5 29.167 38.5 39.5s34.167 15.5 57.5 15.5c12.667 0 25.334 -2.16699 38.001 -6.5s24 -11.5 34 -21.5s18 -22.833 24 -38.5s9 -34.834 9 -57.501v-389h-102v351c0 18.667 -4.33301 33.334 -13 44.001s-21 16 -37 16
c-19.333 0 -32.666 -6 -39.999 -18s-11 -29.333 -11 -52v-341h-102zM142.998 -234v176h102v-102z" />
    <glyph glyph-name="Ncaron" unicode="&#x147;" horiz-adv-x="444" 
d="M44 0v712h98l154 -429h2v429h102v-712h-96l-156 428h-2v-428h-102zM367 885l-98 -141h-94l-98 141h78l67 -95l67 95h78z" />
    <glyph glyph-name="ncaron" unicode="&#x148;" horiz-adv-x="389" 
d="M42 0l-0.00195312 507h102v-49h2c10.667 16 23.5 29.167 38.5 39.5s34.167 15.5 57.5 15.5c12.667 0 25.334 -2.16699 38.001 -6.5s24 -11.5 34 -21.5s18 -22.833 24 -38.5s9 -34.834 9 -57.501v-389h-102v351c0 18.667 -4.33301 33.334 -13 44.001s-21 16 -37 16
c-19.333 0 -32.666 -6 -39.999 -18s-11 -29.333 -11 -52v-341h-102zM338.998 715l-98 -141h-94l-98 141h78l67 -95l67 95h78z" />
    <glyph glyph-name="napostrophe" unicode="&#x149;" horiz-adv-x="523" 
d="M176 0l-0.00195312 507h102v-49h2c10.667 16 23.5 29.167 38.5 39.5s34.167 15.5 57.5 15.5c12.667 0 25.334 -2.16699 38.001 -6.5s24 -11.5 34 -21.5s18 -22.833 24 -38.5s9 -34.834 9 -57.501v-389h-102v351c0 18.667 -4.33301 33.334 -13 44.001s-21 16 -37 16
c-19.333 0 -32.666 -6 -39.999 -18s-11 -29.333 -11 -52v-341h-102zM31.998 403v176h102v-102z" />
    <glyph glyph-name="Eng" unicode="&#x14a;" horiz-adv-x="444" 
d="M44 0l0.00195312 712h98l154 -429h2v429h102v-719c0 -30.667 -3.16699 -58.5 -9.5 -83.5s-16.5 -46.5 -30.5 -64.5s-31.833 -31.833 -53.5 -41.5s-47.834 -14.5 -78.501 -14.5v96h3c17.333 0 30.5 2.66699 39.5 8s16.167 13 21.5 23
c5.33301 10.667 8.66602 23.167 9.99902 37.5s2 29.833 2 46.5l-156 428h-2v-428h-102z" />
    <glyph glyph-name="eng" unicode="&#x14b;" horiz-adv-x="389" 
d="M245 351c0 18.667 -4.33496 33.333 -13.002 44s-21 16 -37 16c-19.333 0 -32.666 -6 -39.999 -18s-11 -29.333 -11 -52v-341h-102v507h102v-49h2c10.667 16 23.5 29.167 38.5 39.5s34.167 15.5 57.5 15.5c12.667 0 25.334 -2.16699 38.001 -6.5s24 -11.5 34 -21.5
s18 -22.833 24 -38.5s9 -34.834 9 -57.501v-443c0 -50 -15.667 -87.667 -47 -113s-71 -38 -119 -38v96c24.667 0 41.667 6.33301 51 19c5.33301 7.33301 8.83301 16.833 10.5 28.5s2.5 26.834 2.5 45.501v367v0z" />
    <glyph glyph-name="Omacron" unicode="&#x14c;" horiz-adv-x="426" 
d="M42 544c0 28.667 5 54 15 76s23.333 40.333 40 55c16 14 34.167 24.667 54.5 32s40.833 11 61.5 11s41.167 -3.66699 61.5 -11s38.833 -18 55.5 -32c16 -14.667 29 -33 39 -55s15 -47.333 15 -76v-376c0 -30 -5 -55.667 -15 -77s-23 -39 -39 -53
c-16.667 -14.667 -35.167 -25.667 -55.5 -33s-40.833 -11 -61.5 -11s-41.167 3.66699 -61.5 11s-38.5 18.333 -54.5 33c-16.667 14 -30 31.667 -40 53s-15 47 -15 77v376zM144 168c0 -24.667 6.83301 -42.834 20.5 -54.501s29.834 -17.5 48.501 -17.5
s34.834 5.83301 48.501 17.5s20.5 29.834 20.5 54.501v376c0 24.667 -6.83301 42.834 -20.5 54.501s-29.834 17.5 -48.501 17.5s-34.834 -5.83301 -48.501 -17.5s-20.5 -29.834 -20.5 -54.501v-376zM76 777v60h274v-60h-274z" />
    <glyph glyph-name="omacron" unicode="&#x14d;" 
d="M33 337c0 20.667 1.33301 39.667 4 57s7.66699 32.666 15 45.999c12 22 29.167 39.667 51.5 53s49.5 20 81.5 20s59.167 -6.66699 81.5 -20s39.5 -31 51.5 -53c7.33301 -13.333 12.333 -28.666 15 -45.999s4 -36.333 4 -57v-167c0 -20.667 -1.33301 -39.667 -4 -57
s-7.66699 -32.666 -15 -45.999c-12 -22 -29.167 -39.667 -51.5 -53s-49.5 -20 -81.5 -20s-59.167 6.66699 -81.5 20s-39.5 31 -51.5 53c-7.33301 13.333 -12.333 28.666 -15 45.999s-4 36.333 -4 57v167zM135 154c0 -19.333 4.5 -33.833 13.5 -43.5s21.167 -14.5 36.5 -14.5
s27.5 4.83301 36.5 14.5s13.5 24.167 13.5 43.5v199c0 19.333 -4.5 33.833 -13.5 43.5s-21.167 14.5 -36.5 14.5s-27.5 -4.83301 -36.5 -14.5s-13.5 -24.167 -13.5 -43.5v-199zM48 607v60h274v-60h-274z" />
    <glyph glyph-name="Obreve" unicode="&#x14e;" horiz-adv-x="426" 
d="M42 544c0 28.667 5 54 15 76s23.333 40.333 40 55c16 14 34.167 24.667 54.5 32s40.833 11 61.5 11s41.167 -3.66699 61.5 -11s38.833 -18 55.5 -32c16 -14.667 29 -33 39 -55s15 -47.333 15 -76v-376c0 -30 -5 -55.667 -15 -77s-23 -39 -39 -53
c-16.667 -14.667 -35.167 -25.667 -55.5 -33s-40.833 -11 -61.5 -11s-41.167 3.66699 -61.5 11s-38.5 18.333 -54.5 33c-16.667 14 -30 31.667 -40 53s-15 47 -15 77v376zM144 168c0 -24.667 6.83301 -42.834 20.5 -54.501s29.834 -17.5 48.501 -17.5
s34.834 5.83301 48.501 17.5s20.5 29.834 20.5 54.501v376c0 24.667 -6.83301 42.834 -20.5 54.501s-29.834 17.5 -48.501 17.5s-34.834 -5.83301 -48.501 -17.5s-20.5 -29.834 -20.5 -54.501v-376zM367 885c-14 -90.667 -65.335 -136 -154.002 -136s-140 45.333 -154 136
h51c1.33301 -9.33301 3.83301 -18.5 7.5 -27.5s9.5 -17.167 17.5 -24.5s18.333 -13.166 31 -17.499s28.334 -6.5 47.001 -6.5s34.334 2.16699 47.001 6.5s23 10.166 31 17.499s13.833 15.5 17.5 24.5s6.16699 18.167 7.5 27.5h51z" />
    <glyph glyph-name="obreve" unicode="&#x14f;" 
d="M33 337c0 20.667 1.33301 39.667 4 57s7.66699 32.666 15 45.999c12 22 29.167 39.667 51.5 53s49.5 20 81.5 20s59.167 -6.66699 81.5 -20s39.5 -31 51.5 -53c7.33301 -13.333 12.333 -28.666 15 -45.999s4 -36.333 4 -57v-167c0 -20.667 -1.33301 -39.667 -4 -57
s-7.66699 -32.666 -15 -45.999c-12 -22 -29.167 -39.667 -51.5 -53s-49.5 -20 -81.5 -20s-59.167 6.66699 -81.5 20s-39.5 31 -51.5 53c-7.33301 13.333 -12.333 28.666 -15 45.999s-4 36.333 -4 57v167zM135 154c0 -19.333 4.5 -33.833 13.5 -43.5s21.167 -14.5 36.5 -14.5
s27.5 4.83301 36.5 14.5s13.5 24.167 13.5 43.5v199c0 19.333 -4.5 33.833 -13.5 43.5s-21.167 14.5 -36.5 14.5s-27.5 -4.83301 -36.5 -14.5s-13.5 -24.167 -13.5 -43.5v-199zM339 715c-14 -90.667 -65.335 -136 -154.002 -136s-140 45.333 -154 136h51
c1.33301 -9.33301 3.83301 -18.5 7.5 -27.5s9.5 -17.167 17.5 -24.5s18.333 -13.166 31 -17.499s28.334 -6.5 47.001 -6.5s34.334 2.16699 47.001 6.5s23 10.166 31 17.499s13.833 15.5 17.5 24.5s6.16699 18.167 7.5 27.5h51z" />
    <glyph glyph-name="Ohungarumlaut" unicode="&#x150;" horiz-adv-x="426" 
d="M42 544c0 28.667 5 54 15 76s23.333 40.333 40 55c16 14 34.167 24.667 54.5 32s40.833 11 61.5 11s41.167 -3.66699 61.5 -11s38.833 -18 55.5 -32c16 -14.667 29 -33 39 -55s15 -47.333 15 -76v-376c0 -30 -5 -55.667 -15 -77s-23 -39 -39 -53
c-16.667 -14.667 -35.167 -25.667 -55.5 -33s-40.833 -11 -61.5 -11s-41.167 3.66699 -61.5 11s-38.5 18.333 -54.5 33c-16.667 14 -30 31.667 -40 53s-15 47 -15 77v376zM144 168c0 -24.667 6.83301 -42.834 20.5 -54.501s29.834 -17.5 48.501 -17.5
s34.834 5.83301 48.501 17.5s20.5 29.834 20.5 54.501v376c0 24.667 -6.83301 42.834 -20.5 54.501s-29.834 17.5 -48.501 17.5s-34.834 -5.83301 -48.501 -17.5s-20.5 -29.834 -20.5 -54.501v-376zM86 744l90 141h108l-132 -141h-66zM248 744l90 141h108l-132 -141h-66z
" />
    <glyph glyph-name="ohungarumlaut" unicode="&#x151;" 
d="M33 337c0 20.667 1.33301 39.667 4 57s7.66699 32.666 15 45.999c12 22 29.167 39.667 51.5 53s49.5 20 81.5 20s59.167 -6.66699 81.5 -20s39.5 -31 51.5 -53c7.33301 -13.333 12.333 -28.666 15 -45.999s4 -36.333 4 -57v-167c0 -20.667 -1.33301 -39.667 -4 -57
s-7.66699 -32.666 -15 -45.999c-12 -22 -29.167 -39.667 -51.5 -53s-49.5 -20 -81.5 -20s-59.167 6.66699 -81.5 20s-39.5 31 -51.5 53c-7.33301 13.333 -12.333 28.666 -15 45.999s-4 36.333 -4 57v167zM135 154c0 -19.333 4.5 -33.833 13.5 -43.5s21.167 -14.5 36.5 -14.5
s27.5 4.83301 36.5 14.5s13.5 24.167 13.5 43.5v199c0 19.333 -4.5 33.833 -13.5 43.5s-21.167 14.5 -36.5 14.5s-27.5 -4.83301 -36.5 -14.5s-13.5 -24.167 -13.5 -43.5v-199zM38 574l90 141h108l-132 -141h-66zM200 574l90 141h108l-132 -141h-66z" />
    <glyph glyph-name="OE" unicode="&#x152;" horiz-adv-x="610" 
d="M592 712l0.00195312 -95.998h-202v-209h176v-96h-176v-209h202v-102h-304v34h-2c-8.66699 -11.333 -20.834 -20.833 -36.501 -28.5s-31.834 -11.5 -48.501 -11.5c-24 0 -45.333 4.5 -64 13.5s-34.667 21.5 -48 37.5c-13.333 15.333 -23.5 33.166 -30.5 53.499
s-10.5 41.833 -10.5 64.5v386c0 22.667 3.5 44.167 10.5 64.5s17.167 38.166 30.5 53.499s29.333 27.666 48 36.999s40 14 64 14c22 0 39.833 -4.16699 53.5 -12.5s24.167 -18.166 31.5 -29.499h2v36h304zM288.002 554.002c0 20 -6.16699 37.333 -18.5 52
s-29.166 22 -50.499 22s-38.166 -7.33301 -50.499 -22s-18.5 -32 -18.5 -52v-396c0 -20 6.16699 -37.333 18.5 -52s29.166 -22 50.499 -22s38.166 7.33301 50.499 22s18.5 32 18.5 52v396z" />
    <glyph glyph-name="oe" unicode="&#x153;" horiz-adv-x="572" 
d="M33 337c0 20.667 1.33594 39.6699 4.00293 57.0029s7.66699 32.666 15 45.999c12 22 29.167 39.667 51.5 53s49.5 20 81.5 20c21.333 0 40.666 -3.33301 57.999 -10s31.666 -14.667 42.999 -24c26.667 22.667 60.334 34 101.001 34c23.333 0 44.5 -4 63.5 -12
s35.167 -19 48.5 -33c26.667 -30 40 -67.667 40 -113v-140h-202v-69c0 -16 4.5 -28.333 13.5 -37s21.167 -13 36.5 -13c19.333 0 32.166 5.66699 38.499 17s10.166 22.666 11.499 33.999h102c0 -44.667 -13.667 -80.667 -41 -108c-13.333 -14 -29.333 -25 -48 -33
s-39.667 -12 -63 -12c-18.667 0 -38 2.83301 -58 8.5s-35.667 14.5 -47 26.5c-11.333 -10.667 -25.5 -19.167 -42.5 -25.5s-35.167 -9.5 -54.5 -9.5c-32 0 -59.167 6.66699 -81.5 20s-39.5 31 -51.5 53c-7.33301 13.333 -12.333 28.666 -15 45.999s-4 36.333 -4 57v167z
M135.003 154.003c0 -19.333 4.5 -33.833 13.5 -43.5s21.167 -14.5 36.5 -14.5s27.5 4.83301 36.5 14.5s13.5 24.167 13.5 43.5v199c0 19.333 -4.5 33.833 -13.5 43.5s-21.167 14.5 -36.5 14.5s-27.5 -4.83301 -36.5 -14.5s-13.5 -24.167 -13.5 -43.5v-199zM337.003 295.003
h100v58c0 19.333 -4.5 33.833 -13.5 43.5s-21.167 14.5 -36.5 14.5s-27.5 -4.83301 -36.5 -14.5s-13.5 -24.167 -13.5 -43.5v-58z" />
    <glyph glyph-name="Racute" unicode="&#x154;" horiz-adv-x="426" 
d="M150 616v-222h58c18 0 32.333 2.5 43 7.5s19 12.167 25 21.5c5.33301 9.33301 9 20.833 11 34.5s3 29.5 3 47.5s-1 33.833 -3 47.5s-6 25.5 -12 35.5c-12.667 18.667 -36.667 28 -72 28h-53zM48 0v712h164c120 0 180 -69.667 180 -209c0 -42 -6.5 -77.667 -19.5 -107
s-35.833 -53 -68.5 -71l110 -325h-108l-95 304h-61v-304h-102zM148 744l90 141h108l-132 -141h-66z" />
    <glyph glyph-name="racute" unicode="&#x155;" horiz-adv-x="278" 
d="M42 0l0.000976562 507h102v-54c20.667 18.667 41 33.334 61 44.001s44.667 16 74 16v-108c-10 4 -20.333 6 -31 6s-22.167 -1.83301 -34.5 -5.5s-23.5 -9.83398 -33.5 -18.501c-10.667 -8.66699 -19.334 -20 -26.001 -34s-10 -31.333 -10 -52v-301h-102zM74.001 574
l90 141h108l-132 -141h-66z" />
    <glyph glyph-name="Rcommaaccent" unicode="&#x156;" horiz-adv-x="426" 
d="M150 616v-222h58c18 0 32.333 2.5 43 7.5s19 12.167 25 21.5c5.33301 9.33301 9 20.833 11 34.5s3 29.5 3 47.5s-1 33.833 -3 47.5s-6 25.5 -12 35.5c-12.667 18.667 -36.667 28 -72 28h-53zM48 0v712h164c120 0 180 -69.667 180 -209c0 -42 -6.5 -77.667 -19.5 -107
s-35.833 -53 -68.5 -71l110 -325h-108l-95 304h-61v-304h-102zM162 -234v176h102v-102z" />
    <glyph glyph-name="rcommaaccent" unicode="&#x157;" horiz-adv-x="278" 
d="M42 0l0.000976562 507h102v-54c20.667 18.667 41 33.334 61 44.001s44.667 16 74 16v-108c-10 4 -20.333 6 -31 6s-22.167 -1.83301 -34.5 -5.5s-23.5 -9.83398 -33.5 -18.501c-10.667 -8.66699 -19.334 -20 -26.001 -34s-10 -31.333 -10 -52v-301h-102zM45.001 -234v176
h102v-102z" />
    <glyph glyph-name="Rcaron" unicode="&#x158;" horiz-adv-x="426" 
d="M150 616v-222h58c18 0 32.333 2.5 43 7.5s19 12.167 25 21.5c5.33301 9.33301 9 20.833 11 34.5s3 29.5 3 47.5s-1 33.833 -3 47.5s-6 25.5 -12 35.5c-12.667 18.667 -36.667 28 -72 28h-53zM48 0v712h164c120 0 180 -69.667 180 -209c0 -42 -6.5 -77.667 -19.5 -107
s-35.833 -53 -68.5 -71l110 -325h-108l-95 304h-61v-304h-102zM330 885l-98 -141h-94l-98 141h78l67 -95l67 95h78z" />
    <glyph glyph-name="rcaron" unicode="&#x159;" horiz-adv-x="278" 
d="M42 0l0.000976562 507h102v-54c20.667 18.667 41 33.334 61 44.001s44.667 16 74 16v-108c-10 4 -20.333 6 -31 6s-22.167 -1.83301 -34.5 -5.5s-23.5 -9.83398 -33.5 -18.501c-10.667 -8.66699 -19.334 -20 -26.001 -34s-10 -31.333 -10 -52v-301h-102zM284.001 715
l-98 -141h-94l-98 141h78l67 -95l67 95h78z" />
    <glyph glyph-name="Sacute" unicode="&#x15a;" horiz-adv-x="406" 
d="M378 507l-101.998 -0.000976562v23c0 23.333 -5.5 43.5 -16.5 60.5s-29.5 25.5 -55.5 25.5c-14 0 -25.333 -2.66699 -34 -8s-15.667 -12 -21 -20c-5.33301 -8.66699 -9 -18.5 -11 -29.5s-3 -22.5 -3 -34.5c0 -14 0.5 -25.667 1.5 -35s3.5 -17.666 7.5 -24.999
s9.83301 -13.666 17.5 -18.999s18.167 -10.666 31.5 -15.999l78 -31c22.667 -8.66699 41 -18.834 55 -30.501s25 -25.167 33 -40.5c7.33301 -16 12.333 -34.167 15 -54.5s4 -43.5 4 -69.5c0 -30 -3 -57.833 -9 -83.5s-15.667 -47.5 -29 -65.5
c-14 -18.667 -32.333 -33.334 -55 -44.001s-50.334 -16 -83.001 -16c-24.667 0 -47.667 4.33301 -69 13s-39.666 20.667 -54.999 36s-27.5 33.166 -36.5 53.499s-13.5 42.5 -13.5 66.5v38h102v-32c0 -18.667 5.5 -35.5 16.5 -50.5s29.5 -22.5 55.5 -22.5
c17.333 0 30.833 2.5 40.5 7.5s17.167 12.167 22.5 21.5s8.5 20.5 9.5 33.5s1.5 27.5 1.5 43.5c0 18.667 -0.666992 34 -2 46s-4 21.667 -8 29c-4.66699 7.33301 -10.834 13.333 -18.501 18s-17.834 9.66699 -30.501 15l-73 30c-44 18 -73.5 41.833 -88.5 71.5
s-22.5 66.834 -22.5 111.501c0 26.667 3.66699 52 11 76s18.333 44.667 33 62c14 17.333 31.833 31.166 53.5 41.499s47.5 15.5 77.5 15.5c25.333 0 48.5 -4.66699 69.5 -14s39.167 -21.666 54.5 -36.999c30.667 -32 46 -68.667 46 -110v-50zM158.002 743.999l90 141h108
l-132 -141h-66z" />
    <glyph glyph-name="sacute" unicode="&#x15b;" horiz-adv-x="352" 
d="M227 365c-0.666992 17.333 -6.1709 30.3311 -16.5039 38.998s-22.166 13 -35.499 13c-16 0 -28.333 -5.16699 -37 -15.5s-13 -22.166 -13 -35.499c0 -9.33301 2.33301 -18.5 7 -27.5s16.667 -17.167 36 -24.5l60 -24c38 -14.667 64.167 -34.667 78.5 -60
s21.5 -53 21.5 -83c0 -21.333 -3.83301 -41.166 -11.5 -59.499s-18.167 -34.5 -31.5 -48.5s-29.333 -25 -48 -33s-39 -12 -61 -12c-41.333 0 -76 13 -104 39c-14 12.667 -25.333 28.5 -34 47.5s-13.334 41.167 -14.001 66.5h96c2 -14 6.83301 -27 14.5 -39
s21.167 -18 40.5 -18c14.667 0 27.834 4.83301 39.501 14.5s17.5 23.167 17.5 40.5c0 14 -3.66699 26 -11 36s-20.666 18.667 -39.999 26l-49 18c-32 12 -57.167 29.833 -75.5 53.5s-27.5 52.5 -27.5 86.5c0 21.333 4 41.166 12 59.499s19 34.166 33 47.499
c13.333 13.333 29 23.5 47 30.5s37.333 10.5 58 10.5s39.834 -3.66699 57.501 -11s32.834 -17.666 45.501 -30.999s22.667 -29.166 30 -47.499s11 -37.833 11 -58.5h-96zM110.996 573.998l90 141h108l-132 -141h-66z" />
    <glyph glyph-name="Scircumflex" unicode="&#x15c;" horiz-adv-x="406" 
d="M378 507l-101.998 -0.000976562v23c0 23.333 -5.5 43.5 -16.5 60.5s-29.5 25.5 -55.5 25.5c-14 0 -25.333 -2.66699 -34 -8s-15.667 -12 -21 -20c-5.33301 -8.66699 -9 -18.5 -11 -29.5s-3 -22.5 -3 -34.5c0 -14 0.5 -25.667 1.5 -35s3.5 -17.666 7.5 -24.999
s9.83301 -13.666 17.5 -18.999s18.167 -10.666 31.5 -15.999l78 -31c22.667 -8.66699 41 -18.834 55 -30.501s25 -25.167 33 -40.5c7.33301 -16 12.333 -34.167 15 -54.5s4 -43.5 4 -69.5c0 -30 -3 -57.833 -9 -83.5s-15.667 -47.5 -29 -65.5
c-14 -18.667 -32.333 -33.334 -55 -44.001s-50.334 -16 -83.001 -16c-24.667 0 -47.667 4.33301 -69 13s-39.666 20.667 -54.999 36s-27.5 33.166 -36.5 53.499s-13.5 42.5 -13.5 66.5v38h102v-32c0 -18.667 5.5 -35.5 16.5 -50.5s29.5 -22.5 55.5 -22.5
c17.333 0 30.833 2.5 40.5 7.5s17.167 12.167 22.5 21.5s8.5 20.5 9.5 33.5s1.5 27.5 1.5 43.5c0 18.667 -0.666992 34 -2 46s-4 21.667 -8 29c-4.66699 7.33301 -10.834 13.333 -18.501 18s-17.834 9.66699 -30.501 15l-73 30c-44 18 -73.5 41.833 -88.5 71.5
s-22.5 66.834 -22.5 111.501c0 26.667 3.66699 52 11 76s18.333 44.667 33 62c14 17.333 31.833 31.166 53.5 41.499s47.5 15.5 77.5 15.5c25.333 0 48.5 -4.66699 69.5 -14s39.167 -21.666 54.5 -36.999c30.667 -32 46 -68.667 46 -110v-50zM58.002 743.999l98 141h94
l98 -141h-78l-67 95l-67 -95h-78z" />
    <glyph glyph-name="scircumflex" unicode="&#x15d;" horiz-adv-x="352" 
d="M227 365c-0.666992 17.333 -6.1709 30.3311 -16.5039 38.998s-22.166 13 -35.499 13c-16 0 -28.333 -5.16699 -37 -15.5s-13 -22.166 -13 -35.499c0 -9.33301 2.33301 -18.5 7 -27.5s16.667 -17.167 36 -24.5l60 -24c38 -14.667 64.167 -34.667 78.5 -60
s21.5 -53 21.5 -83c0 -21.333 -3.83301 -41.166 -11.5 -59.499s-18.167 -34.5 -31.5 -48.5s-29.333 -25 -48 -33s-39 -12 -61 -12c-41.333 0 -76 13 -104 39c-14 12.667 -25.333 28.5 -34 47.5s-13.334 41.167 -14.001 66.5h96c2 -14 6.83301 -27 14.5 -39
s21.167 -18 40.5 -18c14.667 0 27.834 4.83301 39.501 14.5s17.5 23.167 17.5 40.5c0 14 -3.66699 26 -11 36s-20.666 18.667 -39.999 26l-49 18c-32 12 -57.167 29.833 -75.5 53.5s-27.5 52.5 -27.5 86.5c0 21.333 4 41.166 12 59.499s19 34.166 33 47.499
c13.333 13.333 29 23.5 47 30.5s37.333 10.5 58 10.5s39.834 -3.66699 57.501 -11s32.834 -17.666 45.501 -30.999s22.667 -29.166 30 -47.499s11 -37.833 11 -58.5h-96zM30.9961 573.998l98 141h94l98 -141h-78l-67 95l-67 -95h-78z" />
    <glyph glyph-name="Scedilla" unicode="&#x15e;" horiz-adv-x="406" 
d="M130 -86l59.999 80.998c-22 1.33301 -42.667 6.16602 -62 14.499s-36 19.5 -50 33.5c-15.333 15.333 -27.5 33.166 -36.5 53.499s-13.5 42.5 -13.5 66.5v38h102v-32c0 -18.667 5.5 -35.5 16.5 -50.5s29.5 -22.5 55.5 -22.5c17.333 0 30.833 2.5 40.5 7.5
s17.167 12.167 22.5 21.5s8.5 20.5 9.5 33.5s1.5 27.5 1.5 43.5c0 18.667 -0.666992 34 -2 46s-4 21.667 -8 29c-4.66699 7.33301 -10.834 13.333 -18.501 18s-17.834 9.66699 -30.501 15l-73 30c-44 18 -73.5 41.833 -88.5 71.5s-22.5 66.834 -22.5 111.501
c0 26.667 3.66699 52 11 76s18.333 44.667 33 62c14 17.333 31.833 31.166 53.5 41.499s47.5 15.5 77.5 15.5c25.333 0 48.5 -4.66699 69.5 -14s39.167 -21.666 54.5 -36.999c30.667 -32 46 -68.667 46 -110v-50h-102v23c0 23.333 -5.5 43.5 -16.5 60.5
s-29.5 25.5 -55.5 25.5c-14 0 -25.333 -2.66699 -34 -8s-15.667 -12 -21 -20c-5.33301 -8.66699 -9 -18.5 -11 -29.5s-3 -22.5 -3 -34.5c0 -14 0.5 -25.667 1.5 -35s3.5 -17.666 7.5 -24.999s9.83301 -13.666 17.5 -18.999s18.167 -10.666 31.5 -15.999l78 -31
c22.667 -8.66699 41 -18.834 55 -30.501s25 -25.167 33 -40.5c7.33301 -16 12.333 -34.167 15 -54.5s4 -43.5 4 -69.5c0 -30 -3 -57.833 -9 -83.5s-15.667 -47.5 -29 -65.5c-11.333 -15.333 -25.333 -27.833 -42 -37.5s-36.667 -16.167 -60 -19.5l-43 -57
c5.33301 0.666992 10.5 1.16699 15.5 1.5s10.167 0.5 15.5 0.5c16.667 0 30.334 -2.33301 41.001 -7s19.334 -10.667 26.001 -18c6.66699 -8 11.334 -16.333 14.001 -25s4 -17 4 -25c0 -16 -3.83301 -29.833 -11.5 -41.5s-17.5 -21.167 -29.5 -28.5
s-25.167 -12.666 -39.5 -15.999s-28.5 -5 -42.5 -5c-19.333 0 -37.333 2.33301 -54 7s-29.667 8.66699 -39 12l17 42c10.667 -4 21.334 -7.5 32.001 -10.5s21.667 -4.5 33 -4.5c5.33301 0 11.166 0.5 17.499 1.5s12.166 3.16699 17.499 6.5c12.667 6.66699 19 17.667 19 33
c0 11.333 -4.66699 20.5 -14 27.5s-19.666 10.5 -30.999 10.5c-14.667 0 -27.667 -2.33301 -39 -7z" />
    <glyph glyph-name="scedilla" unicode="&#x15f;" horiz-adv-x="352" 
d="M93 -86l60.9932 81.9961c-15.333 2 -30 6 -44 12s-26.667 14.333 -38 25c-14 12.667 -25.333 28.5 -34 47.5s-13.334 41.167 -14.001 66.5h96c2 -14 6.83301 -27 14.5 -39s21.167 -18 40.5 -18c14.667 0 27.834 4.83301 39.501 14.5s17.5 23.167 17.5 40.5
c0 14 -3.66699 26 -11 36s-20.666 18.667 -39.999 26l-49 18c-32 12 -57.167 29.833 -75.5 53.5s-27.5 52.5 -27.5 86.5c0 21.333 4 41.166 12 59.499s19 34.166 33 47.499c13.333 13.333 29 23.5 47 30.5s37.333 10.5 58 10.5s39.834 -3.66699 57.501 -11
s32.834 -17.666 45.501 -30.999s22.667 -29.166 30 -47.499s11 -37.833 11 -58.5h-96c-0.666992 17.333 -6.16699 30.333 -16.5 39s-22.166 13 -35.499 13c-16 0 -28.333 -5.16699 -37 -15.5s-13 -22.166 -13 -35.499c0 -9.33301 2.33301 -18.5 7 -27.5
s16.667 -17.167 36 -24.5l60 -24c38 -14.667 64.167 -34.667 78.5 -60s21.5 -53 21.5 -83c0 -21.333 -3.83301 -41.166 -11.5 -59.499s-18.167 -34.5 -31.5 -48.5c-22.667 -23.333 -50.667 -37.666 -84 -42.999l-43 -56c5.33301 0.666992 10.5 1.16699 15.5 1.5
s10.167 0.5 15.5 0.5c16.667 0 30.334 -2.33301 41.001 -7s19.334 -10.667 26.001 -18c6.66699 -8 11.334 -16.333 14.001 -25s4 -17 4 -25c0 -16 -3.83301 -29.833 -11.5 -41.5s-17.5 -21.167 -29.5 -28.5s-25.167 -12.666 -39.5 -15.999s-28.5 -5 -42.5 -5
c-19.333 0 -37.333 2.33301 -54 7s-29.667 8.66699 -39 12l17 42c10.667 -4 21.334 -7.5 32.001 -10.5s21.667 -4.5 33 -4.5c5.33301 0 11.166 0.5 17.499 1.5s12.166 3.16699 17.499 6.5c12.667 6.66699 19 17.667 19 33c0 11.333 -4.66699 20.5 -14 27.5
s-19.666 10.5 -30.999 10.5c-14.667 0 -27.667 -2.33301 -39 -7z" />
    <glyph glyph-name="Scaron" unicode="&#x160;" horiz-adv-x="406" 
d="M378 507l-101.998 -0.000976562v23c0 23.333 -5.5 43.5 -16.5 60.5s-29.5 25.5 -55.5 25.5c-14 0 -25.333 -2.66699 -34 -8s-15.667 -12 -21 -20c-5.33301 -8.66699 -9 -18.5 -11 -29.5s-3 -22.5 -3 -34.5c0 -14 0.5 -25.667 1.5 -35s3.5 -17.666 7.5 -24.999
s9.83301 -13.666 17.5 -18.999s18.167 -10.666 31.5 -15.999l78 -31c22.667 -8.66699 41 -18.834 55 -30.501s25 -25.167 33 -40.5c7.33301 -16 12.333 -34.167 15 -54.5s4 -43.5 4 -69.5c0 -30 -3 -57.833 -9 -83.5s-15.667 -47.5 -29 -65.5
c-14 -18.667 -32.333 -33.334 -55 -44.001s-50.334 -16 -83.001 -16c-24.667 0 -47.667 4.33301 -69 13s-39.666 20.667 -54.999 36s-27.5 33.166 -36.5 53.499s-13.5 42.5 -13.5 66.5v38h102v-32c0 -18.667 5.5 -35.5 16.5 -50.5s29.5 -22.5 55.5 -22.5
c17.333 0 30.833 2.5 40.5 7.5s17.167 12.167 22.5 21.5s8.5 20.5 9.5 33.5s1.5 27.5 1.5 43.5c0 18.667 -0.666992 34 -2 46s-4 21.667 -8 29c-4.66699 7.33301 -10.834 13.333 -18.501 18s-17.834 9.66699 -30.501 15l-73 30c-44 18 -73.5 41.833 -88.5 71.5
s-22.5 66.834 -22.5 111.501c0 26.667 3.66699 52 11 76s18.333 44.667 33 62c14 17.333 31.833 31.166 53.5 41.499s47.5 15.5 77.5 15.5c25.333 0 48.5 -4.66699 69.5 -14s39.167 -21.666 54.5 -36.999c30.667 -32 46 -68.667 46 -110v-50zM348.002 884.999l-98 -141h-94
l-98 141h78l67 -95l67 95h78z" />
    <glyph glyph-name="scaron" unicode="&#x161;" horiz-adv-x="352" 
d="M227 365c-0.666992 17.333 -6.1709 30.3311 -16.5039 38.998s-22.166 13 -35.499 13c-16 0 -28.333 -5.16699 -37 -15.5s-13 -22.166 -13 -35.499c0 -9.33301 2.33301 -18.5 7 -27.5s16.667 -17.167 36 -24.5l60 -24c38 -14.667 64.167 -34.667 78.5 -60
s21.5 -53 21.5 -83c0 -21.333 -3.83301 -41.166 -11.5 -59.499s-18.167 -34.5 -31.5 -48.5s-29.333 -25 -48 -33s-39 -12 -61 -12c-41.333 0 -76 13 -104 39c-14 12.667 -25.333 28.5 -34 47.5s-13.334 41.167 -14.001 66.5h96c2 -14 6.83301 -27 14.5 -39
s21.167 -18 40.5 -18c14.667 0 27.834 4.83301 39.501 14.5s17.5 23.167 17.5 40.5c0 14 -3.66699 26 -11 36s-20.666 18.667 -39.999 26l-49 18c-32 12 -57.167 29.833 -75.5 53.5s-27.5 52.5 -27.5 86.5c0 21.333 4 41.166 12 59.499s19 34.166 33 47.499
c13.333 13.333 29 23.5 47 30.5s37.333 10.5 58 10.5s39.834 -3.66699 57.501 -11s32.834 -17.666 45.501 -30.999s22.667 -29.166 30 -47.499s11 -37.833 11 -58.5h-96zM320.996 714.998l-98 -141h-94l-98 141h78l67 -95l67 95h78z" />
    <glyph glyph-name="Tcedilla" unicode="&#x162;" horiz-adv-x="332" 
d="M115 0v616h-118v96h338v-96h-118v-616h-102zM80 -86l64.9971 85.999h46l-46 -60c5.33301 0.666992 10.5 1.16699 15.5 1.5s10.167 0.5 15.5 0.5c16.667 0 30.334 -2.33301 41.001 -7s19.334 -10.667 26.001 -18c6.66699 -8 11.334 -16.333 14.001 -25s4 -17 4 -25
c0 -16 -3.83301 -29.833 -11.5 -41.5s-17.5 -21.167 -29.5 -28.5s-25.167 -12.666 -39.5 -15.999s-28.5 -5 -42.5 -5c-19.333 0 -37.333 2.33301 -54 7s-29.667 8.66699 -39 12l17 42c10.667 -4 21.334 -7.5 32.001 -10.5s21.667 -4.5 33 -4.5
c5.33301 0 11.166 0.5 17.499 1.5s12.166 3.16699 17.499 6.5c12.667 6.66699 19 17.667 19 33c0 11.333 -4.66699 20.5 -14 27.5s-19.666 10.5 -30.999 10.5c-14.667 0 -27.667 -2.33301 -39 -7z" />
    <glyph glyph-name="tcedilla" unicode="&#x163;" horiz-adv-x="204" 
d="M42 507v154.003h102v-154h63v-80h-63v-281c0 -12 1.16699 -21.333 3.5 -28s6.16602 -11.667 11.499 -15s11.833 -5.33301 19.5 -6s17.167 -1 28.5 -1v-96h-42c-23.333 0 -42.833 3.66699 -58.5 11s-28.167 16.666 -37.5 27.999s-16.166 24.166 -20.499 38.499
s-6.5 28.166 -6.5 41.499v308h-51v80h51zM29 -85.9971l64.9971 85.999h46l-46 -60c5.33301 0.666992 10.5 1.16699 15.5 1.5s10.167 0.5 15.5 0.5c16.667 0 30.334 -2.33301 41.001 -7s19.334 -10.667 26.001 -18c6.66699 -8 11.334 -16.333 14.001 -25s4 -17 4 -25
c0 -16 -3.83301 -29.833 -11.5 -41.5s-17.5 -21.167 -29.5 -28.5s-25.167 -12.666 -39.5 -15.999s-28.5 -5 -42.5 -5c-19.333 0 -37.333 2.33301 -54 7s-29.667 8.66699 -39 12l17 42c10.667 -4 21.334 -7.5 32.001 -10.5s21.667 -4.5 33 -4.5
c5.33301 0 11.166 0.5 17.499 1.5s12.166 3.16699 17.499 6.5c12.667 6.66699 19 17.667 19 33c0 11.333 -4.66699 20.5 -14 27.5s-19.666 10.5 -30.999 10.5c-14.667 0 -27.667 -2.33301 -39 -7z" />
    <glyph glyph-name="Tcaron" unicode="&#x164;" horiz-adv-x="332" 
d="M115 0v616h-118v96h338v-96h-118v-616h-102zM311 885l-98 -141h-94l-98 141h78l67 -95l67 95h78z" />
    <glyph glyph-name="tcaron" unicode="&#x165;" horiz-adv-x="390" 
d="M42 507v154.003h102v-154h63v-80h-63v-281c0 -12 1.16699 -21.333 3.5 -28s6.16602 -11.667 11.499 -15s11.833 -5.33301 19.5 -6s17.167 -1 28.5 -1v-96h-42c-23.333 0 -42.833 3.66699 -58.5 11s-28.167 16.666 -37.5 27.999s-16.166 24.166 -20.499 38.499
s-6.5 28.166 -6.5 41.499v308h-51v80h51zM246 536.003v176h102v-102z" />
    <glyph glyph-name="Tbar" unicode="&#x166;" horiz-adv-x="332" 
d="M115 0v350h-60v66h60v200h-118v96h338v-96h-118v-200h58v-66h-58v-350h-102z" />
    <glyph glyph-name="tbar" unicode="&#x167;" horiz-adv-x="204" 
d="M42 507v154.003h102v-154h63v-80h-63v-81h65v-66h-65v-134c0 -12 1.16699 -21.333 3.5 -28s6.16602 -11.667 11.499 -15s11.833 -5.33301 19.5 -6s17.167 -1 28.5 -1v-96h-42c-23.333 0 -42.833 3.66699 -58.5 11s-28.167 16.666 -37.5 27.999
s-16.166 24.166 -20.499 38.499s-6.5 28.166 -6.5 41.499v161h-53v66h53v81h-51v80h51z" />
    <glyph glyph-name="Utilde" unicode="&#x168;" horiz-adv-x="426" 
d="M378 712v-552c0 -23.333 -4.16699 -44.833 -12.5 -64.5s-20.166 -37.167 -35.499 -52.5s-33 -27.333 -53 -36s-41.333 -13 -64 -13s-43.834 4.33301 -63.501 13s-37.167 20.667 -52.5 36s-27.333 32.833 -36 52.5s-13 41.167 -13 64.5v552h102v-542
c0 -25.333 6 -44 18 -56s27 -18 45 -18s33 6 45 18s18 30.667 18 56v542h102zM393 869c-3.33301 -15.333 -7.33203 -29.667 -11.999 -43s-11 -25 -19 -35s-17.667 -18 -29 -24s-25 -9 -41 -9c-8 0 -18.833 2 -32.5 6s-27.834 8.66699 -42.501 14
c-7.33301 2.66699 -14.333 5 -21 7s-13.334 4.33301 -20.001 7c-13.333 4 -22.666 6 -27.999 6c-14 0 -24.667 -4.16699 -32 -12.5s-11.333 -19.166 -12 -32.499h-51c5.33301 32.667 15.666 58.667 30.999 78c8 10 17.667 18 29 24s25 9 41 9c8 0 18.833 -2 32.5 -6
s27.834 -8.66699 42.501 -14s28.5 -10 41.5 -14s22.167 -6 27.5 -6c14 0 24.667 4.16699 32 12.5s11.333 19.166 12 32.499h51z" />
    <glyph glyph-name="utilde" unicode="&#x169;" horiz-adv-x="389" 
d="M347 507l0.00195312 -507h-102v49h-2c-10.667 -16 -23.5 -29.167 -38.5 -39.5s-34.167 -15.5 -57.5 -15.5c-12.667 0 -25.334 2.16699 -38.001 6.5s-24 11.5 -34 21.5s-18 22.833 -24 38.5s-9 34.834 -9 57.501v389h102v-351c0 -18.667 4.33301 -33.334 13 -44.001
s21 -16 37 -16c19.333 0 32.666 6 39.999 18s11 29.333 11 52v341h102zM364.002 699c-3.33301 -15.333 -7.33203 -29.667 -11.999 -43s-11 -25 -19 -35s-17.667 -18 -29 -24s-25 -9 -41 -9c-8 0 -18.833 2 -32.5 6s-27.834 8.66699 -42.501 14
c-7.33301 2.66699 -14.333 5 -21 7s-13.334 4.33301 -20.001 7c-13.333 4 -22.666 6 -27.999 6c-14 0 -24.667 -4.16699 -32 -12.5s-11.333 -19.166 -12 -32.499h-51c5.33301 32.667 15.666 58.667 30.999 78c8 10 17.667 18 29 24s25 9 41 9c8 0 18.833 -2 32.5 -6
s27.834 -8.66699 42.501 -14s28.5 -10 41.5 -14s22.167 -6 27.5 -6c14 0 24.667 4.16699 32 12.5s11.333 19.166 12 32.499h51z" />
    <glyph glyph-name="Umacron" unicode="&#x16a;" horiz-adv-x="426" 
d="M378 712v-552c0 -23.333 -4.16699 -44.833 -12.5 -64.5s-20.166 -37.167 -35.499 -52.5s-33 -27.333 -53 -36s-41.333 -13 -64 -13s-43.834 4.33301 -63.501 13s-37.167 20.667 -52.5 36s-27.333 32.833 -36 52.5s-13 41.167 -13 64.5v552h102v-542
c0 -25.333 6 -44 18 -56s27 -18 45 -18s33 6 45 18s18 30.667 18 56v542h102zM76 777v60h274v-60h-274z" />
    <glyph glyph-name="umacron" unicode="&#x16b;" horiz-adv-x="389" 
d="M347 507l0.00195312 -507h-102v49h-2c-10.667 -16 -23.5 -29.167 -38.5 -39.5s-34.167 -15.5 -57.5 -15.5c-12.667 0 -25.334 2.16699 -38.001 6.5s-24 11.5 -34 21.5s-18 22.833 -24 38.5s-9 34.834 -9 57.501v389h102v-351c0 -18.667 4.33301 -33.334 13 -44.001
s21 -16 37 -16c19.333 0 32.666 6 39.999 18s11 29.333 11 52v341h102zM57.002 607v60h274v-60h-274z" />
    <glyph glyph-name="Ubreve" unicode="&#x16c;" horiz-adv-x="426" 
d="M378 712v-552c0 -23.333 -4.16699 -44.833 -12.5 -64.5s-20.166 -37.167 -35.499 -52.5s-33 -27.333 -53 -36s-41.333 -13 -64 -13s-43.834 4.33301 -63.501 13s-37.167 20.667 -52.5 36s-27.333 32.833 -36 52.5s-13 41.167 -13 64.5v552h102v-542
c0 -25.333 6 -44 18 -56s27 -18 45 -18s33 6 45 18s18 30.667 18 56v542h102zM367 885c-14 -90.667 -65.335 -136 -154.002 -136s-140 45.333 -154 136h51c1.33301 -9.33301 3.83301 -18.5 7.5 -27.5s9.5 -17.167 17.5 -24.5s18.333 -13.166 31 -17.499
s28.334 -6.5 47.001 -6.5s34.334 2.16699 47.001 6.5s23 10.166 31 17.499s13.833 15.5 17.5 24.5s6.16699 18.167 7.5 27.5h51z" />
    <glyph glyph-name="ubreve" unicode="&#x16d;" horiz-adv-x="389" 
d="M347 507l0.00195312 -507h-102v49h-2c-10.667 -16 -23.5 -29.167 -38.5 -39.5s-34.167 -15.5 -57.5 -15.5c-12.667 0 -25.334 2.16699 -38.001 6.5s-24 11.5 -34 21.5s-18 22.833 -24 38.5s-9 34.834 -9 57.501v389h102v-351c0 -18.667 4.33301 -33.334 13 -44.001
s21 -16 37 -16c19.333 0 32.666 6 39.999 18s11 29.333 11 52v341h102zM348.002 715c-14 -90.667 -65.335 -136 -154.002 -136s-140 45.333 -154 136h51c1.33301 -9.33301 3.83301 -18.5 7.5 -27.5s9.5 -17.167 17.5 -24.5s18.333 -13.166 31 -17.499
s28.334 -6.5 47.001 -6.5s34.334 2.16699 47.001 6.5s23 10.166 31 17.499s13.833 15.5 17.5 24.5s6.16699 18.167 7.5 27.5h51z" />
    <glyph glyph-name="Uring" unicode="&#x16e;" horiz-adv-x="426" 
d="M378 712v-552c0 -23.333 -4.16699 -44.833 -12.5 -64.5s-20.166 -37.167 -35.499 -52.5s-33 -27.333 -53 -36s-41.333 -13 -64 -13s-43.834 4.33301 -63.501 13s-37.167 20.667 -52.5 36s-27.333 32.833 -36 52.5s-13 41.167 -13 64.5v552h102v-542
c0 -25.333 6 -44 18 -56s27 -18 45 -18s33 6 45 18s18 30.667 18 56v542h102zM111 830c0 28 10 52 30 72s44 30 72 30s52 -10 72 -30s30 -44 30 -72s-10 -52 -30 -72s-44 -30 -72 -30s-52 10 -72 30s-30 44 -30 72zM152 830c0 -17.333 5.83301 -31.833 17.5 -43.5
s26.167 -17.5 43.5 -17.5s31.833 5.83301 43.5 17.5s17.5 26.167 17.5 43.5s-5.83301 31.833 -17.5 43.5s-26.167 17.5 -43.5 17.5s-31.833 -5.83301 -43.5 -17.5s-17.5 -26.167 -17.5 -43.5z" />
    <glyph glyph-name="uring" unicode="&#x16f;" horiz-adv-x="389" 
d="M347 507l0.00195312 -507h-102v49h-2c-10.667 -16 -23.5 -29.167 -38.5 -39.5s-34.167 -15.5 -57.5 -15.5c-12.667 0 -25.334 2.16699 -38.001 6.5s-24 11.5 -34 21.5s-18 22.833 -24 38.5s-9 34.834 -9 57.501v389h102v-351c0 -18.667 4.33301 -33.334 13 -44.001
s21 -16 37 -16c19.333 0 32.666 6 39.999 18s11 29.333 11 52v341h102zM92.002 660c0 28 10 52 30 72s44 30 72 30s52 -10 72 -30s30 -44 30 -72s-10 -52 -30 -72s-44 -30 -72 -30s-52 10 -72 30s-30 44 -30 72zM133.002 660c0 -17.333 5.83301 -31.833 17.5 -43.5
s26.167 -17.5 43.5 -17.5s31.833 5.83301 43.5 17.5s17.5 26.167 17.5 43.5s-5.83301 31.833 -17.5 43.5s-26.167 17.5 -43.5 17.5s-31.833 -5.83301 -43.5 -17.5s-17.5 -26.167 -17.5 -43.5z" />
    <glyph glyph-name="Uhungarumlaut" unicode="&#x170;" horiz-adv-x="426" 
d="M378 712v-552c0 -23.333 -4.16699 -44.833 -12.5 -64.5s-20.166 -37.167 -35.499 -52.5s-33 -27.333 -53 -36s-41.333 -13 -64 -13s-43.834 4.33301 -63.501 13s-37.167 20.667 -52.5 36s-27.333 32.833 -36 52.5s-13 41.167 -13 64.5v552h102v-542
c0 -25.333 6 -44 18 -56s27 -18 45 -18s33 6 45 18s18 30.667 18 56v542h102zM96 744l90 141h108l-132 -141h-66zM258 744l90 141h108l-132 -141h-66z" />
    <glyph glyph-name="uhungarumlaut" unicode="&#x171;" horiz-adv-x="389" 
d="M347 507l0.00195312 -507h-102v49h-2c-10.667 -16 -23.5 -29.167 -38.5 -39.5s-34.167 -15.5 -57.5 -15.5c-12.667 0 -25.334 2.16699 -38.001 6.5s-24 11.5 -34 21.5s-18 22.833 -24 38.5s-9 34.834 -9 57.501v389h102v-351c0 -18.667 4.33301 -33.334 13 -44.001
s21 -16 37 -16c19.333 0 32.666 6 39.999 18s11 29.333 11 52v341h102zM47.002 574l90 141h108l-132 -141h-66zM209.002 574l90 141h108l-132 -141h-66z" />
    <glyph glyph-name="Uogonek" unicode="&#x172;" horiz-adv-x="426" 
d="M378 712v-552c0 -23.333 -4.16699 -44.833 -12.5 -64.5s-20.166 -37.167 -35.499 -52.5s-33 -27.333 -53 -36s-41.333 -13 -64 -13s-43.834 4.33301 -63.501 13s-37.167 20.667 -52.5 36s-27.333 32.833 -36 52.5s-13 41.167 -13 64.5v552h102v-542
c0 -25.333 6 -44 18 -56s27 -18 45 -18s33 6 45 18s18 30.667 18 56v542h102zM378 -202c-10 -5.33301 -23.166 -10.334 -39.499 -15.001s-35.5 -7 -57.5 -7c-28 0 -51.5 8.16699 -70.5 24.5s-28.5 38.5 -28.5 66.5c0 16 2.33301 30.333 7 43s11.334 24.334 20.001 35.001
c8.66699 10 18.5 19.333 29.5 28s23.167 17.667 36.5 27h51c-20 -19.333 -35.667 -40 -47 -62s-17 -43.333 -17 -64c0 -16 4.83301 -28.667 14.5 -38s21.167 -14 34.5 -14c11.333 0 21.166 1.16699 29.499 3.5s16.166 5.5 23.499 9.5z" />
    <glyph glyph-name="uogonek" unicode="&#x173;" horiz-adv-x="389" 
d="M347 -202c-10 -5.33301 -23.1641 -10.334 -39.4971 -15.001s-35.5 -7 -57.5 -7c-28 0 -51.5 8.16699 -70.5 24.5s-28.5 38.5 -28.5 66.5c0 16 2.33301 30.333 7 43s11.334 24.334 20.001 35.001c8.66699 10 18.5 19.333 29.5 28s23.167 17.667 36.5 27h1v49h-2
c-10.667 -16 -23.5 -29.167 -38.5 -39.5s-34.167 -15.5 -57.5 -15.5c-12.667 0 -25.334 2.16699 -38.001 6.5s-24 11.5 -34 21.5s-18 22.833 -24 38.5s-9 34.834 -9 57.501v389h102v-351c0 -18.667 4.33301 -33.334 13 -44.001s21 -16 37 -16c19.333 0 32.666 6 39.999 18
s11 29.333 11 52v341h102v-507h-52c-20 -19.333 -35.667 -40 -47 -62s-17 -43.333 -17 -64c0 -16 4.83301 -28.667 14.5 -38s21.167 -14 34.5 -14c11.333 0 21.166 1.16699 29.499 3.5s16.166 5.5 23.499 9.5z" />
    <glyph glyph-name="Wcircumflex" unicode="&#x174;" horiz-adv-x="593" 
d="M577 712l-106 -712h-96l-78 462h-2l-77 -462h-96l-106 712h108l51 -452h2l80 452h78l83 -463h2l49 463h108zM151 744l98 141h94l98 -141h-78l-67 95l-67 -95h-78z" />
    <glyph glyph-name="wcircumflex" unicode="&#x175;" horiz-adv-x="536" 
d="M535 507l-120 -507h-90l-56 301h-2l-56 -301h-90l-120 507h108l62 -315h2l57 315h80l54 -315h2l61 315h108zM123 574l98 141h94l98 -141h-78l-67 95l-67 -95h-78z" />
    <glyph glyph-name="Ycircumflex" unicode="&#x176;" horiz-adv-x="388" 
d="M143 0v301l-140 411h108l82 -283h2l82 283h108l-140 -411v-301h-102zM49 744l98 141h94l98 -141h-78l-67 95l-67 -95h-78z" />
    <glyph glyph-name="ycircumflex" unicode="&#x177;" horiz-adv-x="352" 
d="M-1 507l108 0.000976562l70 -316h2l69 316h105l-146 -595c-5.33301 -22.667 -12.833 -41.334 -22.5 -56.001s-20.834 -26.667 -33.501 -36s-26.167 -15.833 -40.5 -19.5s-29.166 -5.5 -44.499 -5.5h-28v96h23c10 0 18.667 1.33301 26 4s14 8.66699 20 18
c5.33301 9.33301 10.333 22.5 15 39.5s10 40.5 16 70.5zM31 574.001l98 141h94l98 -141h-78l-67 95l-67 -95h-78z" />
    <glyph glyph-name="Ydieresis" unicode="&#x178;" horiz-adv-x="388" 
d="M143 0v301l-140 411h108l82 -283h2l82 283h108l-140 -411v-301h-102zM68 756v102h90v-102h-90zM230 756v102h90v-102h-90z" />
    <glyph glyph-name="Zacute" unicode="&#x179;" horiz-adv-x="333" 
d="M15 0v90l192 526h-182v96h293v-81l-196 -535h196v-96h-303zM121 744l90 141h108l-132 -141h-66z" />
    <glyph glyph-name="zacute" unicode="&#x17a;" horiz-adv-x="315" 
d="M17 0v81l165 336h-152v90h268v-81l-165 -330h165v-96h-281zM92 574l90 141h108l-132 -141h-66z" />
    <glyph glyph-name="Zdotaccent" unicode="&#x17b;" horiz-adv-x="333" 
d="M15 0v90l192 526h-182v96h293v-81l-196 -535h196v-96h-303zM121 756v102h90v-102h-90z" />
    <glyph glyph-name="zdotaccent" unicode="&#x17c;" horiz-adv-x="315" 
d="M17 0v81l165 336h-152v90h268v-81l-165 -330h165v-96h-281zM112 586v102h90v-102h-90z" />
    <glyph glyph-name="Zcaron" unicode="&#x17d;" horiz-adv-x="333" 
d="M15 0v90l192 526h-182v96h293v-81l-196 -535h196v-96h-303zM312 885l-98 -141h-94l-98 141h78l67 -95l67 95h78z" />
    <glyph glyph-name="zcaron" unicode="&#x17e;" horiz-adv-x="315" 
d="M17 0v81l165 336h-152v90h268v-81l-165 -330h165v-96h-281zM303 715l-98 -141h-94l-98 141h78l67 -95l67 95h78z" />
    <glyph glyph-name="longs" unicode="&#x17f;" horiz-adv-x="222" 
d="M55 0l-0.000976562 576c0 24.667 3.66699 45.5 11 62.5s17.333 31.167 30 42.5c12 11.333 25.833 19.333 41.5 24s31.834 7 48.501 7h47v-96h-46c-20 0 -30 -11.667 -30 -35v-74h76v-80h-76v-427h-102z" />
    <glyph glyph-name="Schwa" unicode="&#x18f;" horiz-adv-x="414" 
d="M42 407l228.001 -0.000976562v129c0 24 -4.66699 43.333 -14 58s-26.666 22 -51.999 22c-21.333 0 -36.666 -6.66699 -45.999 -20s-14 -30 -14 -50v-38h-102v40c0 24.667 4.16699 47.5 12.5 68.5s19.833 39.167 34.5 54.5c30 31.333 69 47 117 47
c24.667 0 47.167 -4.16699 67.5 -12.5s37.833 -19.833 52.5 -34.5s26 -32 34 -52s12 -41.667 12 -65v-386c0 -24.667 -3.83301 -47.667 -11.5 -69s-18.667 -39.666 -33 -54.999s-31.833 -27.5 -52.5 -36.5s-44.334 -13.5 -71.001 -13.5
c-22.667 0 -43.834 4.16699 -63.501 12.5s-36.834 19.666 -51.501 33.999s-26.167 31.333 -34.5 51s-12.5 40.834 -12.5 63.501v252zM208.001 95.999c21.333 0 37 6.33203 47 18.999s15 29.334 15 50.001v152h-126v-153c0 -18.667 5.33301 -34.667 16 -48s26.667 -20 48 -20
z" />
    <glyph glyph-name="florin" unicode="&#x192;" horiz-adv-x="372" 
d="M45 371l11.002 79.9971h84l23 128c5.33301 28.667 12.5 52 21.5 70s19.5 32.333 31.5 43c12 10 25.333 16.833 40 20.5s30 5.5 46 5.5c9.33301 0 19 -0.333008 29 -1s21.667 -1.66699 35 -3l-14 -92c-3.33301 0.666992 -6.5 1.33398 -9.5 2.00098
s-6.16699 1.33398 -9.5 2.00098s-6.66602 1.16699 -9.99902 1.5s-6.66602 0.5 -9.99902 0.5c-17.333 0 -30.333 -5.16699 -39 -15.5s-15.334 -29.833 -20.001 -58.5l-18 -103h77l-13 -80h-78l-71 -398c-4.66699 -25.333 -10.5 -48.833 -17.5 -70.5
s-16.5 -40.167 -28.5 -55.5s-27 -27.333 -45 -36s-40.333 -13 -67 -13c-11.333 0 -20.833 0.666992 -28.5 2s-15.834 3.33301 -24.501 6l11 94c12 -4 25.333 -6 40 -6c17.333 0 30.666 5.33301 39.999 16s15.666 25.334 18.999 44.001l75 417h-80z" />
    <glyph glyph-name="Ohorn" unicode="&#x1a0;" horiz-adv-x="493" 
d="M384 168c0 -30 -5.00098 -55.667 -15.001 -77s-23 -39 -39 -53c-16.667 -14.667 -35.167 -25.667 -55.5 -33s-40.833 -11 -61.5 -11s-41.167 3.66699 -61.5 11s-38.5 18.333 -54.5 33c-16.667 14 -30 31.667 -40 53s-15 47 -15 77v376c0 28.667 5 54 15 76
s23.333 40.333 40 55c16 14 34.167 24.667 54.5 32s40.833 11 61.5 11s41.167 -3.66699 61.5 -11s38.833 -18 55.5 -32c8.66699 -8 16.5 -17.167 23.5 -27.5s13.167 -21.833 18.5 -34.5c18.667 0 29.834 5.83301 33.501 17.5s5.5 26.167 5.5 43.5v38h77v-40
c0 -14.667 -1 -29.167 -3 -43.5s-6.5 -27.5 -13.5 -39.5s-17.333 -22.167 -31 -30.5s-32.5 -13.833 -56.5 -16.5v-374zM143.999 168c0 -24.667 6.83301 -42.834 20.5 -54.501s29.834 -17.5 48.501 -17.5s34.834 5.83301 48.501 17.5s20.5 29.834 20.5 54.501v376
c0 24.667 -6.83301 42.834 -20.5 54.501s-29.834 17.5 -48.501 17.5s-34.834 -5.83301 -48.501 -17.5s-20.5 -29.834 -20.5 -54.501v-376z" />
    <glyph glyph-name="ohorn" unicode="&#x1a1;" horiz-adv-x="440" 
d="M33 337c0 20.667 1.33496 39.667 4.00195 57s7.66699 32.666 15 45.999c12 22 29.167 39.667 51.5 53s49.5 20 81.5 20s59.167 -6.66699 81.5 -20s39.5 -31 51.5 -53c4.66699 -10 8.66699 -21 12 -33c13.333 2.66699 21.666 9.5 24.999 20.5s5 24.167 5 39.5v40h75v-40
c0 -14.667 -0.833008 -29 -2.5 -43s-5.83398 -26.833 -12.501 -38.5s-16.5 -21.667 -29.5 -30s-30.833 -14.166 -53.5 -17.499v-1v-167c0 -20.667 -1.33301 -39.667 -4 -57s-7.66699 -32.666 -15 -45.999c-12 -22 -29.167 -39.667 -51.5 -53s-49.5 -20 -81.5 -20
s-59.167 6.66699 -81.5 20s-39.5 31 -51.5 53c-7.33301 13.333 -12.333 28.666 -15 45.999s-4 36.333 -4 57v167zM135.002 154c0 -19.333 4.5 -33.833 13.5 -43.5s21.167 -14.5 36.5 -14.5s27.5 4.83301 36.5 14.5s13.5 24.167 13.5 43.5v199
c0 19.333 -4.5 33.833 -13.5 43.5s-21.167 14.5 -36.5 14.5s-27.5 -4.83301 -36.5 -14.5s-13.5 -24.167 -13.5 -43.5v-199z" />
    <glyph glyph-name="Uhorn" unicode="&#x1af;" horiz-adv-x="516" 
d="M378 160c0 -23.333 -4.16699 -44.832 -12.5 -64.499s-20.166 -37.167 -35.499 -52.5s-33 -27.333 -53 -36s-41.333 -13 -64 -13s-43.834 4.33301 -63.501 13s-37.167 20.667 -52.5 36s-27.333 32.833 -36 52.5s-13 41.167 -13 64.5v552h102v-542c0 -25.333 6 -44 18 -56
s27 -18 45 -18s33 6 45 18s18 30.667 18 56v542h102v-99h7c18.667 0 31.5 5.83301 38.5 17.5s10.5 26.167 10.5 43.5v38h77v-40c0 -15.333 -1.66699 -32 -5 -50s-12.333 -34 -27 -48c-12 -11.333 -26.5 -19.333 -43.5 -24s-36.167 -7.33398 -57.5 -8.00098v-382z" />
    <glyph glyph-name="uhorn" unicode="&#x1b0;" horiz-adv-x="477" 
d="M347 0h-101.998v49h-2c-10.667 -16 -23.5 -29.167 -38.5 -39.5s-34.167 -15.5 -57.5 -15.5c-12.667 0 -25.334 2.16699 -38.001 6.5s-24 11.5 -34 21.5s-18 22.833 -24 38.5s-9 34.834 -9 57.501v389h102v-351c0 -18.667 4.33301 -33.334 13 -44.001s21 -16 37 -16
c19.333 0 32.666 6 39.999 18s11 29.333 11 52v341h102v-101h7c18.667 0 30.5 5.83301 35.5 17.5s7.5 26.167 7.5 43.5v40h75v-40c0 -15.333 -1.5 -31.833 -4.5 -49.5s-11.833 -33.5 -26.5 -47.5c-9.33301 -9.33301 -21.5 -17 -36.5 -23s-34.167 -9.33301 -57.5 -10v-337z
" />
    <glyph glyph-name="eturn" unicode="&#x1dd;" 
d="M235 292v60.999c0 19.333 -4.5 33.833 -13.5 43.5s-21.167 14.5 -36.5 14.5s-27.5 -4.83301 -36.5 -14.5s-13.5 -24.834 -13.5 -45.501h-102c0 48 13.333 87 40 117c13.333 14 29.5 25 48.5 33s40.167 12 63.5 12c32 0 59.167 -6.66699 81.5 -20s39.5 -31 51.5 -53
c7.33301 -13.333 12.333 -28.666 15 -45.999s4 -36.333 4 -57v-167c0 -20.667 -1.33301 -39.667 -4 -57s-7.66699 -32.666 -15 -45.999c-12 -22 -29.167 -39.667 -51.5 -53s-49.5 -20 -81.5 -20c-23.333 0 -44.333 4 -63 12s-34.667 19 -48 33
c-27.333 27.333 -41 63 -41 107v146h202zM235 211.999h-99.998v-66c1.33301 -11.333 5.16602 -22.5 11.499 -33.5s19.166 -16.5 38.499 -16.5c15.333 0 27.5 4.33301 36.5 13s13.5 21 13.5 37v66z" />
    <glyph glyph-name="Scommaaccent" unicode="&#x218;" horiz-adv-x="406" 
d="M378 507l-101.998 -0.000976562v23c0 23.333 -5.5 43.5 -16.5 60.5s-29.5 25.5 -55.5 25.5c-14 0 -25.333 -2.66699 -34 -8s-15.667 -12 -21 -20c-5.33301 -8.66699 -9 -18.5 -11 -29.5s-3 -22.5 -3 -34.5c0 -14 0.5 -25.667 1.5 -35s3.5 -17.666 7.5 -24.999
s9.83301 -13.666 17.5 -18.999s18.167 -10.666 31.5 -15.999l78 -31c22.667 -8.66699 41 -18.834 55 -30.501s25 -25.167 33 -40.5c7.33301 -16 12.333 -34.167 15 -54.5s4 -43.5 4 -69.5c0 -30 -3 -57.833 -9 -83.5s-15.667 -47.5 -29 -65.5
c-14 -18.667 -32.333 -33.334 -55 -44.001s-50.334 -16 -83.001 -16c-24.667 0 -47.667 4.33301 -69 13s-39.666 20.667 -54.999 36s-27.5 33.166 -36.5 53.499s-13.5 42.5 -13.5 66.5v38h102v-32c0 -18.667 5.5 -35.5 16.5 -50.5s29.5 -22.5 55.5 -22.5
c17.333 0 30.833 2.5 40.5 7.5s17.167 12.167 22.5 21.5s8.5 20.5 9.5 33.5s1.5 27.5 1.5 43.5c0 18.667 -0.666992 34 -2 46s-4 21.667 -8 29c-4.66699 7.33301 -10.834 13.333 -18.501 18s-17.834 9.66699 -30.501 15l-73 30c-44 18 -73.5 41.833 -88.5 71.5
s-22.5 66.834 -22.5 111.501c0 26.667 3.66699 52 11 76s18.333 44.667 33 62c14 17.333 31.833 31.166 53.5 41.499s47.5 15.5 77.5 15.5c25.333 0 48.5 -4.66699 69.5 -14s39.167 -21.666 54.5 -36.999c30.667 -32 46 -68.667 46 -110v-50zM152.002 -234.001v176h102v-102
z" />
    <glyph glyph-name="scommaaccent" unicode="&#x219;" horiz-adv-x="352" 
d="M227 365c-0.666992 17.333 -6.1709 30.3311 -16.5039 38.998s-22.166 13 -35.499 13c-16 0 -28.333 -5.16699 -37 -15.5s-13 -22.166 -13 -35.499c0 -9.33301 2.33301 -18.5 7 -27.5s16.667 -17.167 36 -24.5l60 -24c38 -14.667 64.167 -34.667 78.5 -60
s21.5 -53 21.5 -83c0 -21.333 -3.83301 -41.166 -11.5 -59.499s-18.167 -34.5 -31.5 -48.5s-29.333 -25 -48 -33s-39 -12 -61 -12c-41.333 0 -76 13 -104 39c-14 12.667 -25.333 28.5 -34 47.5s-13.334 41.167 -14.001 66.5h96c2 -14 6.83301 -27 14.5 -39
s21.167 -18 40.5 -18c14.667 0 27.834 4.83301 39.501 14.5s17.5 23.167 17.5 40.5c0 14 -3.66699 26 -11 36s-20.666 18.667 -39.999 26l-49 18c-32 12 -57.167 29.833 -75.5 53.5s-27.5 52.5 -27.5 86.5c0 21.333 4 41.166 12 59.499s19 34.166 33 47.499
c13.333 13.333 29 23.5 47 30.5s37.333 10.5 58 10.5s39.834 -3.66699 57.501 -11s32.834 -17.666 45.501 -30.999s22.667 -29.166 30 -47.499s11 -37.833 11 -58.5h-96zM124.996 -234.002v176h102v-102z" />
    <glyph glyph-name="Tcommaaccent" unicode="&#x21a;" horiz-adv-x="332" 
d="M115 0v616h-118v96h338v-96h-118v-616h-102zM115 -234v176h102v-102z" />
    <glyph glyph-name="tcommaaccent" unicode="&#x21b;" horiz-adv-x="204" 
d="M42 507v154.003h102v-154h63v-80h-63v-281c0 -12 1.16699 -21.333 3.5 -28s6.16602 -11.667 11.499 -15s11.833 -5.33301 19.5 -6s17.167 -1 28.5 -1v-96h-42c-23.333 0 -42.833 3.66699 -58.5 11s-28.167 16.666 -37.5 27.999s-16.166 24.166 -20.499 38.499
s-6.5 28.166 -6.5 41.499v308h-51v80h51zM51 -233.997v176h102v-102z" />
    <glyph glyph-name="u0250" unicode="&#x250;" 
d="M135.015 507l-0.00292969 -51.998h2c13.332 18.666 26.8311 32.999 40.4971 42.998s32.8311 14.999 57.4961 14.999c11.999 0 24.165 -1.83301 36.498 -5.5s24.166 -10.5 35.499 -20.499c11.333 -9.33301 20.499 -22.832 27.498 -40.4971
c7 -17.666 10.5 -40.498 10.5 -68.4961c0 -28.665 -2.33301 -53.8301 -7 -75.4951s-13.333 -39.8311 -25.998 -54.4971c-11.999 -13.999 -28.3311 -24.498 -48.9961 -31.498c-20.665 -6.99902 -46.9971 -10.499 -78.9951 -10.499h-11
c-3.99902 0 -7.66504 0.333008 -10.998 1s-7.33301 1 -11.999 1c-4.66699 0 -9.66699 0.333008 -15 1v-52.9971c0 -17.332 3.66602 -31.6641 10.999 -42.9971s20.666 -16.999 39.999 -16.999c13.332 0 25.498 4.33301 36.4971 12.999s18.165 21.332 21.498 37.9971h98.9941
c-2.66699 -45.3301 -17.999 -81.9941 -45.9971 -109.993c-13.333 -13.332 -29.332 -23.8311 -47.9971 -31.498c-18.666 -7.66602 -39.665 -11.499 -62.9961 -11.499c-21.332 0 -41.3311 3.33301 -59.9971 9.99902c-18.665 6.66699 -34.9971 16.667 -48.9961 30
c-13.332 13.332 -23.998 29.9971 -31.998 49.9961c-7.99902 19.999 -11.999 43.3311 -11.999 69.9961v352.979h101.994zM135.012 289.013c11.333 -2 20.665 -3.00098 27.998 -3.00098c21.999 0 40.8311 5.16602 56.4961 15.499c15.666 10.333 23.499 29.165 23.499 56.4961
c0 19.333 -4.66602 34.999 -13.999 46.998s-22.332 17.999 -38.998 17.999c-17.332 0 -30.8311 -5.66602 -40.4971 -16.999s-14.499 -27.332 -14.499 -47.9971v-68.9951z" />
    <glyph glyph-name="u0251" unicode="&#x251;" horiz-adv-x="378" 
d="M257 0l-5.99902 59.999h-2c-14 -25.333 -29.5 -42.666 -46.5 -51.999s-35.5 -14 -55.5 -14c-20.667 0 -38 4.33301 -52 13s-25.667 19.667 -35 33c-10.667 14.667 -17.834 32.834 -21.501 54.501s-5.5 44.5 -5.5 68.5v193c0 28 2.5 50.333 7.5 67s11.5 30.667 19.5 42
c10.667 15.333 24 27.166 40 35.499s34.667 12.5 56 12.5c18.667 0 35.5 -4.83301 50.5 -14.5s27.833 -25.5 38.5 -47.5h2l5 56h100l-16 -253l21 -254h-100zM135.001 153.999c0 -16 3.5 -29.666 10.5 -40.999s18.5 -17 34.5 -17c18 0 31 6.66699 39 20
s13.667 32.666 17 57.999l10 80l-10 83c-6 49.333 -23 74 -51 74c-17.333 0 -30 -6 -38 -18s-12 -28.333 -12 -49v-190z" />
    <glyph glyph-name="u0252" unicode="&#x252;" horiz-adv-x="378" 
d="M121.016 0l5.99902 59.999h2c13.999 -25.333 29.498 -42.666 46.4971 -51.999s35.498 -14 55.4971 -14c20.665 0 37.9971 4.33301 51.9961 13s25.665 19.667 34.998 33c10.666 14.667 17.832 32.834 21.498 54.501c3.66699 21.667 5.5 44.5 5.5 68.5v193
c0 28 -2.5 50.333 -7.49902 67c-5 16.667 -11.5 30.667 -19.499 42c-10.666 15.333 -23.999 27.166 -39.998 35.499s-34.6641 12.5 -55.9961 12.5c-18.665 0 -35.4971 -4.83301 -50.4961 -14.5s-27.832 -25.5 -38.498 -47.5h-2l-4.99902 56h-99.9941l15.999 -253
l-20.999 -254h99.9941zM243.007 153.999c0 -16 -3.50098 -29.666 -10.5 -40.999s-18.498 -17 -34.4971 -17c-17.999 0 -30.998 6.66699 -38.9971 20c-8 13.333 -13.666 32.666 -16.999 57.999l-10 80l10 83c5.99902 49.333 22.998 74 50.9971 74
c17.332 0 29.998 -6 37.9971 -18s11.999 -28.333 11.999 -49v-190z" />
    <glyph glyph-name="u0253" unicode="&#x253;" horiz-adv-x="389" 
d="M205 616h-9.00098c-8.66699 0 -16.667 -1.16699 -24 -3.5s-13.333 -7.16602 -18 -14.499c-6.66699 -11.333 -10 -31.333 -10 -60v-77h2c11.333 16.667 24.833 29.5 40.5 38.5s33.5 13.5 53.5 13.5c24.667 0 44 -4.16699 58 -12.5s25 -19.5 33 -33.5
c8.66699 -14.667 13.5 -32.834 14.5 -54.501s1.5 -44.5 1.5 -68.5v-193c0 -28 -1.33301 -50.333 -4 -67s-7 -30.667 -13 -42c-17.333 -32 -47 -48 -89 -48c-25.333 0 -44.666 5 -57.999 15s-26.333 22.333 -39 37v-46h-102v545c0 25.333 3 49 9 71s16 40.667 30 56
c11.333 12 25.5 21.667 42.5 29s40.5 11 70.5 11h11v-96zM244.999 351c0 16 -3.49805 30 -10.498 42s-20.167 18 -39.5 18c-14.667 0 -26.834 -5.16699 -36.501 -15.5s-14.5 -23.5 -14.5 -39.5v-197c0 -18.667 4.66699 -33.834 14 -45.501s21.666 -17.5 36.999 -17.5
c17.333 0 30 6.33301 38 19s12 29.334 12 50.001v186z" />
    <glyph glyph-name="u0254" unicode="&#x254;" horiz-adv-x="355" 
d="M220 353c0 19.333 -4.50098 33.8311 -13.501 43.498s-21.167 14.5 -36.5 14.5s-27.5 -5 -36.5 -15s-13.5 -25.667 -13.5 -47v-20h-102v14c0 25.333 3.33301 48.833 10 70.5s16.667 39.834 30 54.501c13.333 14 29.5 25 48.5 33s40.167 12 63.5 12
c32 0 59.167 -6.66699 81.5 -20s39.5 -31 51.5 -53c7.33301 -13.333 12.333 -28.666 15 -45.999s4 -36.333 4 -57v-167c0 -20.667 -1.33301 -39.667 -4 -57s-7.66699 -32.666 -15 -45.999c-12 -22 -29.167 -39.667 -51.5 -53s-49.5 -20 -81.5 -20
c-23.333 0 -44.333 4 -63 12s-34.667 19 -48 33c-13.333 13.333 -23.5 30.666 -30.5 51.999s-10.5 43.666 -10.5 66.999v11h102v-18c0 -6 0.833008 -12.167 2.5 -18.5s4.33398 -12.166 8.00098 -17.499s8.66699 -9.83301 15 -13.5s14.5 -5.5 24.5 -5.5
c15.333 0 27.5 4.33301 36.5 13s13.5 21 13.5 37v207v0z" />
    <glyph glyph-name="u0255" unicode="&#x255;" horiz-adv-x="367" 
d="M238 351c0 20.667 -4.49902 35.834 -13.499 45.501s-21.167 14.5 -36.5 14.5s-27.5 -4.83301 -36.5 -14.5s-13.5 -24.167 -13.5 -43.5v-137c14.667 14 30.334 23 47.001 27s30.667 6 42 6c17.333 0 33.666 -2.66699 48.999 -8s28.666 -13 39.999 -23
s20.333 -22.5 27 -37.5s10 -32.167 10 -51.5c0 -45.333 -13.5 -79.166 -40.5 -101.499s-63.167 -33.5 -108.5 -33.5c-20.667 0 -40.834 3.16699 -60.501 9.5s-37.167 16.166 -52.5 29.499c-3.33301 -7.33301 -6.66602 -14 -9.99902 -20s-6 -11.667 -8 -17
c-2.66699 -6 -5 -11.667 -7 -17l-64 27l13 27l13.5 28l15.5 33c-3.33301 11.333 -5.5 23.333 -6.5 36s-1.5 26 -1.5 40v167c0 20.667 1.33301 39.667 4 57s7.66699 32.666 15 45.999c12 22 29.167 39.667 51.5 53s49.5 20 81.5 20c23.333 0 44.5 -4 63.5 -12
s35.167 -19 48.5 -33c26.667 -30 40 -69 40 -117h-102zM205.001 79c19.333 0 33.501 5 42.501 15s13.5 21 13.5 33c0 4 -0.666992 8.33301 -2 13s-4 9.16699 -8 13.5s-9.33301 8 -16 11s-15.334 4.5 -26.001 4.5c-16 0 -29.833 -4.83301 -41.5 -14.5
s-20.5 -21.167 -26.5 -34.5c5.33301 -13.333 14 -23.5 26 -30.5s24.667 -10.5 38 -10.5z" />
    <glyph glyph-name="u0256" unicode="&#x256;" horiz-adv-x="394" 
d="M408 -205h-11c-30 0 -53.5 3.66699 -70.5 11s-31.167 17 -42.5 29c-14 15.333 -24 34 -30 56s-9 45.667 -9 71v84l-19 -20.5c-6 -6.33301 -12.667 -11.833 -20 -16.5s-15.666 -8.33398 -24.999 -11.001s-20.333 -4 -33 -4c-42.667 0 -72.334 16 -89.001 48
c-6 11.333 -10.333 25.333 -13 42s-4 39 -4 67v193c0 36.667 1 63.667 3 81c4 33.333 19.667 58.333 47 75c12.667 8.66699 31.667 13 57 13c20 0 37.833 -4.5 53.5 -13.5s29.167 -21.833 40.5 -38.5h2v251h102v-743c0 -28.667 3.33301 -48.667 10 -60
c4.66699 -7.33301 10.667 -12.166 18 -14.499s15.333 -3.5 24 -3.5h9v-96zM144 165c0 -20.667 4.00195 -37.334 12.002 -50.001s20.667 -19 38 -19c15.333 0 27.666 5.83301 36.999 17.5s14 26.834 14 45.501v197c0 16 -4.83301 29.167 -14.5 39.5
s-21.834 15.5 -36.501 15.5c-19.333 0 -32.5 -6 -39.5 -18s-10.5 -26 -10.5 -42v-186z" />
    <glyph glyph-name="u0257" unicode="&#x257;" horiz-adv-x="394" 
d="M408 616h-9c-8.66699 0 -16.667 -1.16699 -24 -3.5s-13.333 -7.16602 -18 -14.499c-6.66699 -11.333 -10 -31.333 -10 -60v-538h-102v46l-19 -20.5c-6 -6.33301 -12.667 -11.833 -20 -16.5s-15.666 -8.33398 -24.999 -11.001s-20.333 -4 -33 -4
c-42.667 0 -72.334 16 -89.001 48c-6 11.333 -10.333 25.333 -13 42s-4 39 -4 67v193c0 36.667 1 63.667 3 81c4 33.333 19.667 58.333 47 75c12.667 8.66699 31.667 13 57 13c20 0 37.833 -4.5 53.5 -13.5s29.167 -21.833 40.5 -38.5h2v84c0 25.333 3 49 9 71
s16 40.667 30 56c11.333 12 25.5 21.667 42.5 29s40.5 11 70.5 11h11v-96zM144 165c0 -20.667 4.00195 -37.334 12.002 -50.001s20.667 -19 38 -19c15.333 0 27.666 5.83301 36.999 17.5s14 26.834 14 45.501v197c0 16 -4.83301 29.167 -14.5 39.5
s-21.834 15.5 -36.501 15.5c-19.333 0 -32.5 -6 -39.5 -18s-10.5 -26 -10.5 -42v-186z" />
    <glyph glyph-name="u0258" unicode="&#x258;" 
d="M33.0205 215l201.988 0.00292969v-69c0 -16 -4.5 -28.333 -13.499 -37s-21.165 -13 -36.4971 -13c-19.333 0 -32.166 5.66699 -38.499 17s-10.166 22.666 -11.499 33.999h-101.994c0 -44.667 13.666 -80.667 40.9971 -108c13.333 -14 29.332 -25 47.998 -33
c18.665 -8 39.6641 -12 62.9961 -12c31.998 0 59.1631 6.66699 81.4941 20c22.332 13.333 39.498 31 51.4971 53c7.33301 13.333 12.333 28.666 14.999 45.999c2.66699 17.333 4 36.333 4 57v167c0 20.667 -1.33301 39.667 -4 57
c-2.66602 17.333 -7.66602 32.666 -14.999 45.999c-11.999 22 -29.165 39.667 -51.4971 53c-22.3311 13.333 -49.4961 20 -81.4941 20c-23.332 0 -44.4971 -4 -63.4961 -12s-35.165 -19 -48.4971 -33c-26.665 -30 -39.998 -67.667 -39.998 -113v-140zM235.009 295.003
h-99.9932v58c0 19.333 4.5 33.833 13.499 43.5s21.165 14.5 36.498 14.5c15.332 0 27.498 -4.83301 36.4971 -14.5s13.499 -24.167 13.499 -43.5v-58z" />
    <glyph glyph-name="u0259" unicode="&#x259;" 
d="M235 292v60.999c0 19.333 -4.5 33.833 -13.5 43.5s-21.167 14.5 -36.5 14.5s-27.5 -4.83301 -36.5 -14.5s-13.5 -24.834 -13.5 -45.501h-102c0 48 13.333 87 40 117c13.333 14 29.5 25 48.5 33s40.167 12 63.5 12c32 0 59.167 -6.66699 81.5 -20s39.5 -31 51.5 -53
c7.33301 -13.333 12.333 -28.666 15 -45.999s4 -36.333 4 -57v-167c0 -20.667 -1.33301 -39.667 -4 -57s-7.66699 -32.666 -15 -45.999c-12 -22 -29.167 -39.667 -51.5 -53s-49.5 -20 -81.5 -20c-23.333 0 -44.333 4 -63 12s-34.667 19 -48 33
c-27.333 27.333 -41 63 -41 107v146h202zM235 211.999h-99.998v-66c1.33301 -11.333 5.16602 -22.5 11.499 -33.5s19.166 -16.5 38.499 -16.5c15.333 0 27.5 4.33301 36.5 13s13.5 21 13.5 37v66z" />
    <glyph glyph-name="u025A" unicode="&#x25a;" horiz-adv-x="488" 
d="M33 262l201.995 59.999v39c0 16 -4.5 28.333 -13.5 37s-21.167 13 -36.5 13c-19.333 0 -32.166 -5.66699 -38.499 -17s-10.166 -22.666 -11.499 -33.999h-102c0 44.667 13.667 80.667 41 108c13.333 14 29.333 25 48 33s39.667 12 63 12
c22.667 0 42.834 -3.5 60.501 -10.5s32.834 -16.833 45.501 -29.5c16.667 -16.667 27.834 -35.667 33.501 -57s9.16699 -44.333 10.5 -69l65 21l21 -70c1.33301 -4.66699 3 -10 5 -16s4.5 -11.5 7.5 -16.5s6.66699 -9.16699 11 -12.5s9.83301 -5 16.5 -5
s12.667 1.33301 18 4l15 -61l-14.5 -6c-6.33301 -2.66699 -13.833 -4 -22.5 -4c-10 0 -20.333 1 -31 3s-20.667 7.66699 -30 17c-8 7.33301 -14.667 16.666 -20 27.999s-10.333 24 -15 38l-3 9l-23 -9v-97c0 -20.667 -1.33301 -39.667 -4 -57s-7.66699 -32.666 -15 -45.999
c-12 -22 -28.833 -39.667 -50.5 -53s-48.5 -20 -80.5 -20c-23.333 0 -44.5 4 -63.5 12s-35.167 19 -48.5 33c-26.667 30 -40 67.667 -40 113v110zM234.995 241.999l-100 -30v-58c0 -19.333 4.5 -33.833 13.5 -43.5s21.167 -14.5 36.5 -14.5s27.5 4.83301 36.5 14.5
s13.5 24.167 13.5 43.5v88z" />
    <glyph glyph-name="u025B" unicode="&#x25b;" horiz-adv-x="372" 
d="M249 365c-1.33301 19.333 -6.99512 32.8311 -16.9951 40.498s-21.667 11.5 -35 11.5c-16.667 0 -29.667 -5.33301 -39 -16s-14 -22.667 -14 -36c0 -4.66699 0.5 -11.167 1.5 -19.5s3.83301 -16.166 8.5 -23.499c9.33301 -14.667 26.333 -22 51 -22h30v-85h-32
c-11.333 0 -21.333 -1.5 -30 -4.5s-15.667 -7.83301 -21 -14.5c-5.33301 -6 -8.83301 -13.167 -10.5 -21.5s-2.5 -16.166 -2.5 -23.499c0 -20 5.66699 -35.167 17 -45.5s24.666 -15.5 39.999 -15.5c19.333 0 34.166 5 44.499 15s16.166 24 17.499 42h96
c-0.666992 -25.333 -5.66699 -47.5 -15 -66.5s-21 -34.833 -35 -47.5c-13.333 -12.667 -29.833 -22.334 -49.5 -29.001s-39.5 -10 -59.5 -10s-40.333 3.16699 -61 9.5s-39.667 17.5 -57 33.5c-14.667 14 -25.667 30.5 -33 49.5s-11 39.167 -11 60.5c0 10.667 1 21.5 3 32.5
s5.83301 21.5 11.5 31.5s13.167 19 22.5 27s21.666 14.667 36.999 20c-14.667 7.33301 -26.334 15.666 -35.001 24.999s-15.167 19 -19.5 29s-7.16602 19.833 -8.49902 29.5s-2 18.167 -2 25.5c0 21.333 3.66699 41.5 11 60.5s18.333 34.833 33 47.5
c17.333 15.333 35.333 25.5 54 30.5s37.667 7.5 57 7.5s38.333 -3.66699 57 -11s34.667 -17.666 48 -30.999c12.667 -12.667 22.667 -28.667 30 -48s11.666 -38.666 12.999 -57.999h-96z" />
    <glyph glyph-name="u025C" unicode="&#x25c;" horiz-adv-x="366" 
d="M19 365c1.33301 20 5.83008 38.8359 13.4971 56.5029s18 33.334 31 47.001s28.5 24.5 46.5 32.5s37.667 12 59 12s41.833 -3.5 61.5 -10.5s36.5 -17.167 50.5 -30.5c13.333 -12.667 23.833 -27.834 31.5 -45.501s11.5 -37.5 11.5 -59.5
c0 -7.33301 -0.666992 -15.833 -2 -25.5s-4.16602 -19.5 -8.49902 -29.5s-10.666 -19.833 -18.999 -29.5s-19.5 -17.834 -33.5 -24.501c14.667 -5.33301 26.834 -12 36.501 -20s17 -17 22 -27s8.5 -20.5 10.5 -31.5s3 -21.833 3 -32.5
c0 -20.667 -3.33301 -39.334 -10 -56.001s-16.667 -32.334 -30 -47.001c-14.667 -16 -32.5 -28.333 -53.5 -37s-43.833 -13 -68.5 -13c-47.333 0 -85.666 15.667 -114.999 47c-26 28 -40 63.333 -42 106h96c1.33301 -18 6.83301 -32 16.5 -42s24.167 -15 43.5 -15
c17.333 0 31.166 5.16699 41.499 15.5s15.5 25.5 15.5 45.5c0 19.333 -4.16699 34.833 -12.5 46.5s-23.5 17.5 -45.5 17.5h-32v85h28c20 0 34.5 5 43.5 15s13.5 26.333 13.5 49c0 14.667 -4.66699 27.167 -14 37.5s-22.333 15.5 -39 15.5
c-13.333 0 -25.333 -3.83301 -36 -11.5s-16.667 -21.167 -18 -40.5h-96z" />
    <glyph glyph-name="u025D" unicode="&#x25d;" horiz-adv-x="478" 
d="M42 365c1.33301 19.333 5.6709 38.6699 13.0039 58.0029s17.333 35.333 30 48c13.333 13.333 29.333 23.666 48 30.999s37.667 11 57 11c33.333 0 62.166 -8.16699 86.499 -24.5s41.5 -38.833 51.5 -67.5l62 20l21 -70c1.33301 -4.66699 3 -10 5 -16s4.5 -11.5 7.5 -16.5
s6.66699 -9.16699 11 -12.5s9.83301 -5 16.5 -5s12.667 1.33301 18 4l15 -61l-14.5 -6c-6.33301 -2.66699 -13.833 -4 -22.5 -4c-10 0 -20.333 1 -31 3s-20.667 7.66699 -30 17c-8 7.33301 -14.667 16.666 -20 27.999s-10.333 24 -15 38l-3 9l-14 -5
c-2 -17.333 -7.33301 -33.5 -16 -48.5s-22.667 -27.5 -42 -37.5c15.333 -5.33301 28 -12 38 -20s18 -17 24 -27s10.167 -20.5 12.5 -31.5s3.5 -21.833 3.5 -32.5c0 -21.333 -3.66699 -41.5 -11 -60.5s-18.333 -35.5 -33 -49.5c-17.333 -16 -36.333 -27.167 -57 -33.5
s-41 -9.5 -61 -9.5s-39.833 3.33301 -59.5 10s-36.167 16.334 -49.5 29.001c-14 12.667 -25.667 28.5 -35 47.5s-14.333 41.167 -15 66.5h96c1.33301 -18 7.16602 -32 17.499 -42s25.166 -15 44.499 -15c15.333 0 28.666 5.16699 39.999 15.5s17 25.5 17 45.5
c0 7.33301 -0.833008 15.166 -2.5 23.499s-5.16699 15.5 -10.5 21.5c-5.33301 6.66699 -12.333 11.5 -21 14.5s-18.667 4.5 -30 4.5h-32v85h30c24.667 0 41.667 7.33301 51 22c4.66699 7.33301 7.5 15.166 8.5 23.499s1.5 14.833 1.5 19.5c0 13.333 -4.66699 25.333 -14 36
s-22.333 16 -39 16c-13.333 0 -25 -3.83301 -35 -11.5s-15.667 -21.167 -17 -40.5h-96z" />
    <glyph glyph-name="u025E" unicode="&#x25e;" horiz-adv-x="406" 
d="M304 258c14.667 -5.33301 26.832 -12.002 36.499 -20.002s17.334 -17 23.001 -27s9.5 -20.5 11.5 -31.5s3 -21.833 3 -32.5c0 -21.333 -3.66699 -41.5 -11 -60.5s-18.333 -35.5 -33 -49.5c-17.333 -16 -36.333 -27.167 -57 -33.5s-41 -9.5 -61 -9.5
c-34.667 0 -65.834 8.5 -93.501 25.5s-49.5 40.833 -65.5 71.5c-12.667 24 -21 49.667 -25 77s-6.33301 55.333 -7 84c0 10 0.333008 21.333 1 34s2.5 26.334 5.5 41.001s6.83301 29.5 11.5 44.5s11 29.5 19 43.5c15.333 27.333 35.833 50.5 61.5 69.5
s55.834 28.5 90.501 28.5c19.333 0 38.333 -2.5 57 -7.5s36.667 -15.167 54 -30.5c14.667 -12.667 25.667 -28.5 33 -47.5s11 -39.167 11 -60.5c0 -7.33301 -0.666992 -15.833 -2 -25.5s-4.16602 -19.5 -8.49902 -29.5s-10.833 -19.667 -19.5 -29
s-20.334 -17.666 -35.001 -24.999zM113.998 260.998c-1.33301 -20 0.169922 -42.8311 4.50293 -68.498s12.5 -47.834 24.5 -66.501c15.333 -24 39.333 -36 72 -36c15.333 0 28.666 5.16699 39.999 15.5s17 25.5 17 45.5c0 7.33301 -0.833008 15.166 -2.5 23.499
s-5.16699 15.5 -10.5 21.5c-5.33301 6.66699 -12.333 11.5 -21 14.5s-18.667 4.5 -30 4.5h-22v85h20c24.667 0 41.667 7.33301 51 22c4.66699 7.33301 7.5 15.166 8.5 23.499s1.5 14.833 1.5 19.5c0 13.333 -4.66699 25.333 -14 36s-22.333 16 -39 16
c-30.667 0 -53.667 -11.667 -69 -35c-10.667 -15.333 -18.334 -34.166 -23.001 -56.499s-7.33398 -43.833 -8.00098 -64.5z" />
    <glyph glyph-name="u025F" unicode="&#x25f;" horiz-adv-x="222" 
d="M162 0v-54.001c0 -50 -15.667 -87.667 -47 -113s-71 -38 -119 -38v96c24.667 0 41.667 6.33301 51 19c5.33301 7.33301 8.83301 16.833 10.5 28.5s2.5 26.834 2.5 45.501v16h-68v60h68v447h102v-447h68v-60h-68z" />
    <glyph glyph-name="u0260" unicode="&#x260;" horiz-adv-x="394" 
d="M408 616h-8.99805c-8.66699 0 -16.667 -1.16699 -24 -3.5s-13.333 -7.16602 -18 -14.499c-6.66699 -11.333 -10 -31.333 -10 -60v-600c0 -17.333 -2.83301 -34.833 -8.5 -52.5s-14.834 -33.5 -27.501 -47.5c-12.667 -14.667 -28.667 -26.5 -48 -35.5
s-42.333 -13.5 -69 -13.5c-15.333 0 -31.333 2.5 -48 7.5s-32 13.5 -46 25.5c-14.667 11.333 -27.167 26.5 -37.5 45.5s-17.166 43.5 -20.499 73.5h102c0.666992 -12 5.5 -23.333 14.5 -34s22.167 -16 39.5 -16c16.667 0 28.667 5.16699 36 15.5s11 23.5 11 39.5v100h-2
c-11.333 -16.667 -24.833 -29.5 -40.5 -38.5s-33.834 -13.5 -54.501 -13.5c-42.667 0 -72.334 16 -89.001 48c-6 11.333 -10.333 25.333 -13 42s-4 39 -4 67v193c0 36.667 1 63.667 3 81c4 33.333 19.667 58.333 47 75c12.667 8.66699 31.667 13 57 13
c12.667 0 23.5 -1.33301 32.5 -4s17.167 -6.33398 24.5 -11.001s14 -10.167 20 -16.5l19 -20.5v84c0 25.333 3 49 9 71s16 40.667 30 56c11.333 12 25.5 21.667 42.5 29s40.5 11 70.5 11h11v-96zM144.002 156c0 -16 3.49805 -30 10.498 -42s20.167 -18 39.5 -18
c14.667 0 26.834 5.16699 36.501 15.5s14.5 23.5 14.5 39.5v197c0 18.667 -4.66699 33.834 -14 45.501s-21.666 17.5 -36.999 17.5c-17.333 0 -30 -6.33301 -38 -19s-12 -29.334 -12 -50.001v-186z" />
    <glyph glyph-name="u0261" unicode="&#x261;" horiz-adv-x="389" 
d="M144 -59c0.666992 -12 5.50195 -23.332 14.502 -33.999s22.167 -16 39.5 -16c16.667 0 28.667 5.16699 36 15.5s11 23.5 11 39.5v100h-2c-11.333 -16.667 -24.833 -29.5 -40.5 -38.5s-33.834 -13.5 -54.501 -13.5c-42.667 0 -72.334 16 -89.001 48
c-6 11.333 -10.333 25.333 -13 42s-4 39 -4 67v193c0 36.667 1 63.667 3 81c4 33.333 19.667 58.333 47 75c12.667 8.66699 31.667 13 57 13c12.667 0 23.5 -1.33301 32.5 -4s17.167 -6.33398 24.5 -11.001s14 -10.167 20 -16.5l19 -20.5v46h102v-569
c0 -17.333 -2.83301 -34.833 -8.5 -52.5s-14.834 -33.5 -27.501 -47.5c-12.667 -14.667 -28.667 -26.5 -48 -35.5s-42.333 -13.5 -69 -13.5c-15.333 0 -31.333 2.5 -48 7.5s-32 13.5 -46 25.5c-14.667 11.333 -27.167 26.5 -37.5 45.5s-17.166 43.5 -20.499 73.5h102z
M144.002 156.001c0 -16 3.49805 -30 10.498 -42s20.167 -18 39.5 -18c14.667 0 26.834 5.16699 36.501 15.5s14.5 23.5 14.5 39.5v197c0 18.667 -4.66699 33.834 -14 45.501s-21.666 17.5 -36.999 17.5c-17.333 0 -30 -6.33301 -38 -19s-12 -29.334 -12 -50.001v-186z" />
    <glyph glyph-name="u0262" unicode="&#x262;" horiz-adv-x="383" 
d="M33 359c0 44.667 13.6699 81.501 41.0029 110.501s65.666 43.5 114.999 43.5c24 0 45.667 -3.83301 65 -11.5s35.666 -18.334 48.999 -32.001s23.666 -29.834 30.999 -48.501s11 -39 11 -61v-21h-102v11c0 40.667 -18 61 -54 61s-54 -24 -54 -72v-175
c0 -24.667 5.16699 -42.834 15.5 -54.501s24.833 -17.5 43.5 -17.5s32.5 5.5 41.5 16.5s13.5 28.833 13.5 53.5v14h-60v86h156v-109c0 -22.667 -3.33301 -43.667 -10 -63s-16.5 -36.166 -29.5 -50.499s-29.167 -25.5 -48.5 -33.5s-41.333 -12 -66 -12
c-46.667 0 -84.667 13.333 -114 40s-44 67.334 -44 122.001v203z" />
    <glyph glyph-name="u0263" unicode="&#x263;" horiz-adv-x="366" 
d="M-1 507h105.999l77 -267h2l77 267h106l-131 -379c20.667 -40 37.334 -75.167 50.001 -105.5s19 -62.166 19 -95.499c0 -19.333 -2.66699 -37.333 -8 -54s-13.333 -31.167 -24 -43.5s-23.5 -22.166 -38.5 -29.499s-32.167 -11 -51.5 -11c-37.333 0 -67 12.667 -89 38
s-33 58.666 -33 99.999c0 30 7 62.167 21 96.5s30 69.166 48 104.499zM144.999 -73c0 -15.333 3 -28.167 9 -38.5s15.667 -15.5 29 -15.5c14.667 0 24.667 5.83301 30 17.5s8 23.834 8 36.501c0 18 -3.83301 36.5 -11.5 55.5l-26.5 63.5
c-10.667 -22.667 -19.667 -44.334 -27 -65.001s-11 -38.667 -11 -54z" />
    <glyph glyph-name="u0264" unicode="&#x264;" horiz-adv-x="366" 
d="M-1 507l106.001 0.00292969l77 -166h2l77 166h106l-131 -243c1.33301 -3.33301 5.66602 -9.33301 12.999 -18s15 -19.334 23 -32.001s15.167 -26.834 21.5 -42.501s9.5 -31.834 9.5 -48.501c0 -38 -10.333 -69 -31 -93s-50.334 -36 -89.001 -36
c-37.333 0 -66.666 11.667 -87.999 35s-32 53 -32 89c0 14.667 3 30 9 46s13 30.667 21 44s15.667 25 23 35s12 17 14 21zM147.001 119.003c0 -30 12.001 -45.001 36.001 -45.001c13.333 0 22.666 4.33301 27.999 13s8 19.334 8 32.001c0 8.66699 -1.33301 17 -4 25
s-6 15.333 -10 22s-8 12.667 -12 18s-7.33301 10 -10 14c-6 -7.33301 -13.5 -18.5 -22.5 -33.5s-13.5 -30.167 -13.5 -45.5z" />
    <glyph glyph-name="u0265" unicode="&#x265;" horiz-adv-x="389" 
d="M347.003 507l-0.000976562 -711.956h-101.994v253.985h-2c-10.666 -15.999 -23.498 -29.165 -38.4971 -39.498s-34.165 -15.499 -57.4971 -15.499c-12.666 0 -25.332 2.16699 -37.9971 6.5c-12.666 4.33301 -23.999 11.499 -33.998 21.498s-17.999 22.832 -23.999 38.498
c-5.99902 15.665 -8.99902 34.8301 -8.99902 57.4951v388.977h101.993v-350.979c0 -18.665 4.33301 -33.3311 12.999 -43.9971c8.66699 -10.666 21 -15.999 36.999 -15.999c19.332 0 32.665 6 39.998 17.999s10.999 29.3311 10.999 51.9961v340.979h101.994z" />
    <glyph glyph-name="u0266" unicode="&#x266;" horiz-adv-x="389" 
d="M205 616l-9.00195 -0.000976562c-8.66699 0 -16.667 -1.16699 -24 -3.5s-13.333 -7.16602 -18 -14.499c-6.66699 -11.333 -10 -31.333 -10 -60v-80h2c10.667 16 23.5 29.167 38.5 39.5s34.167 15.5 57.5 15.5c12.667 0 25.334 -2.16699 38.001 -6.5s24 -11.5 34 -21.5
s18 -22.833 24 -38.5s9 -34.834 9 -57.501v-389h-102v351c0 18.667 -4.33301 33.334 -13 44.001s-21 16 -37 16c-19.333 0 -32.666 -6 -39.999 -18s-11 -29.333 -11 -52v-341h-102v545c0 25.333 3 49 9 71s16 40.667 30 56c11.333 12 25.5 21.667 42.5 29s40.5 11 70.5 11
h11v-96z" />
    <glyph glyph-name="u0267" unicode="&#x267;" horiz-adv-x="389" 
d="M42 545c0 25.333 2.99805 48.998 8.99805 70.998s16 40.667 30 56c11.333 12 25.5 21.667 42.5 29s40.5 11 70.5 11h11v-96h-9c-8.66699 0 -16.667 -1.16699 -24 -3.5s-13.333 -7.16602 -18 -14.499c-6.66699 -11.333 -10 -31.333 -10 -60v-90h2
c10.667 16 23.5 29.167 38.5 39.5s34.167 15.5 57.5 15.5c12.667 0 25.334 -2.16699 38.001 -6.5s24 -11.5 34 -21.5s18 -22.833 24 -38.5s9 -34.834 9 -57.501v-433c0 -50 -15.667 -87.667 -47 -113s-71 -38 -119 -38v96c24.667 0 41.667 6.33301 51 19
c5.33301 7.33301 8.83301 16.833 10.5 28.5s2.5 26.834 2.5 45.501v357c0 18.667 -4.33301 33.334 -13 44.001s-21 16 -37 16c-19.333 0 -32.666 -6 -39.999 -18s-11 -29.333 -11 -52v-331h-102v545z" />
    <glyph glyph-name="u0268" unicode="&#x268;" horiz-adv-x="204" 
d="M51 0v240h-55v60h55v207h102v-207h55v-60h-55v-240h-102zM51 610v102h102v-102h-102z" />
    <glyph glyph-name="u0269" unicode="&#x269;" horiz-adv-x="202" 
d="M144 183c0 -18.667 0.166016 -34 0.499023 -46s2.83301 -21.667 7.5 -29s11.334 -12 20.001 -14s18 -3.33301 28 -4v-96c-32.667 0 -59.167 3.33301 -79.5 10s-36.333 16.167 -48 28.5s-19.667 27.833 -24 46.5s-6.5 40.667 -6.5 66v362h102v-324z" />
    <glyph glyph-name="u026A" unicode="&#x26a;" horiz-adv-x="194" 
d="M46 0v507h102v-507h-102z" />
    <glyph glyph-name="u026B" unicode="&#x26b;" horiz-adv-x="280" 
d="M89 330c-2.66699 0.666992 -5.16797 0.999023 -7.50098 0.999023h-6.5c-13.333 0 -22.166 -4.66699 -26.499 -14s-6.83301 -20.666 -7.5 -33.999h-51c0.666992 11.333 2.66699 23.333 6 36s8.5 24.167 15.5 34.5s15.667 19 26 26s22.833 10.5 37.5 10.5
c2.66699 0 7.33398 -0.666992 14.001 -2v324h102v-358c7.33301 -2.66699 13.666 -4 18.999 -4c6.66699 0 12 1.5 16 4.5s6.83301 6.66699 8.5 11s2.66699 9.16602 3 14.499s0.833008 10.333 1.5 15h51c-0.666992 -12 -2.5 -24.167 -5.5 -36.5s-7.5 -23.5 -13.5 -33.5
s-13.667 -18.167 -23 -24.5s-21 -9.5 -35 -9.5c-6.66699 0 -14 1 -22 3v-151c0 -19.333 3.5 -32.5 10.5 -39.5s20.167 -11.5 39.5 -13.5v-96c-23.333 0 -44.333 1.83301 -63 5.5s-34.667 10.834 -48 21.501c-13.333 10 -23.5 24.167 -30.5 42.5s-10.5 42.5 -10.5 72.5v194z
" />
    <glyph glyph-name="u026C" unicode="&#x26c;" horiz-adv-x="272" 
d="M102 457v255h102v-362h68v-60h-68v-147c0 -19.333 3.5 -32.5 10.5 -39.5s20.167 -11.5 39.5 -13.5v-96c-23.333 0 -44.333 1.83301 -63 5.5s-34.667 10.834 -48 21.501c-13.333 10 -23.5 24.167 -30.5 42.5s-10.5 42.5 -10.5 72.5v154h-14
c-25.333 0 -46.333 6.33301 -63 19s-25 35.667 -25 69c0 15.333 2.5 28.166 7.5 38.499s11.5 18.5 19.5 24.5s17.167 10.167 27.5 12.5s20.833 3.5 31.5 3.5h16zM52 380c0 -20 10.333 -30 31 -30h19v59h-16c-22.667 0 -34 -9.66699 -34 -29z" />
    <glyph glyph-name="u026D" unicode="&#x26d;" horiz-adv-x="178" 
d="M36 712l102.001 -0.000976562v-764c0 -5.33301 0.666992 -13 2 -23s5.66602 -17.667 12.999 -23c10 -8 25 -12 45 -12v-96c-23.333 0 -46 1.83301 -68 5.5s-39.667 10.834 -53 21.501c-13.333 10 -23.5 24.167 -30.5 42.5s-10.5 42.5 -10.5 72.5v776z" />
    <glyph glyph-name="u026E" unicode="&#x26e;" horiz-adv-x="457" 
d="M327 252c20.667 -5.33301 37.667 -12.5039 51 -21.5039s23.833 -19.667 31.5 -32s12.834 -26 15.501 -41s4 -31.5 4 -49.5v-133c0 -25.333 -3 -49.166 -9 -71.499s-15.5 -42 -28.5 -59s-29.667 -30.5 -50 -40.5s-44.5 -15 -72.5 -15
c-21.333 0 -40.833 3.83301 -58.5 11.5s-33 18.334 -46 32.001s-23.333 29.834 -31 48.501s-12.167 38.667 -13.5 60h96c2.66699 -16 8.16699 -29.333 16.5 -40s22.166 -16 41.499 -16c18.667 0 31.5 6 38.5 18s10.5 28 10.5 48v150c0 21.333 -5.16699 39 -15.5 53
s-27.833 21 -52.5 21h-32v75l89 167h-174v-274c0 -19.333 3.5 -32.5 10.5 -39.5s20.167 -11.5 39.5 -13.5v-96c-23.333 0 -44.333 1.83301 -63 5.5s-34.667 10.834 -48 21.501c-13.333 10 -23.5 24.167 -30.5 42.5s-10.5 42.5 -10.5 72.5v576h102v-205h285v-81z" />
    </font>
</defs>
</svg>
